<mxfile host="Electron" modified="2024-02-19T10:23:43.674Z" agent="Mozilla/5.0 (Windows NT 10.0; Win64; x64) AppleWebKit/537.36 (KHTML, like Gecko) draw.io/22.1.11 Chrome/114.0.5735.289 Electron/25.9.8 Safari/537.36" etag="NLWESy1Kl9grltAwCFVq" version="22.1.11" type="device">
  <diagram name="第 1 页" id="ISSuK2InTCnuNtZOBtaO">
    <mxGraphModel dx="1434" dy="870" grid="1" gridSize="10" guides="1" tooltips="1" connect="1" arrows="1" fold="1" page="1" pageScale="1" pageWidth="827" pageHeight="1169" math="0" shadow="0">
      <root>
        <mxCell id="0" />
        <mxCell id="1" parent="0" />
        <mxCell id="wvO3bNdWeyCbrdkIyxWq-6" style="rounded=0;orthogonalLoop=1;jettySize=auto;html=1;entryX=0.5;entryY=1;entryDx=0;entryDy=0;sketch=1;curveFitting=1;jiggle=2;labelBackgroundColor=none;strokeColor=#A8201A;fontColor=default;" edge="1" parent="1" source="wvO3bNdWeyCbrdkIyxWq-1" target="wvO3bNdWeyCbrdkIyxWq-2">
          <mxGeometry relative="1" as="geometry" />
        </mxCell>
        <mxCell id="wvO3bNdWeyCbrdkIyxWq-1" value="MapPropertySource" style="rounded=0;whiteSpace=wrap;html=1;sketch=1;curveFitting=1;jiggle=2;labelBackgroundColor=none;fillColor=#FAE5C7;strokeColor=#0F8B8D;fontColor=#143642;" vertex="1" parent="1">
          <mxGeometry x="190" y="240" width="120" height="60" as="geometry" />
        </mxCell>
        <mxCell id="wvO3bNdWeyCbrdkIyxWq-2" value="EncryptableMapPropertySourceWrapper" style="shape=process;whiteSpace=wrap;html=1;backgroundOutline=1;sketch=1;curveFitting=1;jiggle=2;labelBackgroundColor=none;fillColor=#FAE5C7;strokeColor=#0F8B8D;fontColor=#143642;" vertex="1" parent="1">
          <mxGeometry x="345" y="60" width="280" height="60" as="geometry" />
        </mxCell>
        <mxCell id="wvO3bNdWeyCbrdkIyxWq-8" style="rounded=0;orthogonalLoop=1;jettySize=auto;html=1;sketch=1;curveFitting=1;jiggle=2;labelBackgroundColor=none;strokeColor=#A8201A;fontColor=default;" edge="1" parent="1" source="wvO3bNdWeyCbrdkIyxWq-3">
          <mxGeometry relative="1" as="geometry">
            <mxPoint x="480" y="120" as="targetPoint" />
          </mxGeometry>
        </mxCell>
        <mxCell id="wvO3bNdWeyCbrdkIyxWq-3" value="PropertiesProterySource" style="rounded=0;whiteSpace=wrap;html=1;sketch=1;curveFitting=1;jiggle=2;labelBackgroundColor=none;fillColor=#FAE5C7;strokeColor=#0F8B8D;fontColor=#143642;" vertex="1" parent="1">
          <mxGeometry x="660" y="240" width="150" height="60" as="geometry" />
        </mxCell>
        <mxCell id="wvO3bNdWeyCbrdkIyxWq-7" style="edgeStyle=orthogonalEdgeStyle;rounded=0;orthogonalLoop=1;jettySize=auto;html=1;sketch=1;curveFitting=1;jiggle=2;labelBackgroundColor=none;strokeColor=#A8201A;fontColor=default;" edge="1" parent="1" source="wvO3bNdWeyCbrdkIyxWq-4">
          <mxGeometry relative="1" as="geometry">
            <mxPoint x="480" y="120" as="targetPoint" />
          </mxGeometry>
        </mxCell>
        <mxCell id="wvO3bNdWeyCbrdkIyxWq-4" value="OriginTrackedMapPropertySource" style="rounded=0;whiteSpace=wrap;html=1;sketch=1;curveFitting=1;jiggle=2;labelBackgroundColor=none;fillColor=#FAE5C7;strokeColor=#0F8B8D;fontColor=#143642;" vertex="1" parent="1">
          <mxGeometry x="380" y="240" width="200" height="60" as="geometry" />
        </mxCell>
        <mxCell id="wvO3bNdWeyCbrdkIyxWq-9" value="EncryptableSystemEnvironmentPropertySourceWrapper" style="shape=process;whiteSpace=wrap;html=1;backgroundOutline=1;sketch=1;curveFitting=1;jiggle=2;labelBackgroundColor=none;fillColor=#FAE5C7;strokeColor=#0F8B8D;fontColor=#143642;" vertex="1" parent="1">
          <mxGeometry x="355" y="450" width="380" height="60" as="geometry" />
        </mxCell>
        <mxCell id="wvO3bNdWeyCbrdkIyxWq-12" style="edgeStyle=orthogonalEdgeStyle;rounded=0;orthogonalLoop=1;jettySize=auto;html=1;entryX=0.5;entryY=1;entryDx=0;entryDy=0;sketch=1;curveFitting=1;jiggle=2;labelBackgroundColor=none;strokeColor=#A8201A;fontColor=default;" edge="1" parent="1" source="wvO3bNdWeyCbrdkIyxWq-10" target="wvO3bNdWeyCbrdkIyxWq-9">
          <mxGeometry relative="1" as="geometry" />
        </mxCell>
        <mxCell id="wvO3bNdWeyCbrdkIyxWq-10" value="SystemEnvironmentPropertySourceEnvironmentPostProcessor$OriginAwareSystemEnvironmentPropertySource" style="rounded=0;whiteSpace=wrap;html=1;sketch=1;curveFitting=1;jiggle=2;labelBackgroundColor=none;fillColor=#FAE5C7;strokeColor=#0F8B8D;fontColor=#143642;" vertex="1" parent="1">
          <mxGeometry x="240" y="590" width="610" height="60" as="geometry" />
        </mxCell>
        <mxCell id="wvO3bNdWeyCbrdkIyxWq-13" value="EncryptablePropertySourceWrapper" style="shape=process;whiteSpace=wrap;html=1;backgroundOutline=1;sketch=1;curveFitting=1;jiggle=2;labelBackgroundColor=none;fillColor=#FAE5C7;strokeColor=#0F8B8D;fontColor=#143642;" vertex="1" parent="1">
          <mxGeometry x="355" y="730" width="295" height="60" as="geometry" />
        </mxCell>
        <mxCell id="wvO3bNdWeyCbrdkIyxWq-16" style="edgeStyle=orthogonalEdgeStyle;rounded=0;orthogonalLoop=1;jettySize=auto;html=1;entryX=0.5;entryY=1;entryDx=0;entryDy=0;sketch=1;curveFitting=1;jiggle=2;labelBackgroundColor=none;strokeColor=#A8201A;fontColor=default;" edge="1" parent="1" source="wvO3bNdWeyCbrdkIyxWq-14" target="wvO3bNdWeyCbrdkIyxWq-13">
          <mxGeometry relative="1" as="geometry" />
        </mxCell>
        <mxCell id="wvO3bNdWeyCbrdkIyxWq-14" value="RandomValuePropertySource" style="rounded=0;whiteSpace=wrap;html=1;sketch=1;curveFitting=1;jiggle=2;labelBackgroundColor=none;fillColor=#FAE5C7;strokeColor=#0F8B8D;fontColor=#143642;" vertex="1" parent="1">
          <mxGeometry x="260" y="870" width="200" height="60" as="geometry" />
        </mxCell>
        <mxCell id="wvO3bNdWeyCbrdkIyxWq-17" style="edgeStyle=orthogonalEdgeStyle;rounded=0;orthogonalLoop=1;jettySize=auto;html=1;entryX=0.5;entryY=1;entryDx=0;entryDy=0;sketch=1;curveFitting=1;jiggle=2;labelBackgroundColor=none;strokeColor=#A8201A;fontColor=default;" edge="1" parent="1" source="wvO3bNdWeyCbrdkIyxWq-15" target="wvO3bNdWeyCbrdkIyxWq-13">
          <mxGeometry relative="1" as="geometry" />
        </mxCell>
        <mxCell id="wvO3bNdWeyCbrdkIyxWq-15" value="CachedRandomPropertySource" style="rounded=0;whiteSpace=wrap;html=1;sketch=1;curveFitting=1;jiggle=2;labelBackgroundColor=none;fillColor=#FAE5C7;strokeColor=#0F8B8D;fontColor=#143642;" vertex="1" parent="1">
          <mxGeometry x="550" y="870" width="200" height="60" as="geometry" />
        </mxCell>
        <mxCell id="wvO3bNdWeyCbrdkIyxWq-18" value="" style="shape=image;verticalLabelPosition=bottom;labelBackgroundColor=none;verticalAlign=top;aspect=fixed;imageAspect=0;image=data:image/png,iVBORw0KGgoAAAANSUhEUgAAA00AAADgCAYAAADfaY2BAAAgAElEQVR4nO3df3BU553n+89pCSRaAoFtqX9IQH44iZ0J3R3JgO8Ms8nc2WDJDjY7mewfW1tlydhLKN9K3dqtrQohuFR4SFJ1/8tclqEUFqdq9tatm8SFjTHE3tqdTLwJRpYiicR27GQwIHW3ABsEkhAgnXP/aHXTUp8+6m71L7XeryoKkLrP85znOec553ueH8f47IOfs5Sj1fV1ujk+kevXc1aqdD1NjRq9fKXo6S63cqZ+SbcQqN/KTpf6rex0qd/KTpf6rex0K6V+XXnbEgAAAABUIIImAAAAAHBA0AQAAAAADgiaAAAAAMABQRMAAAAAOCBoAgAAAAAHBE0AAAAA4ICgCQAAAAAcEDQBAAAAgAOCJgAAAABwQNAEAAAAAA4ImgAAAADAAUETAAAAADggaAIAAAAABwRNAAAAAOCAoAkAAAAAHBA0AQAAAIADgiYAAAAAcEDQBAAAAAAOCJoAAAAAwAFBEwAAAAA4IGgCAAAAAAcETQAAAADggKAJAAAAABwQNAEAAACAA4ImAAAAAHBghEIhq9SZWCrcbrcmJydLnQ0UCPVb2ajfykb9Vjbqt7JRv5WtUuq3+ub4RM5fXl1fp8V8f6ml63a7l9X+Lrd0qd/KTpf6rex0qd/KTpf6rex0qd/KTrdS6pfheQAAAADggKAJAAAAABwQNAEAAACAA4ImAAAAAHBA0AQAAAAADgiaAAAAAMABQRMAAAAAOCBoAgAAAAAH1aXOQLn45t9+o9RZAABUmJ/+7OclSZdrGoBiKVU7V2wETUneeuutUmcBAFABtm3bVuoscE0DUFDl0M4VE8PzAAAAAMABQRMAAAAAOCBoAgAAAAAHBE0AAAAA4ICgCQAAAAAcEDQBAAAAgAOCJgAAAABwQNAEAAAAAA54uW0eVNVJKxoMVdUYkqSZ25bujlmamShxxgAAyNY6rwx3vVS3Jvb/iRuyJsela9HS5gsASoigKUeGS3JvdGnVBkNVbsP2MzOTlm5dtDR5wZRlFjmDAABkwWhcL2PDQ1Jjc+rvJOnKiKyL78u6cqnoeQOAUiNoysGKtYYagq60wVJcldtQ/UOGVm0wNDZo6u51q0g5RDkzm7foqa+3yauITh5+WWFXZqNkc/0eACyk6rFOWc6XNKmxWUZjs1yWNPOLl4qSLwAoFwRNWarxGmoIVsnI4n61ym1o3dYqjQ3O6Ha0PAMn02zR5p071Opz+FDkhHpeHS5aniqXX4FAUB5J/ZLCBf/eXI51HelTf98Z9Y0QkOVDoqxDHjV5vPIahqxoRKOSLg/8mPMpR1UPtMjd6M7w05O6/dFF3bnFMe1kwYApx8+WCu1c8dDOFQbtXPkhaMpCrIcpu4ApznBJDcEqXZuaKdseJ38oqIA3/dXQUp+k5d34+ZtbFB5Z+mWQtq6DIQXad+np6Cn9sHt59mblq47N5p3a/912eY255Wx4ffJK8oQekf/4xWVZxovmvk8192d2M2FZtZr+6GKBM7Q0ffbhL6nR49eZf3ojp+8/+tXtujIa1p/e+12ec5YftHPp0c4tAbRzZYegKUOxoMeVU8A0fxsf/2rGcY5T/YNVqv9CbK7UzC1L4x+YGv+geJOiho69qJN23RiXLkrLtOHzP9mtve0+WYNH9e0jSz9oiptT136/2lofVyDgldfboe90a1ndUOSzjk1zi3bP3khY0VP6ydGXE0+1TbNFLVsf0ROt+cj18nT3ow917UryT9xa+fCDqnMbuv3+oCbnLcIzw9NXW1/4UkifXLm86G0sFDSV1TWNdo52bomgnSs/BE0Zcm9MP4dpesrUzZFbc362unmVqmtTD+AqtyH3RpcmzttfMKobpIYvu3R71NLE+RnVPOBSQ7BK02PS1GixLjIXFbYbtrBMLirLS1Jdjwwr3HtWr8SfHHo79MTWl9XTW9ocLkUtOx9XYPZGYv4Nmcs1rHDvcKxcOady4nLd0kxSk2ua0srE/ya4echAk69FhpF+ZMHdsWua+uhd6e5dVd/XqOr7/VrRsC7lc4ZhqMnXossR+xvwsrum0c7lDe1cYdHOlR9KPEO16x2GrVnS1Me3df2P47r+x3FNfXxblsMIPKdt1TbFquST30zr5rumPvnNtCRpxX255bvYzOYW+c3sLoSm2SJ/c0uBcpRp+vm7eJvNue1PPvPhz6EeEi69o6HR2D+bfBtyzkOu5SDlVhaL2uc88/m8sX+Mhhf1BHsxZVgI2Zyr+aoPs7lFbU9uyVvdmuYW7di9Ja/n/FK08cHPp/3dzf7/pfEzb2o6OqLpjy9r6sPfa/zMm7Lu3M56W2V7TaOdWzTaOdq55YaepgxU1xuqrksf6KxY5ZJvy32KnP1EkuTb4nw1qK4zVF1vaHo8NbIyZmvEvDv3b5XZxFuzead27wqpSaM63X1IkZ3Pq+uxYGJcs2VFdO6lF9TTa9+QmmaLNu95Vp3BubN0reiAfnL0kPpGXClpaM+BxOc/uhBRbY2kgdd18NWztmm07e5Wu0e6fCqWj5Q8b31eXZ3BOWOxo4NHdezwmcQFwP/kHnWFPJIndnEwgru074XHJc2d4Go2b9HuXY8r4J27P9HoKZ3ufll9DhcU/+Y9C+YjE7E8PDNnDL8VHdCbp07oRG/mwzBcrmGFRyV5k7edvi6Gjj2XqOfYCn+Pa7tNvb559JBOzOvBzKVOctlnp/y/P/BbrfV609Zxv+9ZtXuU1bEWiUSloE/y+OU3zazrMasy3LxH+zs80ujrOngkNX+JY3je7zOu0wzO1eS85+MYnF8OVvSUfng8q6878gae0d7gLkUHT+n0ay8vuwUBvM3r1eRLXVZckm6+80tNj19T/eavaMV9nsTP745dk7GyxvY7Tb5meZvXKzqSuhR5uV7TaOdo52jnkC2CpgysWJP/1n3FGvugKdnKRkM1jbG0axoN6YupB/ztK5buXCnNwhJNHq88GpV/5wF1tvsUHRzQkKSmQFBew6dNnQe0I/yC7QUkPnHUsiIaHRrVZUnyBLXJ45FfUp9NGrFGJaJRj1dj56P61Fe/LOuxNrUdP5MSlJjNO9Ue8MqjQZ1+W4k+1ZQ8RwdiTxs9HgW8PnmDu/SdPdK3bRrldEyzRU/NNqBWdEDn4k8vA0F5vR16uluKpBkzn698JJdpNDqgy6OS5FEgGNL2rpC8ei5tAGu3P35P6s/T1YVdHiwronOzj3GbPEF5vSFt39cj77HUfORaJ9nu80L5T6e3f1SdXaGsjrXhvgFFH7s3ZyJ5rL+TXMvQ6/XJGk23VU/a32dbp07nar6OwXQ3U4XgDXaoM9ih9mV2U7F6beowO0m6e+2qpj8e1eqtf63qtffP+Z3d0Lz527QLmpKV0zWNdm4u2jnaOSys2tPUuKgNuN2ZLoeYX8VM17B/uFaYbSbFZzWNhtb8WVXs300u1TSlfvzG72fyfoFp8j2qts2pP4+Ez6TMdTKMkL722IBeOvjCnAmgT3V/T9u9Pn3t64/qRPJTH7NFT+2abZwGj+qH856smc0tarmkOQNHY2lE9MbB5xIBmGlu0e6vhBQwQmrdKvXNG4/e0haaTaMvpfG3214s7dnGMLhLz20+o55el8KvHtbBV+dOnrV7yhUeOK2X+uY2Rqa5RbsPP6NAmjHz2eTDSfJk3KFjL6pn3pPH/d9t16bO59X29iHHHq+ErTu03Ru7eAz1XVRyZdjn2TUnD9HTL+rgvCVm/Zv3aG9XKG0gnW1Z5LrP6dKRHOrY7NNQZzCrY801clzHXvJpb1dIhrdDnfs61L5A7+FiyzBX6es083M1H8eg3U1ErMf6xzr5dv5W33K5zurInrBatu5IPO0vxk3FYq+1dnK9Dq69737bn0+df0+SUgKmxWyzHK5ptmjnaOdo5/KSVjKndq4QbWAm8hkvVI9evrLwp9JYXV+nm+MTC38wz0qVbjHcfNfUzXdLOwbV275LnTY/Hzp2Rj0jqT8/99LcrmuXa1ivnBrU9q5QSrd9y85nYxeq6KmUxkmSXCPDto3G6C9+PKfxdLnO6uQvHleg3adNrY9KvXMDs7aQV5YV0ZuvnZHd1L1zL6U2xq6R4zr2i5D22mzTics1rL5Xh1PScbnOqn/oGQWC8THzqd32+chHYjLu4NE5jXh8W6eH2tUZtL8QShvkTxql42vbofbHgrH/DL1ue8GaXxdz8hA9pWPHU1dZDPce1kut/6DOoE+Btg06YbPUbTZlsZh9tsu/k1yPtXDvYT0fvjeMwxvcpe8cflyjQ6/b3lTkowxzZV+nmZ+ri6kPu6GtKUNd8jyRPDZJ/bAO9kr+zTv1REf7bB3N3lREB3R63pCcxVrMtdbOUrkOlsM1jXZuYbRztHP5kK6d8zQ15r0NzES+20mG52XAsp/7WnbbzJd7Xc7zfm6zDLllDag/afhbQjiiqBWUx+OTT/dexBqfODo68E7GT1TsngRK94YGeAJtajOThhOsf0QBj6TRAfVdSvla+jxLGo6MSsptjHac2dyiFvnl88t2+Ec+8xG/mEnSuX77ADE+7twucAt07VfAZrvRND1qdnUxJw+n0i/d29s/qM5gyPa9HdmUxbA25LzP6Y6lheR6rLlGzqrnwNmkC9bsMJzutjnj5PNRhrlKVyaZnqu5HoP3eqST53UUf/hIuPe4enqPz3kC7PWG1LmvR0/bPHmuBNc/+VhNvtSJ7rWffkjjVyK6+8nonPlMmW6zXNHOZYZ2jnYOzgiaMnD3Rv6HChRim/ly+dShNEPCFndCJY8hvxzJpkEfVdi2obZ/shMfRhDNIjBLSBPsLSTdQhA5yyEfga4e/X1XdslYVkSjSQHy5YEB9fc5Neb2dVFQ88oiOezLfp9zy/9ij7X4BSux6Ic3pKe/+7y0J8MhkwWVWia5nqvZ1Ydf3qT78ujpozp2vHQXbtfIWb3ymiQlDZ3x+EuSl0K7ef2a7c9XrGtU9f2NGv/tr+X+YptqklaVuxO9pKqG+1W1yn6oS7ptlgPauczQztHOwRlBUwamxy1NT1hpV9CbnjJ19dyYpq7FlgWK9l7TA5sabN/TJEnTE9aCi0BUpljjYVkR216rXMSfSMWHE5jmFj3xmFeWNaDTNl3/hWBu3qNDXSFJsV66oVN9CofDiuii1HZAe9sLP9EznrZdD2Hi95HUn9mvcJhbmeWzXjOVyz7nKh/HWrj3sF4MxycSpw7jKEUZ2svtXM2mPlyuszr5Upua4uPt23dpb3vxV3qKvYRzh7o6gvLaPA2uxKev0ZFLuhwZsV1Bb/Ujf6Wb7/xPTQ6d0eTQmcTPLZeh+/76G7bbuxwZWXARiFKincsc7dzCaOeWL4KmDE1dslT/UPpV9GruW6ma+1am/f38bS1PYUVHFeu690uymR+Vtbdjk1c3zQ4n6N3aNjvmOHUBiIz4fbNvN48ok+uQabboqY7Y2PihlNV+XPK3ZZ+FXPIhOfUQFodh5LFekzmURVH3OU/H2r2nuUqZO1CwMsxabudqtvXhNN7+6RyX8M2U2dyizV9/Vu0Bb+rSz6/FF72p3BuJC3/8IO2y46sf+SvdvXZFU+fflyVLNff7tNLbnPaG+cIfPyhkVssK7VxmaOeSUqGdqxiUVIYmL5iambQPdqprXVr32bo5f9L1Ms1MWpq8UOpJsaWReC+GZhvRvGzzrE7+Iipj9mnW5tZg0mTVdDzyr7f/zebW2cnBGb+sz/lJVeLlfwXKRyHKNFsu17D6BqIL5iG+T/ZjxzMvi1Ltc27HmrPRSHh223kow9m5EPM5H4P2sinjfNRHuPe4eg58Sz84eFRD0Vg7a3hD2t61Xz861K19T27Jabt2TLNFO174Bx3at1+dQV9imeGh00f1g289p4NHzqasElqJLkeGZTm8hX3Fukatbv1LrWn9V6rZ+DkZNfbD8izL0uVIYW74ygntHO0c7RwosQxZpjQ2aMpaRLyT7TZuvmtq5Kd3Hf+UflWi7PS+dlpRy4q9WO/J1InIZg5v1x7uG1DUsrSp9Xm1BnRvsmoahuHT13b9TUo6/s171Bk0nC8QaRrsxJOz5H2Z3V5B8pEkXqYKPK7nNqfmzTRb1Fbgt63H68AI7tJzm23qNbFPs0M85sm2LAq6z2nqWMr8WGvb3W1bDlL8fSexf8fG0c/ddtZl+HafhixLhrdDT2y1/04usjlX81Uf4ZGz6jnwLT1/8KjeGIw9bzcMnzyh9HWSvXtzDCwroqFjL+qHe15Qz6tnl90QlT/8bqCo21jq1zTaublo5+Z9lnau4jE8Lwt3r1saG5xRQ7BKRpbHXCxgmtHd6+U/NC/dJEfLiujN7y/uvQnJS6t62/frR6EBnRuIqF9Sqy+kTQHpze+/oHA23faX3tHQaLu2B0MKSAtOVrWsiEbVru8cDunc0ID6+6XWjlBiEQe7ZUmTX+LXtUcaikiKvKMTvfeWFd/UeUDP+QbUH5H8rSF9LSANDUYUSPPyulzyYSc2DCIUW6K1q0f7OmbnVckvf2tIgYBXnqH/qr4jhXsanFyvga79+lHHgM4N9KlffrWGYvsUexeF/YTgbMuiEPucvo6TtpHxseZVoGu//r5r7vj32MsbYxf32LK1c/cplzJMXto+0NWjfa2nNNQvqTWk7UGfotGIvDksUJLNuZrv+nCNnNWJI2f1yuzQkqezW8htYaODeqOAS/0uFX9673f603u/y/n7Z/7pjTzmpvzRzs1HO0c7t7wQNGXpdtTStakZNQRdqnJn9mRjZtLS2KC5JAKmYgi/2q0fRHaqq6NdXm9IgfZQYjlYK3oq61V/kt8Lldlk1VGd7v6x/N3f0/ZghwKzoyLiL5ib//4FaV7DGuyQNyhFT7+jE5J6D/+d/Hue1fagT4F2nwKJbb2gk74Die3b5+N1tXY/o0CG+Uin70i3Ik/uUddjsRWLvLMLU0iz74JI876qfIrXa2zM9vx6HdCbRw85BIHZ10m+99mpjhOfyfBYi/QPKjp74+D1huRNGjnitE+5lmHyMRjPe/zp4knfs9rbnnEx2OYnk3O1EMega2RYfUe61Sfl7YLvcsWWR8ZchiVZGT6sN5bxpYx27h7aOdq55cb47IOfy7n5q6SX237zb7+ht956K+PPGy7JvdGlVRuMtMHTzKSlWxdjc5gWM6yvksXeaTTrUu7vY0h+y/m3bd67EUsrtpqPR4P6yewSqKbZopb1knQxo/G9Tp/Pdlv5+m7KtvJUpovKQ2J/nPOQjzqJbSd/+7xQ+pkca3M+nzxcI4u8ZVqG6b4TzuNLIaXsyrgcjsFS27ZtmyTppz/7eUG2v9B1MNtrmiQZjetlbHhIarRfIEJXRmRdfF/WlfJdKa+YaOeSPk87RzvngJfbLnOWKU2cNzVxXqqqk1Y0GKqqiQVPM7ct3R2zNFP+L2svOdfI8L13EOXY4GTy0rm06buGZ4cCZvYdp89nu618fTdlW3ko00XnIbE/2echl7LI5z47pZ/LsTbnop7N6lM5lOGc7+RZNmVcDscgsmdduRQLiNZ5Zbjrpbo1sV9M3JA1OS5di5Y2g2WGdu4e2jnaueWAoCkPZiakmQlL0jIes1BKW3dou9eQFT2lk2netg7kBccaloNrUVnl+65aFBrtHGCLoAlLUqJb3P+IujpjA8PPneIFbcg/jjUAlY52DlgYQROWpJa2Z7W3/d5KOdHTL5b0xa6oXBxrACod7RywMIImLEnDfQMa8o1Kiqj/tZfVl8lE2kvv6PRLYUnhlDeuo0SWQJ3kdKwBQBztHFARCJqwJLlGjqvnSOJ/mX3HNaw+3ldQVpZCneRyrAFAHO0cUBk4MwAAAADAAUETAAAAADggaAIAAAAABwRNAAAAAOCAoAlAVqpraTYAoNJUrVpX6iwAZY3V85Js27at1FkAytrdlbc0vvqq1n28vtRZAbAArmnI1O3aZl2/7yvyhP+fUmcFKFsETbN++rOflzoLQNn70lMbta6xXqffel03o7dKnR0AaXBNQzY+/2//ixrqHtTrv/5AE+Fzpc4OUJYYZ5MFT1NjSdJdXV9HukVA/S7wee8qrftUvSRp49amoqWbL9RvZae73Oq3VKjfyku3zr9JDZ/9C0nSxq/+H0VLNxn1W9npVgqCJgAZSQ6U1n2qXqu9q0qYGwBAPjRv25P4d93GR1Xn31TC3ADli6AJwIKSe5niFtPbBAAoveReprjkIArAPQRNABZkFyDR2wQAS5tdgNTw2b+gtwmwQdAEwJFdL1McvU0AsDTZ9TLF0dsEpCJoAuDIKTCitwkAlianwIjeJiCVEQqFrFJnYqlwu92anJwsdTZQINRvqrqmGn1uh8/xMzeHb+lPvxgtUo5yR/1WNuq3slG/+bXK+2fa+M0ex89MXDijS6/+x6Lkh/qtbJVSv9U3xydy/vLq+jot5vtLLV23272s9ne5pUv9ptr41w8svJ2WVVK9mfF7m6hf0i0E6rey06V+88vX2rngZ+o2PipzzWeK8t4m6rey062U+mV4HgBbTnOZ5mNuEwAsDU5zmeZjbhNwD0ETAFvZBELMbQKApSGbQIi5TcA9BE0AUmTTyxRHbxMAlLdsepni6G0CYgiaAKTIJQCitwkAylsuARC9TUAMQROAOXLpZYqjtwkAylMuvUxx9DYBBE0A5llM4ENvEwCUp8UEPvQ2AQRNAJIsppcpjt4mACgvi+lliqO3CctddakzAKB8uO+v1eh719P+fqW7Wus21uvahXHdmZxO+7nq2ipNT80UIosAgCytavycrp57Je3vV9Q9oIbP/IUmLpzRrRvpX1ZevapB07fGCpFFoOwRNAFIGP39NY3+/lra3ze01GndxnpdeueqxoaL/6I6AED2rg6+rKuDL6f9/eoNm9Xwmb/Qx33/qNE//KqIOQOWDobnAcjYxJUpDf38I01cmSp1VgAAAIqGniYAGZu+PUMPEwAAWHboaQIAAAAABwRNADJW11irwDc+pbrG2lJnBQAAoGgImgBkrLqmSg0tdaquqSp1VgAAAIqGoAkAAAAAHBA0AQAAAIADgiYAGbNMS5LkqqbpAIBK4apeKUmyzPQvLQeWO+58AGRs8pPbkiXV3V9T6qwAAPLE3fR5ybJ055Pzpc4KULYImgBkbHpqRlM37mh1E6vnAUClcHsf1u3rw5q5fbPUWQHKFkETgKyMj95SvWdVqbMBAMiTOu8XNRF9t9TZAMoaQROArNy8PKXaNStVXcuy4wCw1FXXrlHN2hZNRt8rdVaAslZd6gwAWFouv39d1y+Ma+aOWeqsAAAWyf+XeyTD0M2RIRmlzgxQxuhpApCVOxPTGr86Jcu0ZHCFBYAla/2//s/yPPLvFO39R41f6it1doCyRtAEICeGIT30xHp95l95xeNJAFg6DFeV1v/r/yzv5n+vaO8/6tJ//79KnSWg7DE8D0BOLEu6feOumr98v9ZtqNeFs1d09cMxySp1zgAAdlau8aox9DdqDPwbrVjdRMAEZIGgCUDO/uWfo7oRuaWNWxv1cEeLJrc06tI7V3V9eFx3xnlJIgCU2oq6+7S6pVX3B3eq4dN/LkkaO/9rXTn9d7r+x1+WOHfA0kHQBGBRrn44pqt/HNMDn2vQxi2N+sJjzZIkc9rU+bcuKzz4sSSprrFWK1ZVaVVNrVy37Ld165PbujMZC7ZWrVuplXUrHNPO5vOr1q7QyvFqx8+bd03dHE2TOQDLXp1/k1zVhX9PnXtVrXRrKuvvuVzVqn3gU6q9/9Na1fh5rWr8rKpr10iS7t68rMhvfqwrAy/rzo1ovrMMVDyCJgCLZ0lXPxjT1Q/H1OB3y72uRrVrazR+9V4A4g/cL++X1jpu5sP/EVb03DVJUnPrA/J9aV1ePz9l3Frw8x//6aY+eHNE07dnHLcFYPlwe76gjdu/q/qWUKmzkpHpqRu6deVP+uTdU5r6+LwmL3+o8eHfyjJp14BcGaFQiBkIGXK73ZqcnCx1NlAg1G9hVa+qUm3DCsdFI6au39X0rdhFvaZhhVa4nd8Flc3na2pqNDY67vh59wM18j2yVncnZ/TR/7iiySu3M9k1lAHO38pWqvqtqqnXA4/+B63b9G80feuGrp45ojvXh4uej0xZlqm71y9oevJaqbOSFc7fylYp9Vt9c3wi5y+vrq/TYr6/1NJ1u93Lan+XW7rUb4GNS7qSebo3x7Pb/EKf9zQ16tqVG86f/1C6fP6aHnp8vfx/vk6//W9/yi4TNpZN/ZY4Xc7fyk63FPV7/6Yd2vC//ydVr1qjy/0/1cg//9+anrpZlLSp3+JYbuVM/S4Ow/MAIMnN6C399r/9SdW1zr1cACrXA5ue1Ke//qJuRYb0h//37zQ5+odSZwlAiRE0AcA807dnEnOaDJchV5WhmbtmiXMFoBiqa1er5a/+T40PD2j4+POazLbbG0BF4uW2AJCGq8pQ67//rD71555SZwVAkfj/8nlVr1qrC298P/ZCOgAQQRMApGXOWLp+YUK+wDrVNRZ+mWEApeX2fEFNrf9Wl/v/P4bkAZiDoAkAHFw4c1l3p2b04Fd9jiv/AVjiDEMbt39X07euK/yrQ6XODYAyQ9AEAA6mb8/oo19f1hq/Ww0+d6mzA6BAVrd8WfUtIQ3/snir5AFYOgiaAGAB1y/GJoKvur+mxDkBUCi1D3xaknTj/K9LnBMA5YigCQAWcHv8rsxpU6vWrix1VgAUSO26DTLvTunOzdFSZwVAGSJoAoCFWNKtsTta1UBPE1CpatZt1O3rw6yYB8AWQRMAZGDq+l3Vrl1R6mwAKJDades1de1SqbMBoEzxclsAyMCVD8e0so4mE6hIhqGatS0a+5e3Sp0TAGWKOwAAyMCVP4yVOgsACmTlao9cK2o1de1iqbMCoEwxPA8AACxrNQ0+SdKda+ES5wRAuSJoAoAM1K5eoY1bm1S7mnlNQMUxYgNvTHO6xBkBUK4ImgAgAzUNK7Xh0T3O+OIAABe8SURBVEbVNLDsOAAAyw1BEwAAAAA4IGgCAAAAAAcETQAAAADggKAJAAAAABwQNAEAAACAA4ImAAAAAHBA0AQAAAAADgiaACADt8fu6OKZK7o9dqfUWQEAAEVWXeoMAMBSMHXzri68fbnU2QAAACVATxMAAAAAOCBoAoAM1K5eoY1bm1S7ekWpswIAAIqMoAkAMlDTsFIbHm1UTcPKUmcFAAAUGUETAAAAADioXl1ft6gNLPb7pEu6pEu6SyFd96raxN9mffHSXQzSJV3SzUzy+a156VTi/pIu6ZJu9qpvjk8sKiOL+f5SS9ftdi+r/V1u6VK/lZ3uYuvXdSv29+Stqay2s9zKeanWb66WWzlXbP3empKUen4vt3Ku2PpNY7mVM/W7OAzPAwAAAAAHBE0AAAAA4ICgCQAAAAAcEDQBAAAAgAOCJgDIwO2xO7p45opuj90pdVYA5NmdsRGFf/UPujM2UuqsAChT1aXOALDUffNvv1HqLKCY1pc6AwAK47Lk/d9KnQkU2U9/9vNSZwFLBEETkAdvvfVWqbMAAAAytG3btlJnAUsMw/MAAAAAwAFBEwAAAAA4IGgCAAAAAAcETQAAAADggKAJAAAAABwQNAEAAACAA4ImAAAAAHBA0AQAAAAADni5LVBKdQ0yGh6QalbF/n/7lqyxq9LEWGnzBQAAgASCJqDYXFUyNj4sY8NDkntNyq8NSZq8Ievi+7IuvCeZM0XPIgAAAO4haAKKaW2jjOBXZbhXO3/OvUbGQ1ukDQ/LGvwn6fqV4uQPZc1s3qKnvt4mryI6efhlhV2ZjbDO9XsAACCGoAkoEsP7KRnBr0iuqsy/414tY+vjsgZ/KSv6UQFzlzvTbNHmnTvU6nP4UOSEel4dLlqeKpdfgUBQHkn9ksIF/95cjnUd6VN/3xn1jRCQ5UOirEMeNXm88hqGrGhEo5IuD/x4WZ5P/s179ESrpEifel49m/ZzbU/uUatPivaf0Ile+3Iym7do99fbJB4kFETVAy1yN7oz/PSkbn90UXduUQcobwRNQDGsbcw6YEpwVckIfkXW1ETZ9jj5Q0EFvEba31vqk7T8bvKS+ZtbFB5Z+mWQtq6DIQXad+np6Cn9sHt53oTmq47N5p3a/912eY255Wx4ffJK8oQekf/4xWVXxsOSAsGQrIDUdvyM+mz23zS3qPWxoAKGoU2eiPreti+nlrbHFQj6ZEUjOlmEvC877vtUc39mQZNl1Wr6o4sFzhCweARNQKG5qmQEv5pbwDRvG9avXnac41T/YJXqv2Coym1o5pal8Q9MjX9g5p5uloaOvaiTdt0Yly5Ky+wGL87/ZLf2tvtkDR7Vt48s/aApbk5d+/1qa31cgYBXXm+HvtOtZRU45bOOTXOLds8GTFb0lH5y9OVE751ptqhl6yOx3pblKBxR1ArKI4/866W+EZvPbG1TIB5senzyKbVn1TRb1BbySpJGB95ZNsdpMd396ENdm/OMz62VDz+oOreh2+8PanJi7udn6GXCEkDQBBSYsfFhxzlMM+Njmr7xicxbE3K5V6v6viZVxVfTS96Oe7W08WFZ539nu53qBqnhyy7dHrU0cX5GNQ+41BCs0vSYNDVarMDposJ2w7O4KalASXU9Mqxw71m9Eu8h8Xboia0vq6e3tDlcilp2Pq7AbMA0P/B0uYYV7h2OletyPKcuvaOh0XZt9/oUaNugEza9ei0+T+LfhhFS61apL+U49MvrkSwroqG+i+LtK/nnct3SzK17/zdNaWXifxMESViSOGqBQlv/kO2PrZm7mvj9WV3/X69r/NwZTf7xnMaHfq2xfz6hOyP/ktW2JKm2KXY6f/Kbad1819Qnv5mWJK24b3HZLxazuUV+M7vgzjRb5G9uKVCOMk0/fwGp2Zzb/uQzH/4c6iHh0jsaGo39s8m3Iec85FoOUm5lsah9zjOfL9YDotHwonpAFlOGhZDNuZquPlyuYfUNRCXNDlGc95l4D5JlRTQ0GJEkbWp9NDWBRG/UqMKXstuPRFpFPlfL+bg2m1vU9uSWvKVlmlu0Y/eWvLatQD7Q0wQUUv1aGXWpy4pL0sS7fboTvSj350Na6f+UqmpWaWbihm5f+qOq1qyz/Y5Rt0ZW/Vpp/Hrq72bPZvPu3L+VfqpRSZjNO7V7V0hNGtXp7kOK7HxeXY8FE/M3LCuicy+9oJ5e+xtG02zR5j3PqjM4dzUCKzqgnxw9pL4RV0oa2nMg8fmPLkRUWyNp4HUdTDOZvG13t9o90uVTsXyk5Hnr8+rqDM6ZcxIdPKpjh88kbnT9T+5RV8gjeWI3wUZwl/a98LikuRP5zeYt2r3rcQW8c/cnGj2l090v287biPNv3rNgPjIRy8Mzc+YqWdEBvXkq/UR6Oy7XsMKjkrzJ205fF0PHnkvUc2yFv8e13aZe3zx6SCfm9WDmUie57LNT/t8f+K3Wer1p67jf96zaPcrqWItEolLQJ3n88ptm1vWYVRlu3qP9HR5p9HUdPJKav8QxPO/3GddpBudqct4zqY/hvgFFH/PKYzf0bv0jCngkjQ7oZL9PgTTlmOiNGupLnF+Z7FM252qux2c5HNfJdegk+Xizoqf0w+MLfiVj3sAz2hvcpejgKZ1+7WUWmEFZ4CgECshYc7/tz6fHr+t2+Lzcnw9p1acfTgzHq6pbI/dDrapabR80OW0z2cpGQ6u/GDu9a2b/Pf/PysbSRVNNHq88Hsm/84D2toekoUENDQ4oalkyDJ82dR7QDpunjGbzTu0//D11Bn2yrIiigwMaGhzQUNSSPB7506TROTvhO2pZGjsfldfrk+exNrXZPBk1m3eqPeCVxzOq/rfT5LkrJI0OzqYde6LtDe7Sd/bYPNV2YJotemrXMwp4fbKis/syWw5eb4ee7v6btE9v85WP2KIDsZusaCIPERnekLZ37ddzmzN/2muaLfJ7Un+eri7m52H7bL0myiFqxfKxr8c2H7nWSbb7vFD+0+ntH836WBvumz0PvB36TvffqC3Dp+25lqHX65NNlc3ypP19RnWa4bmaVX1cCuuy7g29m8Pvk9cwNDrwjobf7tOQZUmekNrWJ6WVNJ/pXP+ZjPcpl3M11+Oz3I9rs3mLduzu1qF9u1IC9HzzBjvUua9H+3bvzPhcAAqFniagkGzmJknS9PWrkqQVnhyGz6TZZnKPUk2joTV/Flt4oqbJpZqm1I/f+P2M7lxZ+AKZjSbfo2rbnPrzSPhMylwnwwjpa48N6KWDL8yZ6P5U9/e03evT177+qE4kP902W/TUrtkJ8oNH9cOUJ7QtarmkOY+CYmlE9MbB5xJP2U1zi3Z/JaRAmvkOLW2h2TT6Unp57LYXS3t2Lk9wl57bfEY9vS6FXz2sg6/OXSTA7ml+eOC0Xuqb+yTVNLdo9+FnFEgzNyibfDhJXnRg6NiL6pn3JHr/d9u1qfN5tb19yLHHK2HrDm33GrZzRezz7JqTh+jpF3Vw3lLa/s17tLcrFAukwy+k9JZkWxa57nO6dCSHOjb7NNQZzOpYc40c17GXfNrbFZLh7VDnvg61L9B7uNgyzFX6Os38XM22Plyus+ofekaB4OzQu9575b25NShJuhy5KJdrePZzPnn9khKLRtybzxS1WbQm3T5JxT1XS3tcpznObHoyYyMDfqyTaVYpzIXLdVZH9oTVsnVHopfNG+xQZ7BD7fQ8oYQ46oASymdfz813TY389O7CHywgb/sudXal/nnCb//5cy/NHaLjcg3rlVODsf/MDquJa9n5bOyGPHoq5SZMklwjw7YX7dFf/HjOTYfLdVYnfxGbFzF/vkPynIg3X5v7FPpenlNvOl0jx3UszTaduFzD6nv1eMoNQOzGMPbvdHOD8pGPxKIDg0fn3GTFt3V6KM0TfUnShticidk/bU/u0f7O2E2rhl63vTGfXxdz8hA9pWPHU5cdDvce1kuDsR7IQNviy2Ix+2yXfye5Hmvh3sN6/uDRWK+MZnsWDh/Qvt3280byUYa5sq/TzM/VXOqjtz+1jTDNLWoNSJY1kOi1i0Rsyj4+n2l0QH1p5jPZ7VMpztVyOa7N5i167oW5PUtWdEBvHHtR336+Wz299m3vYsQWPTmsg89/Sz84dirpXJjteXphDz1PKDp6moBCun3L9scr1j4Q+3XkglZ9+uG8bLMcRKMDujxq83ObJ7qJm5v519r4ssLz5izEJ8hns0RwutWxEvMiAm1qM5Pe95I0J6LvUsrX0udZ0nBkVFJuc1HizOYWtcgvn1+2w9zymY/UYUqpn4vPr4ndDM69EQt07VfAZrvRND1qdnUxJw+n0i9R3ts/qM5gyPb9RNmUxbA25LzPua60luux5ho5q54DZ+XfvFNPdLQr4PXFgqfutjnzgfJRhrlKVyaZnqs5H4Nvx3rwNnlCalv/ssIjSgRDyb12dmUfn8+ULm+Z1nOhz9VyOK7v9fwnz6cqfk9PuPe4enqPz+np8npD6tzXo6dtejKBQqn2NDUuagNud6ZvfM6vUqW72PLK1XIr50qpX+vGx7a9SVX1a1Xj26hbHw5JlqmVzZ+Ra2WNpm9c19SffqfqNeu06sFNabdZri6fOpRmSNjiLmjJc2UuR7K5cZ1dHSvlhvS4Tg+1qzM4d9hUfLhUNJd3t6QJ9haSbnJ5znLIR6CrR3/flV0ylhXRaFKAfHlgQP19TjdT9nVRUPPKIjnsy36fc8v/Yo+1+A1jYtEPb0hPf/d5aU+GQyYLKrVMcj1Xs6uPsKKjigWSs0PvEsFQJOmIn12i/Gue2Hudei/dC9LS5y19PZfDuWr3vcId17GhjHHR00d17HjpAhTXyFm98pokJQ0R9KQZxpCDYt/fcX9VHPnc3+rRy1cW/lQaq+vrdHN8YuEP5lmp0vU0NWox5ZWr5VbOFVW/49dlTdywXUHP/cXY5J/JD4c0+eFQ4udG9QrV+Dfabs6auGG7cl7lc56HkIv4k/f4vAjT3KInHvPKsgZ0+nhxXsZrbt6jQ10hSbFeuqFTfQqHw4rootR2QHvbCzvJOi5dD2Hi95HUn9mvcJhbmeWzXjOVyz7nKh/HWrj3sF4Mz85nsZkjVYoytJfbuZpNfcSXHt/e7tOm1kdlvh2+t9R4Uq9JfDVHY/a9Tq8o1rvn1IuTTrmcqwvJ53Htcp3VyZfa1BSfV9S+S3vbi7+iXeylzjvU1RGU16bXK19BXDHv77i/Ko587y/D84BCu/S+9NCWlB+7qleoPvDnqv3MFzV9/aqsu3dU5V6tFQ94ZVStSL+tZSn1yfKixYf4zA7d6bUZ3pOV2ZW7rGhEmdyXmGaLnuqIzQFKXeLXJX9b9lnIJR+SUw9hcRhGHus1mUNZFHWf83Ss3eu1Sl0EoWBlmLXcztVs6yN56N3m9f60Qx2ThyW2RHxpF3lxUk7n6kLfy/dxHe49rIO9Shomem9RhqdzeC1BNszmFm3++rNqD3hTl1x/Lb64UKl7W7GccLQBBWZdeE/W5M20v6+uX6valge16tNf1ErP+rQBkzV5U9aF9wqVzbKWeP+PsltowXmbsUn68cnRm1uDjgtAxMSG+diJr9yV+UtJnZ/IJ15yWqB8FKJMs5X8slKnPMT3yX4eSuZlUap9zu1YcxYfhpaXMpy36Eqc8zFoL5syXlR9JF6k7JG/7d5S4yn7llh63Kcn4mUQybZLrhTnankd1+He4+o58C39IGmBkvhS5j861K19T6Y+GMyVabZoxwv/oEP79qszOBsgWhENnT6qH3zrOR08cjZlNVagGDjqgEIzZ2QN/pNkzhRtG/GV9Jz+3Hx3aa081Pva6dj7a4K7tO/J1KXazeaWrN9IH38nzqbW59UakOOKWlLsaf7XdqW+j8W/eY86g4bzjXCaG9NED0HyvsxuryD5SBIvUwUet32Hj2m2qK05h2Xxs5B4L1Fwl57bbFOviX2aHco2T7ZlUdB9TlPHUubHWtvubttykOLvdYr9OzYnZ+62sy7D2YDC8Hboia3238lFNudqrvWRGHpn+LS9PTZsLrlM7on1fBlGSIFg8nL42SvmuVpWx3WS8MhZ9Rz4lp4/eFRvDEYSefWE0h/72bs3l8qyIho69qJ+uOcF9bx6lgUfUFIMzwOK4foVWYO/lBH8iuSqyu675oyswV9K14s/Hjhb6SYhW1ZEb35/ce+HiS21G9Ledp+87fv1o9CAzg1E1C+p1RfSpoD05vdfiK2klanZieLbgyEFpAUn5VtWRKNq13cOh3RuaED9/VJrRygxMdxu6d74MCKvt0Nde6ShiKTIOzrRm/S+mc4Des43oP6I5G8N6WsBaWgwokCaF0fmkg87seFeIXUGfQp09Whfx+xcDfnlbw0pEPDKM/Rf1XekMMNv4nmI12uga79+1DGgcwN96pdfraHYPsXeBWO/8EG2ZVGIfU5fx0nbyPhY8yrQtV9/3zV3fkqT5958jtiy0nP3KZcyTH7nUaCrR/taT2moX1JrSNuDPkWjEXlzWPQgm3N1MfURH3onpZ+nlDz/SVLa1Qod98dV/HO1HI5rxzIZOasTR87qldkhdE87rCCYk9FBvZE89I9gCWWAoAkoEiv6kaypCRnBr8pwr87sO5M3Yz1MSyBgKobwq936QWSnujra5fWGFGgPJZa9tqKnsl7dLP5eqO1doQwn5Y/qdPeP5e/+nrYHOxSYHSUTf8Hj/PejSPNuIIMd8gal6Ol3dEJS7+G/k3/Ps9oe9CnQ7lMgsa0XdNJ3ILF9+3y8rtbuZxTIMB/p9B3pVuTJPep6LLYym3d2srsUexdL7Gl2YW9Y4vUamzMxv14H9ObRQw5BYPZ1ku99dqrjxGcyPNYi/YOKzgZIXm9I3qSRX077lGsZJh+D8bzHn+6f9D2rve0ZF4NtfjI5V3Ouj7fjLw82pKH085QSQa1hZDF8dq7FnavZHZ+5fq8U57JrZFh9R7rVJ+UtsHG5YsvtA+XG+OyDn7Ny/TKrfxTHcivnpVa/3/zbb+itt97K/AuuKhkbH5ax4SHJnbqqniRp8oasi+/H5jAtZlhfBYu9J2XWpdzfO+N/slt7232yBo/q2zbvF4qlFVu1zKNB/WR2qWfTbFHLekm6mNH4eqfPZ7utfH03ZVt5KtNF5SGxP855yEedxLaTv31eKP1MjrU5n08eTpVF3jItw3TfCY/kt2cxmzIuh2PQSabHWK7HZzke15Vq27ZtkqSf/uznRU+b+6viYPU8YKkzZ2Sd/52s87+T6hpkNDwg1ayK/e72LVljV6WJsdLmcQlwjQzfe69JjjcEmbxcM236ruHZoYCZfcfp89luK1/fTdlWHsp00XlI7E/2ecilLPK5z07p53KszQleslllL4cynPOdPMumjMvhGHRSinO11Mc1gBiCJqCUJsZkESCVztYd2u41ZEVP6WSW720BssKxBgBLGkETgGUlMWzF/4i6OmMTBc6dyt8LEoE4jjUAqBwETQCWlZa2Z7W3/d5KV9HTL5b0xa6oXBxrAFA5CJoALCvDfQMa8o1Kiqj/tZfVl8nE6kvv6PRLYUlhRQqdQWRmCdRJTscaKkOux+cSOK6B5YqgCcCy4ho5rp4jif9l9h3XsPp4X0hZWQp1ksuxhsqQ6/G5FI5rYLnijAQAAAAABwRNAAAAAOCAoAkAAAAAHBA0AQAAAIADgiYAAAAAcMDqeUAebNu2rdRZAAAAQIEQNAGL9NOf/bzUWQAAAEABMTwPKLHV9XWkWwSepsaSpLvcypn6Jd1CoH4rO93lVr9YmgiaAAAAAMABQRMAAAAAOCBoAgAAAAAHBE0AAAAA4ICgCQAAAAAcEDQBAAAAgAOCJgAAAABwQNAEAAAAAA6MUChklToTS4Xb7dbk5GSps4ECoX4rG/Vb2ajfykb9Vjbqt7JVSv1W3xyfyPnLq+vrtJjvL7V03W73strf5ZYu9VvZ6VK/lZ0u9VvZ6VK/lZ0u9VvZ6VZK/TI8DwAAAAAcEDQBAAAAgAOCJgAAAABwQNAEAAAAAA4ImgAAAADAAUETAAAAADggaAIAAAAABwRNAAAAAOCAoAkAAAAAHBA0AQAAAIADgiYAAAAAcEDQBAAAAAAOCJoAAAAAwAFBEwAAAAA4IGgCAAAAAAf/P+guv2bmLUcrAAAAAElFTkSuQmCC;sketch=1;curveFitting=1;jiggle=2;fillColor=#FAE5C7;strokeColor=#0F8B8D;fontColor=#143642;" vertex="1" parent="1">
          <mxGeometry x="900" y="530" width="845" height="224" as="geometry" />
        </mxCell>
        <mxCell id="wvO3bNdWeyCbrdkIyxWq-19" value="" style="shape=image;verticalLabelPosition=bottom;labelBackgroundColor=none;verticalAlign=top;aspect=fixed;imageAspect=0;image=data:image/png,iVBORw0KGgoAAAANSUhEUgAAAyAAAAGuCAYAAABoVWLpAAAgAElEQVR4nOzdfXBU953v+U83AkGDjLEt9emWcDIxHieZ0N2RLPBMyJ2nNUh2sKlkMjV361YhGbuI1rvZv7YqhECp8JCk9m5t1Waul6EwA9m6W/OHEy8xtoXte+/MzTgJRkiRROI4iRPbIPWDcIyxhHjus38ctdStPt3qh9Onpdb7VeUy6off73fOr8/D9/yePPdtuN9UmfxNjUqMXyw3maI1rFmtickr5Fth1G9t50v91na+1G9t50v91na+1G9t57uU69freu4AAAAAliwCEAAAAACuIQABAAAA4BpPJBIpewyIz+fT1NSUE+XBAkT91jbqt7ZRv7WN+q1t1G9tW8r1W+fEIBSfz1f1wSzkWznUb23nS/3Wdr7Ub23nS/3Wdr7Ub23nu5Trly5YAAAAAFxDAAIAAADANQQgAAAAAFxDAAIAAADANQQgAAAAAFxDAAIAAADANQQgAAAAAFxDAAIAAADANXXVLsBC9tW/+Uq1iwBgiXj+Bz+sdhEAAHAFAcg83njjjWoXAUAN27JlS7WLAACAq+iCBQAAAMA1BCAAAAAAXEMAAgAAAMA1BCAAAAAAXEMAAgAAAMA1BCAAAAAAXEMAAgAAAMA1BCAAAAAAXMNChJWyzpDHt0ZafYf195WPZU5NSpfi1S0XAAAAUEUEIA7zNK6X595PS43N2e9J0sUxmefflnnxgutlAwAAAKqNAMRBy7Z1yfTM86HGZnkam+U1pduvHnelXAAAAMBCQQDioHmDjxI/Wy3JZIvad2xXa8DmzdiABgdOa2CMYUROmNnXEb+a/IYMj0dmPKaEpPGh53TkxdFqF3FRWnZPi3yNvgI/PaXr753Xjav8pgEAqCQCkDLd95nPqdEf1Ol/fa2k7z/0F1t1MRHV7371C4dL5oxgJKyQYRMthSMKdezSznifvtv7gqLepXfTFmxuUXSs/MAg2bxD+77ZIcOTuZ89RkCGJH/kQQVPnF+S+7hsvrtUf3dhAYhprtSt985XuEAAAIAApEwPfC6iDy+Ol53GfAHImg3LtOYBj5b5PLp91dTkb5Ka/E2yrHyLMXLsGb0cnf4jGFRb6yMKhQwZRqe+0aslFYQEH+vVno6AzOGj+vrh8gKQZHKTdk8HH2a8T98/+sJMq1Iy2aKWzQ/q0VYnSr003Xzvt7p0Mf0Vn1Z8ZoNW+zy6/vawpq5kfv42rR8AAFQcAUgZmgIt8nhy96W6efmSrr33lnTzpurualTd3UEtX7su63Mej0dNgRaNx+xvZuvWSms/79X1hKkr795W/T1erQ0v063L0rWEW0HIeUVT3a3GRhXtP6MfpZ7cG516dPMLOtLvUlFqSMuORxSaDj7mBnFe76ii/aPWfl0iwZ3TvN6run119u9kUlox89cVAg4AAKqAq28ZPrHhj3O+NzH4E02efl234mO69YdxXfvtLzV5+nWZN64XndbKJquaPvzZLU28ldSHP7slSVp+VxmFd8KFsxpJWP9sCtxbcjLJ5hYFm1tK+26yRcHm4oKwYHOLgkn3Wo/yCQQM6x+JaFktSOXsw0qw6qWw8jhVH8nmFrU9tsmxuk0mN2n77k1F/74AAEB+tICUyGher6ZA9lS7kjRx9r/r1uQlrWn/cy2/yz/z+s3Ll+RZUW/7naZAs4zm9YqPZU/P65mupeTNzP+rygPZvd5RRROSjNnXks07tHtXRE1K6FTvs1LPAXWFrVHsI8ee0pH+6e5FzZv0+Jce0dZw5gh3Mz6k148+q5NzBrfPTTe2+Wl1d4Uzxk3Eh4/q2KHTtjfyyeZN2r3riYzxLGZ8SK/3ndTJ/tG0z+Uu/9tDP9edhiH5rQ32hHdp7/5HJFkDxQcDT6rDL2noFR188YztPmvb3asOvzTet19H+r2KxeJSOCD5gwomk0UFIUXvw/Ye7ev0S4lXdPBwdvmCj/WoO5L9fsF1mmxRe8+TM++ll+f7R5/NmLCg0Poodj+Y8T5990RRX8/LCD2hPeFdig/36dRLLzDpAgAADiAAKVHDndldqSTp5qUPdOsPCTVs/mvV3Xl3xnt23a/mpmkXgKRb0ehRfaN101bf6JE+m31DdP2iqRsXzbzpOCGZbFHQn/16k9+QXwkFdxyYvimMKeGfjVLSB12bZkznpptRmvxhGUZEW/cekZF2Y2uXbldHQPH4kNUC4/crZARkhHfpGz3S1+fcXKfnF48PaTwhSX6FwhFt7Y7IUGZe85U/l/7BhLq6IzK3tantxGkNeLODqI6QIb+GdepNSV5pdGBI8W2zY2nSx4DkU+o+NIyAzESuVP053y+2ThMjCY1Lkj+sjX6/gpIGbD5bSH3k3gf2AVglGOFOdYU71UEgAgBA2er8TY2OJORUOsXy+QqdYtNZd951t+3r1979lSRlBR/lpJne0lHf6NEdf7LM+neTV/VN2R//+Je3XQlAtHm7thrWDefIwHml9+jzeCJ6eFtMrx18Ku1JvDdj0HX81DM6OGd62WB7j/Z0R7Sx64C2R/dnPcW3Tzftpja8S0+1n057Kj+b38ixZ3RkTmvHvm92aGPX02p789mMgCFXPlLmIPSMloTkgEa6wgp5ImrdLA3MGRPT0haxbtCHB2by8o6d0LHjAe3pjshjdKprb6c68rTkzN2mUvZhqXLXaYse3zUdfAwf1XfnlD3Z3KKWC5K8pddHxvbbBB6mGdO548/p5Tedmy3M6z2jwz1RtWzePtPa5kYgUolz6VI7Py+1fKnf2s6X+q3tfJdq/dYlxi/O89H5+Zsa5UQ6xWpYs1oTk1fm/+AiN/FWUhNvVbsf+r0KpvU4C7RtV8e2sPXHyCu2N7mJV5/Lej190PWxE+ezBldH+w/peOs/qiscUKjtXp20meb23PHsm2rv2AkdezWiPR0BbWx9SOo/k5nf8NGMm93Ud06NdKgrbB8w2JU/H6/3jF5+9RGF5pRBslqL2iKGTDOm1186rfRgLdp/SE9HZ7skGeFd+sahR5QYecU2EHFiH5bKvk6ftALReF9W8CFJ3rHRmdfKqQ+r29YjChlpgcfcblsOD9a3JgI4pIP9UrB9hx7t7Jiuo+lAJD6kU3O6l5XL6XPpUjs/L7V8qd/azpf6re18l3L90gWrRB99+Ac1BbIH2a78o09r8mJMNz9MZIz/KDTNhSrUvU8hm9fjc1sBptm1iqRuwiXpXF/uaXv7B4fVFY7Yrn9hmkMafFO20yeMxhKSZsdTjOre2fwGT9t+KTUGwxpEP3tDbFf+QqS6VPlDbWpLpnXDWv+gQn5JiSENXMhO1jt2RkcOnEm7yZ3uUtbbljF+wol9WKpc+yQ1kD4xdDZvPhllL6I+kskWPd77LW010sf7uN8VKtp/Qkf6T2S0wBhGRF17j2inTcsPAACwRwBSoomPLtm+vnxdo+rubtTkz38q32fbVJ82O9SN+AUtW3u3lq2yb/bKleZCYJoxJdLGBowPDWlwIN8NYEJRmxvtiorGFDfD8vsDCig9nJBC3Uf0D93FJFZa+XM9xU91v4rPc5OeuskNtvdY3X6MiHZ+82mpJ3eXJPdk75P0cUDjscIDtuLqIygjLZaPnzqqYyeqd7PvHTujH70kSWndwPzBqpQFAIDFiACkRPGxCxqPjdnOhNXw4F9q4uy/aGrktKZGTs+8bno9uuuvv2Kb3nhsbN4B6NV07vh+m4HBpd0AmmZM8ej8n3PS7GDnHO/HnMsr1fqQ6oaVTG7So9sMmeaQTtl0mbIT7T+kZ6KpwdrZXZKqsQ/tWcFBseUppj683jN6+XibmlLjMDp2aU+H+zNTWQtDbld3Z1iGTWsMrR8AABSGAKQM77/zm5xT8TY8+Je6eemirr37tkyZqr87oBVGc86bz/ff+U0li7qgeDwBGUFJYw4nHAxMryge09x4Yrzv2YJmVnLEm9Zg9I3T3bD6N7dNj3sYKKoVY7Y1RVljSiq2D4sWVTwhq8tYEeUptj7yjcPYWeL0vYVKNreo/UtPqiNkZE/7/NLp6QU6CT4AACgUAUgZxmOjMs3cs00tX9eo5evmn93ANM2cq6DXEq93VANDcW21GaSdrr3VGtxuP6bAr+B6acDmRjf1vdSifl7NrlOSLz+nzQ5Gt1ou1Bq2HXxejEQsOp22A/swx5ojM4siFiF9LZj59nExn81lpota8yY9Oj1o32NY0/c+3BVT4tXca7AUy27siWnGdO7VV/TyTBcwAg8AAIrF1bNMv/7FkKtpTLyV1NjzN/P+V/0Zs3IbHRhS3DTlCe/SU+3Zg/iT7T3qCntmuyvN4fEE9PCuL2etdh2c+V7qRt/S/9IpxU1TCj2ip9qz90sy2aK2UlcQn76Rt5Pazo2tT6s1pNnB53O07e613Q9Sat0Q69/W+IrMtIveh28OaMQ05TE69ehm+++UIrWPPeFd2vuYTXnSVjp3qj6iY2d05MDX9PTBo3pt2Grv8ngC8kdy10nxZseemGZMI8ee0Xd79uvIi2fobgUAQBloASnT7371C/3uV78o+fun//U1B0uz8KVPlxvq3qfvdQ7p3NCABhVUaySikBGYXtPBftC1acaUUIe+cSiicyNDGhyUWjsjM1Ozzp0m1urGFLGmpO0+or2dQxrpG1BUQQVbIwqFDPlH/kkDhwtvgUpfPLC7RxqJSYqdzewCdOGsRhId2hqOKCTlGXxuKNS9T//QnTkuwlpQ0AoIrClrM7eplH3o9Z7R4MgTCoWtQeB7W/s0MiipNaKt4YDi8ZgMo/hF/dLLY3Ts0/ciQzo3FNOgpNZARBtD0uvf3q/omPP14R07o5OHz+hH092kdhY38dz8EsN6rYLT/AIAsBQRgDjIY0pmgQ+RPS6sE7hQRV/s1Xdiqb78EYU6IjNT/JrxIb1+9Nk8628kdKr3OQV7v6Wt4U6FpntdpRaim7u2hCQNHO5V7LEedW+zZpUyuiMz75nxoaK7RmXccIc7ZYSl+KmzOpn+Ge+oftQ3rK3dkbyDz2ODw4pPBxuGEZGR1gsq3zaVug/7D/29gj1PWlPITpc99XT/5cCT2tNR8G6wLU93Z4eMrPL0Zcye5XR9SNZaIwOHe63V1h1ciPDIAXe67QEAsJR47ttwf9m3wrW6kMpX/+YreuONN4r6jqdxvTz3flpqtB+crotjMs+/LfPiwp3xyk3JZIta1k//cSH3ehWpVbL9Gtb3p6eknf3u+emBwAXk19yimQ4+efIrruz2+aevmP51m7VSsj6f3vWoiLIVug9zfSfq4EKFUnH72Mn6WKy2bNkiSXr+Bz+sSPq1en4mXwv1W9v5Ur+1ne9Srl9aQBxmXrxgBRfrDHl8a6TVd1hvXPlY5tSkdCle3QIuMF7vqKJjM3+U+N1iWi9GNTNbbJk3u/nyL2TRvbkyAoFiZssqYR9mfMdhxexjJ+sDAAAsDgQglXIpLnPhriuIStu8XVsNj8x4n17OsXI7AADAUkQAAjhkpjtR8EF1d1mDU871sUAdAABAOgIQwCEtbU9qT8fsLFLxU8+4t/ghAADAIkEAgsXhwlmdOh6VFM1a5XyhGB0Y0kggISmmwZde0ECBA+MBAACWEgIQLApe76gGFvhaDN6xEzpyeOavahYFAABgweIuCQAAAIBrCEAAAAAAuIYABAAAAIBrCEAAAAAAuIYABHDQslXrql0EAACABY1ZsOaxZcuWahcBi4TpXaHo+l0KXjgqT/JGtYsDAACwIBGA5PH8D35Y7SJgEQk81K2W+xr1k/MrFTv9z9UuDgAAwIJEF6wSNKxZvaTy9Tc1ViXfxbSfvctXydi8U5JkbN4p7/JVruTrBOq3tvMFAGChIQABHOBv+zvV+azxH3W+dfK3/V2VSwQAALAwEYAAZUpv/UgptRUEAACg1hGAAGVKb/1IoRUEAADAHgEIUAa71o8UWkEAAACyEYAAZbBr/UihFQQAACCbJxKJmOUm4vP5NDU15UR5sABRv/a8y1fpvp0/1LJVd+b8zO2rH+l33/+Kkjevuliy4lC/tY36rW3Ub22jfmvbUq7fuonJK2Un4vP55EQ6xWpYs5p8XUD92gs89Ld5gw9JWrbqTvke2K7Y6WOO5es06re286V+aztf6re286V+azvfpVy/dMECSpBv7MdcjAUBAACYRQAClCDf2I+5GAsCAAAwiwAEKFIxrR8ptIIAAABYCECAIhXT+pFCKwgAAICFAAQoQimtHym0ggAAABCAAEUppfUjhVYQAAAAAhCgYOW0fqTQCgIAAJa6umoXAFgsfP4H9NHvfpzz/eWr79HaT31Bl3//E9288kHedCZHhypRRAAAgAWPAAQo0OToUN7AoeHedq391BcU+9kxTZzvd7FkAAAAiwddsAAAAAC4hgAEAAAAgGsIQAAAAAC4hgAEAAAAgGsIQAAAAAC4hgAEAAAAgGsIQAAAAAC4hgAEAAAAgGsIQAAAAAC4hgAEAAAAgGsIQAAAAAC4hgAEAAAAgGsIQAAAAAC4hgAEAAAAgGsIQAAAAAC4hgAEAAAAgGsIQAAAAAC4hgAEAAAAgGsIQAAAAAC4pq5hzWpHEnIqHfIl38War2/Vytn/l1juxbS95Eu+5Eu+5Eu+5Eu+peRbNzF5pezEfD6fnEinWA1rVpOvC6jfAl29JkmaunqtpO9Tv+RbCdRvbedL/dZ2vtRvbee7lOuXLlgAAAAAXEMAAgAAAMA1BCAAAAAAXEMAAgAAAMA1BCAAAAAAXEMAAgAAAMA1BCAAAAAAXEMAAgAAAMA1BCAAAAAAXEMAAgAAAMA1BCAAAAAAXEMAAgAAAMA1BCAAAAAAXEMAAgAAAMA1BCAAAAAAXEMAAgAAAMA1BCAAAAAAXEMAAgAAAMA1BCAAAAAAXEMAAgAAAMA1BCAAAAAAXEMAAgAAAMA1BCAAAAAAXEMAAgAAAMA1BCAAAAAAXEMAAgAAAMA1BCAAAAAAXEMAAgAAAMA1dQ1rVjuSkFPpkC/5LtZ8fatWzv6/xHIvpu0lX/IlX/IlX/IlX/ItJd+6ickrZSfm8/nkRDrFalizmnxdQP0W6Oo1SdLU1WslfZ/6Jd9KoH5rO1/qt7bzpX5rO9+lXL90wQIAAADgGgIQAAAAAK4hAAEAAADgGgIQAAAAAK4hAAEccuPymKL/9o+6cXms2kUBAABYsOoK+dBX/+YrlS4HUCPGJeNPq10IYFF5/gc/rHYRAAAuKigAkaQ33nijkuUAACwxW7ZsqXYRAABVQBcsAAAAAK4hAAEAAADgGgIQAAAAAK4hAAEAAADgGgIQAAAAAK4hAAEAAADgGgIQAAAAAK4hAAEAAADgmoIXIizZOkMe3xpp9R3W31c+ljk1KV2KVzxrAAAAAAtLxQIQT+N6ee79tNTYnP2eJF0ck3n+bZkXL1SqCAAAAAAWmIoEIMu2dcn0zPOhxmZ5GpvlNaXbrx6vRDGwiCWbN+nxL7XJUEwvH3pBUW9hvQVL/R4AAADcUZEAZN7go8TPVksy2aL2HdvVGsjzodhJHXlx1LUy1b6gQqGw/JIGJUUr/r1Mees8NqDBgdMaGCO4ccLMvo741eQ3ZHg8MuMxJSSNDz3HcVWiZfe0yNfoK/DTU7r+3nnduMpvGgBQeY4FIPd95nNq9Ad1+l9fK+n7D/3FVl1MRPW7X/3CqSI5KhgJK2TkjpZMDUjiRqmW5KzzcEShjl3aGe/Td3uXZitLsLlF0bHyf+/J5h3a980OGZ7M/ewxAjIk+SMPKnji/JLcx2Xz3aX6uwsLQExzpW69d77CBQIAwOJYAPLA5yL68OJ42WnMF4Cs2bBMax7waJnPo9tXTU3+JqnJ3yTLyrcYI8ee0ct2j9UvnJe4SapJGXUeDKqt9RGFQoYMo1Pf6NWSCkKCj/VqT0dA5vBRff1weQFIMrlJu6eDDzPep+8ffWGmVSmZbFHL5gf1aKsTpV6abr73W126mP6KTys+s0GrfR5df3tYU1cyP3+b1g8AgEscCUCaAi3yeHK3Dty8fEnX3ntLunlTdXc1qu7uoJavXZf1OY/Ho6ZAi8Zj9jc2dWultZ/36nrC1JV3b6v+Hq/Whpfp1mXpWsKtIOS8onZdb5bIDejSlFbnY6OK9p/Rj1JP7o1OPbr5BR3pr24JF6OWHY8oNB18zA3ivN5RRftHrf3KsVUSr/eqbl+d/TuZlFbM/HWFgAMAUDWOXIE+seGPc743MfgTTZ5+XbfiY7r1h3Fd++0vNXn6dZk3rhed1somq7gf/uyWJt5K6sOf3ZIkLb+rjMK7KNncomDSvdaaZHNL7veSLQo2F1eWoIPlTza3KJinfDm/V0K5cylrey6c1UjC+mdT4N6Sy1DqfpCqX4flCgQM6x+JaFktSOXsw0qw6qWw8jhVH8nmFrU9tsm54zO5Sdt3b3LsWAMAIF3ZLSBG83o1BbKn2pWkibP/XbcmL2lN+59r+V3+mddvXr4kz4p62+80BZplNK9XfCx7el7PdGmTNzP/rwU2kD3ZvEO7d0XUpIRO9T6r2I6n1b0tPNPP3TRjOnd8v470Z950Jdt7tK/TLyVe0cHDZ7LSDT7Wo+5I9vuZ+Z2Uep5UV3h29HR8uE/HpmeECrb3qLtrTllezT3QN9m8Sbt3PZExFsKMD+n1vpM62T+a9rnMbVbPgZkyjBx7Skf6vdNpPaKQkTmyOx7v06neFzSQ5yZ0brmt7TqqY4dOF3XzWuj2zMfrHVU0IclIT3v+fZAqw+NfekRbw5n7wYwP6fWjz+rknBa2rN/T5qeL2hdO1OHbQz/XnYYh+a0N9oR3ae/+RyRZA8UHA0+qwy9p6BUdfDH7tytJbbt71eGXxvus334sFpfCAckfVDCZLLoei9qHjhxbeeo02aL2OcddqjzfP/psxoQFTv0G5+4HM96n754o6ut5GaEntCe8S/HhPp166QUmXQAAOKbsK0rDndldqSTp5qUPdOsPCTVEvpgRfEiy7X5VSJrpVjR61PBZq/j10/+e+9+KxupFJk1+Q36/FNxxQHs6ItLIsEaGhxQ3TXk8AW3sOqDtNk8XDSMgv016Fn/O91P5tfZ8SztD0sjwkEaGY1aa4U59o/fLCrb3aE93REpMlyVulSXUsU9PtWeXxRogbN0oxeNDM2l6jIi2dmd/J32bu8IBmfGY4qZppZVs0eO7nlDICMicScvaH4bRqZ29X8759Da440BGuUfiqe3apW/0PJRzb5W7PXnTSrYoaFMR+fZBehm2hgMyzdjsfoibVjn2HrEtR8bvqYh94WQd5tM/mLB+m9va1GZTj8nmHeoIGfL7Exp803ptdGD6eDCs32dbgU/bS92H5R5beev00Les98yY4tPlGYmbkt+voE3Zy/0NJps3afvuXj27d1dWEOY0I9yprr1HtHf3joLrCACAfMpuAbnzrrttX7/27q+sDO60f7+UNNNbOuobPbrjT5ZZ/27yqr4p++Mf//K2blyc/+apGE2Bh9TWnv16LHo6a2yIxxPRw9uGdPzg/ozBtY/3fktbjYAe/tJDOmnzNLZUHk9EG/19+m7PbH/6ZNpYhT3dUvzUMzqY1trRtvsf1RX2aGPrQ1J/2pPftAHCI8ee0ZE5T8r3fbNDG7ueVtubz2a0XFjbHNNrB59Kewpt/T86dErHBzKfpCaTm7T70BMK5RhLYZ9e2naFd+mp9tNZrUlzlbo9OW3erq2Gx7oBHjiv9Fg+1z5IL8PcepA0EyBu7Dqg7dH9WU/xi90XztbhdBnTBqFntCQkBzTSFVbIE1HrZmlgTj22tEWswebDAzN5ecdO6NjxgPZ0R+QxOtW1t1Md87RqlbsPS5W7Tlv0+K7pgfTDR/XdOWVPNreo5YIkrzO/QbuWH6tF9Tm9/KZzs4V5vWd0uCeqls3bZ1rbjHCnusKd6qBFBABQpkV1BZl4K6mx52/O/8EKMjp2qas7+79Hg/afP3c8s/uF1zuqH/UNW39Mdz1x0rm+OTMypY1VMON9OnYic6rN/sHpsoQyn1zPDBAePppxoyRZN46nRqybstbN2WVIvPpc1o2f1zuqgRdPZN20eL1nNDhi/TvXWIpzx7NvJL1jJ3Ts1bgkWcHTPMrZHuleq6/+9H9tj/VoX1fYemvkFdubXLt9kD7oem49SFK0/5COD0+3SrWVvy+crsN8vN4zejlHfSSTLWqLGDLNmF5/6XTGe9H+Q3r64FGrtUDTLTmHDmjvbvvxDE7sw1LZ1+mTViAa78sKPiTJOzY681o59ZFs3qSn9me2eJjxIb127Bl9/eleHekfdXwmNmsigEM6+PTX9J1jfWl1NN0isr+HFhEAQEnKbgH56MM/qCmQPeBy5R99WpMXY7r5YSKrC1YhaS5U8fiQxhM2r9tMzWuaQ1Z3k7n3BdGY4mZYfn9AAZW+WF4h+aWPVUgMnc2+SUmVJe2l1A2jJJ0bPG2zAZrpv28FDbM3U3YtAnaSzS1qUVCBoGy7MuXbppTRWELS/GMIytkeSQp171PIJt343FaAmTJn74OMMswNEtP0Dw6rKxyxXf+imH0xqnsrXodZZRgYUnybIX+oTW3J07NP8dc/qJBfUmJIAxeyk/WOndGRA2cUbN+hRzs7FDICViDS25YxfsKJfViqXPskNZDe9thKU+pvcLbFNH28j/stENH+EzrSfyKjBcYwIurae0Q7bVp+AADIp87f1FhWAhMfXbJ9ffm6RtXd3ajJn/9Uvs+2qT7t6faN+AUtW3u3lq2yXyQrV5oLwXjfszm6+9TmxTfUfUT/0F3MNxKK2txkSso5CL1kJQRyxW+PdfOZSAs6x4eGNDiQ7wYw9z6omDn7Ij2EcrIO87Ge4neoK5zZDSvV/So+z0166iZ3ZsIBI6Kd33xa6imwW1xFZe+T9HFA47HCA7bi6iMoIy1Aj586qmMnqnez7x07ox+9JElp3cD8OZp/i1TutSidz1foCvDOqla+Tu67Yiy1/Uz9km8lLNX6rUuMX5zno/nFx+KEjMgAACAASURBVC5oPDZmOxNWw4N/qYmz/6KpkdOaGpntemF6Pbrrr79im954bMx2BixUR64Wn5n3Y4Wlk2zv0bPdkZk0R/oGFI1GFdN5qe2A9nRUdiBtSinbYzdjWanRhWnGbFvLKsmpOixEqvUhNaYomdykR7cZMs0hnTpR2GKd0f5DeiaaWiE9e0xJNfahPSs4KLY8xdSH13tGLx9vU1NqHEbHLu3pcH9mKmthyO3q7gzLsGmNcSIgKvdalNKwZrUmJq/M/0GHVStff1OjY/uuGEttP1O/5FsJS7l+HVmI8P13fpNzKt6GB/9SNy9d1LV335YpU/V3B7TCaM55I/L+O79xokhwSO4Wn8Ilky16vNMaM5E+danFq2BbiQkHA9OraMdU6D20E9tTDo8nICMoaczhhPPsC1e3+U1rMPrG6W5Y/Zvbpsc9DBTVijHbmqKsCRIqtg+LFlU8IavLWBHlKbY+ov2HdLBfaV3UZgeE7yxx+t5CJZtb1P6lJ9URMrKnfX4pNfFGtVunAACLjSNXjvHYqMw8U3UuX9eohtYv6o7Wf6f6T9wvT719s49pmjlXQV9ScgxOn1m4rcJmxo2osAHe88v/pDj/dvkVXG//Tnvr9EDweRayc357iuf1jmpgaP5B86ltsh9TUPi+qNY2pwajpwZTt7eGbQefFyMRi06n7cA+dPDYKmYfO1Ef0f4TOnLga/pO2qD91PS933u2V3sf21RSunaSyRZt3/+PenbvPnWFp4NbM6aRU0f1na89pYOHz2TN+gcAQKEcu4L8+hdDrqaRmhEr338Tby2yGVreHNDI9LoIj86ZCSfZ3qOusHvrmvS/dMpa6yD0iP0aIckWtRW5+vTMk+v0dObZLo8noId3Za8REpz+XqE3t5XYnmLNrHsR3qWn2rPzSs5s03R3pTmK3RcV3eY8M7iltnNj69NqDWl28Pkcbbt7bfeDlFo3xPq3Nb4iM+2i92GFjq3UPvaEd2nvYzblSVvp3Kn6iI6d0ZEDX9PTB4/qtem1fjyegPwRJ2fVmx17YpoxjRx7Rt/t2a8jL55hsDkAoGyOdMGSpN/96hf63a9+UfL3T//ra04VpaJyDSA1zZhe/3Z56w5YU9I+oVDYymdva59GBiW1RrQ1HFA8HpPh1ADu+coydkKnRiLqCgessnROj9tQUMHWiEIhQ/6Rf9LA4flbrNK3a2PXAT0VGNJgTAq2RvRwSBoZjimUYzE104wpoQ5941BE50aGNDgotXZGZgayFzpdrJPbUyprutyI9nQEFOrep+91Dunc0IAGFVRrxNoma00H+0HXxe6LSmxzaqYrw+hUd480EpMUO5vZBejCWY0kOrQ1HFFIyjP43FCoe5/+oTtzXESTf3acgTVlbeY2lbIPK3VspZfH6Nin70WGdG4opkFJrYGINoak17+9X9Ex5+vDO3ZGJw+f0Y+mu0ntLG6ywfklhvVaevcuAg8AgEMcC0DSeUzJLPCBosfZdQIXvf5Df69gz5PWNJfhThnh2SeQLwee1J4O98oycLhXscd61L3NmpHImB5ELllrEFhP2wu7KUnfrlBHQCGlFlDbr5cDBxQK5/pmQqd6X1Fr7xMKhTtnPpdafG3uegpubU+poi/26juxVF/+iEIdkZkpfs34kF4/+myegCqhU73PKdj7LW0tcF84vc0ZN9zTv8/4qbM6mf6Z6bVutnZH8g4+jw0OKz4dbBhGREZaL6h821TqPqzUsZUqT3dnh4ys8vRlzJ5Vid+gd2xUA4d7NSA5FiR4vdbUyAAAVILnvg33zxsCfPVvvqI33nijuIQb18tz76elRvvB6bo4JvP82zIvMuOVnWSyRS3T/f2jY9UfF2Ot2zHtQulrK8xu1/mi+5CX892stBzanrLKkFbH+cqQWiXbr2F9f3pK2lL2hZPbPF/+6Sumf91mrZSsz6d3PSqibIXuw1zfcfrYKmYfL4TfYLVt2bJFkvT8D37oWJoLYXYXNy3lWXSWQr7Ub23nu5TrtyItIJJkXrxgBRfrDHl8a6TVd1hvXPlY5tSkdCleqaxrgtc7qmjVZ/mZ5R0bnV1no4wbpdntKj6Ncr6blZZD21NWGdLruMgylLIvnNzmfPkXsujeXBmBQDGzZZWwDyt5bBWzjxfCbxAAgGqoWAAy41Jc5sJdVxCA0zZv11bDIzPep5dzrNwOAACWrsoHIABq3kx3ouCD6u6yBqec63NmgToAAFBbCEAAlK2l7cmM1ezjp56p6oKPAABg4SIAARa6C2d16nhUUrTgFd/dNjowpJFAQlJMgy+9oAEWqQMAADkQgAALnNc7qoEFvhaDd+yEjhye+auaRQEAAAscdwoAAAAAXEMAAgAAAMA1BCAAAAAAXEMAAgAAAMA1BCCAg5atWlftIgAAACxoBc+CtWXLlkqWA1j0TO8KRdfvUvDCUXmSN6pdHAAAgAWpoADk+R/8sNLlABa9wEPdarmvUT85v1Kx0/9c7eIAAAAsSI50wfI3NTqRTNEa1qwmXxdQv/PzLl8lY/NOSZKxeae8y1e5kq8TqN/aznep1S8AYOFjDAjgAH/b36nOZ43/qPOtk7/t76pcIgAAgIWJAAQoU3rrR0qprSAAAAC1jgAEKFN660cKrSAAAAD2CECAMti1fqTQCgIAAJCNAAQog13rRwqtIAAAANkIQIAS5Wv9SKEVBAAAIBMBCFCifK0fKbSCAAAAZCIAAUpQSOtHCq0gAAAAszyRSMQsNxGfz6epqSknyoMFiPrNdnfbf1Djn/1PBX/+4k//b/1h4D9XsESlo35rG/Vb26jf2kb91ralXL91E5NXyk7E5/PJiXSK1bBmNfm6gPrN5F2+Shsi/76oNNdF/r3O//T/UfLm1ZLzrRTqt7bzpX5rO1/qt7bzpX5rO9+lXL90wQKKVMjYj7kYCwIAAGAhAAGKUMzYj7kYCwIAAEAAAhSllNaPFFpBAAAACECAgpXT+pFCKwgAAFjq6qpdAGCx8Pkf0Ee/+3HO95evvkdrP/UFXf79T3Tzygd505kcHapEEQEAABY8AhCgQJOjQ3kDh4Z727X2U19Q7GfHNHG+38WSAQAALB50wQIAAADgGgIQAAAAAK4hAAEAAADgGgIQAAAAAK4hAAEAAADgGgIQAAAAAK4hAAEAAADgGgIQAAAAAK4hAAEAAADgGgIQAAAAAK4hAAEAAADgGgIQAAAAAK4hAAEAAADgGgIQAAAAAK4hAAEAAADgGgIQAAAAAK4hAAEAAADgGgIQAAAAAK4hAAEAAADgGgIQAAAAAK4hAAEAAADgGgIQAAAAAK6pa1iz2pGEnEqHfMl3sebrW7Vy9v8llnsxbS/5ki/5ki/5ki/5km8p+dZNTF4pOzGfzycn0ilWw5rV5OsC6rdAV69JkqauXivp+9Qv+VYC9Vvb+VK/tZ0v9Vvb+S7l+qULFgAAAADXEIAAAAAAcA0BCAAAAADXEIAAAAAAcA0BCAAAAADXEIAAAAAAcA0BCAAAAADXEIAAAAAAcA0BCAAAAADXEIAAAAAAcA0BCAAAAADXEIAAAAAAcA0BCAAAAADXEIAAAAAAcA0BCAAAAADXEIAAAAAAcA0BCAAAAADXEIAAAAAAcA0BCAAAAADXEIAAAAAAcA0BCAAAAADXEIAAAAAAcA0BCAAAAADXEIAAAAAAcA0BCAAAAADXEIAAAAAAcA0BCAAAAADXEIAAAAAAcE1dw5rVjiTkVDrkS76LNV/fqpWz/y+x3Itpe8mXfMmXfMmXfMmXfEvJt25i8krZifl8PjmRTrEa1qwmXxdQvwW6ek2SNHX1Wknfp37JtxKo39rOl/qt7Xyp39rOdynXL12wAAAAALiGAARwyI3LY4r+2z/qxuWxahcFAABgwaqrdgEWqq/+zVeqXQQsSuOS8afVLgQWqed/8EPX8+RcBwBw2nzXMwKQPN54441qFwHAErBly5aq5s+5DgDghEKvZ3TBAgAAAOAaAhAAAAAAriEAAQAAAOAaAhAAAAAAriEAAQAAAOAaAhAAAAAAriEAAQAAAOAaAhAAAAAArmEhwkrwf1KehnXy3HmPJMn86AOZE5ekxHtVLhgAOKfe71Fdg0fL7/RIkm5+ZOrWhKnrCbPKJQMALGQEIA7yNN0rrX9Anqb1ma83rpdHkjl+Qbrwa5nj56tTQABwQH2TR6vWe1TflNmIXt9oBSLXx5O6esHU9XECEQBANgIQB3g2ROTZ8HnJ48n/uab1UtN6eUxT5js/l/nOkEslBIDyrdng1eoNXin/qU71TV7VN0kypSvvJDX5TtKV8mFhSzZv0uNfapOhmF4+9IKi3sJ6gZf6PQALFwFIubzL5Lm/tbjveDzy3N8q8/fnpOTtypSrTMlki9p3bFdrQJJiGnzpBQ2MFXbSD7b36NHpXRJ/6VmdLPB7Tsos/xyxAQ0OnC54e5DfzL6O+NXkN2R4PDLjMSUkjQ89pyMvjla7iHCAxyutvr/IY8ZjfefK75MyF2gMkvdckRI7ye/YEUGFQmH5JQ1Kilb8e5m4LriH60JlLLunRb5GX4GfntL1987rxtWF+ZsmACmDZ0Ok+OAjjXfbTpm/HVywLSHBSFghwyMpoqbYWQ2MzX/CSCY36dGusEKp1qBBSWMVLWZOs+WfIxxRqGOXdsb79N3epfk0LdjcomgB9TmfZPMO7ftmh4w5rX8eIyBDkj/yoIInzi/JfVxL1mzwFh98pGnaVqcrv124LSE5zxXTTA1IWto3TE6dM6qN60JuXBcWAd9dqr+7sADENFfq1nsLt8s/AUgZPBs+70ga8wUgazYs05oHPFrm8+j2VVOTv0lq8jfuXsj927ar7cSzGpjvhLG5bTb4WCBGjj2jl1OPzIJBtbU+olDIkGF06hu9WlIXm+BjvdrTEZA5fFRfP1zehSaZ3KTd0xcZM96n7x+dbSVLJlvUsvnBmZYwLG6rN5R/fKze4J03AKn2uS7jXJHuwnlpiZwj5nLynLGQcF2YxXVh8bj53m916WL6Kz6t+MwGrfZ5dP3tYU1dyfz87QXa+iERgJTM4/9E3jEfty5/qGvvvqXkjetafrdfdXcHtPzOu20S8sjj/4TMxPu26dStldZ+3qvrCVNX3r2t+nu8WhtepluXpWuJyl+YTTOmRMKQYUTUulka6M/92WSyRY93htO+s1ACkfOKpprVx0YV7T+jH6We0BidenTzCzqSZ7tgr2XHIwpNX2TmXqy93lFF+0et/bpELuK1qt7vyTnmY+qD67r8+8wr3tpPrZbvnvrsD3ustHLNkFXtc50l7VyRjt9wDeK6UAlcFyrL672q21dn/04mpRUzf11Z0AHHXIunpAuMZ/0DOd+bGPyxLp9+VdcTF3Tz0rim3jmnj998TebN60WntXJ6lpkPf3ZLE28l9eHPbkmSlt9VRuGLNDI0LEna2PllBZN5bgQ2b9dWwyMlhjRSYNrJ5hYFm1uKLlMy2aJgcxk3JRfOaiRh/bMpcG/JyZRafqm0bQg2t+SvAxcFAob1j0S0rCeF5ezDSrDqpbDyLKT6qBTf+tx16zE9un75lq5duqlrl27q+uVb8pi5HzzkS2shnOvKkSzht1DMb60Syj6Pzk2vWufzNGUdk1wXysZ1wbn6SDa3qO2xTY7VbTK5Sdt3b3L0mC8HLSCl8H9SarT/IU4M/KtuXf5Qd7T/lZbf5Z95/dblD+VZbvNUULLS8n/Sdp0Qz3QNJW9m/n++WWgcNXBSr0XC2jrPU6H21rAk6VzfWamzI2dyyeZN2r3rEYWMzJGA8XifTvW+kNHNK9m8Q7t3RdSkhE71PqvY5qfV3RXO6FsaHz6qY4dOF3Wy83pHFU1IMtLLlZmXeg6oK2yVceTYUzrS750p/+NfekRbw5nlN+NDev1o9qD7crfB2l9PZPRbNuNDer3vpE72j6Z9Lnf53x76ue40DMlvbbAnvEt79z8iyRoQOBh4Uh1+SUOv6OCLZ2z3WdvuXnX4pfG+/TrS71UsFpfCAckfVDCZLGr/F70P23u0r9MvJV7RwcPZ5Qs+1qPuSPb7BddpskXtPU/OvJdenu8ffTZjYGqh9VEL6v0erWjMfbJZ1bhCn3y4Se++at21ffLhprzprWj05GwFWRDnugJkHc87nlb3ttnj2TRjOnd8/8xvK+v7BfzW8v1u33s/ppX1KupYLeUcNHNM5ThnpAYRF3M+nyvY3uPI+dypY5LrAteFhXBdSN8PZrxP3z1R1NfzMkJPaE94l+LDfTpVxORClUALSAk8DetsX7916aJufBBTw+e/mBF8SFLd2vyP8XKlmW5Fo0cNn7WqrH7633P/y3ezULrzGhiKS5I2tj5k+4lk8w51hCQz3qeX38ydUjLZosd3PaGQEZAZH9LIsPVf3DRlGJ3a2ZvdytLkN+T3S8EdB7SnOyIlhq3vxWOSJCO8S9/osS9XvnIE/dmvp+fVFQ7IjMcUN2dvlqzBdU9YJwYzNlv+uCmPEdHWvUf0VHv204VStyGVX8jwKD6zv2JWXt37svKar/y59A8mZBgB+be1qc3maYtVv4b8/oQGp+t3dMCqN4/RqW/0flltBT5VKXUfGkZANlU2zZ/z/YLq9NC3rPfMmOLT5RmJm5Lfr6BN2Qutj8WursH580khaVbvXFeYjOO5IyKNDM+cxzyegDZ2HdB2m+OhmN9art/t5XfjRR+rWWV28Dxa7Pk8xalyOHlMcl3IxHXB3etCsnmTtu/u1bN7d2UFYU4zwp3q2ntEe3fvKLiOnEYLSAk8a++xfX3q3bckSXXrGktK0/Z0kHaNrW/06I4/WWb9OzXP/hwf//K2blx0fvGv0ROvaGTbE9oYekTbm09nPYloaYvI8HgUHzqrUUltedKKDp3S8YHMyDuZ3KTdh55QKEcri8cT0cPbYnrt4FMZec/MthHepafaT+d86phluruYacY0MnBe6bG4fV7ejMF18VPP6OCcaQSD7T3a0x2xbj6i+7P2UbHbkJ7fyLFndGTOU6193+zQxq6n1fZm5uQAufKRMgcbZjwxSg5opCuskMd+rE+qfs3hgZm8vGMndOx4QHu6I/IYnera26mOeZ5elrsPS5W7Tlv0+K7pAZPDR/XdOWVPNreo5YIkb+n1sZgtX+v8TX7ONBfAua4p8JDa2rNfj0VPZ40NsX5TQzp+cH/GINvHe7+lrUZAD3/pIZ1Mf+paxG8tM4/M320yuUm7/zxS1LGaLz0r7+xzUPTFQzr4Yp5zxrRqns8dPya5LnBdqMJ1wa7lx2pJfU4vv+ncbGFe7xkd7omqZfP2mdY2I9yprnCnOqrQIlIbV8kaNvFWUmPP35z/gxXm9Z7R4Ijk8QQUasvsG5tMbtKj2wyZ5pBOncg/5ZvXO6qBF09k/chT6Uu5+96eO5594vGOndCxV/O3zkj3Wn0yp/9re6xH+7qs7mIaecX2ZJZ49bnsICttcN0xm+2M9h/S8WHTdh+Vsg0z+Q0fzTippb5zasQ6gbZuzs7Hrvz5eL1n9HKO/ZhMtqgtYsg0Y3r9pdMZ70X7D+npg0etp0KafmJ36ID27rbvt+rEPiyVfZ0+ad1wxPuyLjKS5B0bnXmtnPrA/BbCuc7o2KWu7uz/Hg3af/7c8cxuGF7vqH7UZ42ZS3VBSSnmt5Zu7u+21GN1tsylnkezVed8Pqu8Y5Lrwny4LlT2upBs3qSn9me2eJjxIb127Bl9/eleHem3PyeUw5oI4JAOPv01fedYX1odTbeI7O9xrUWEFpASmJc/sFY1n2PVH31GNy9GdevDuOruMmy+mT/Nha7/pVPqCHVkTck7ewBOPwUp4rebbG5Ri4IKBGXb9J1imkNWE6/NsTgaS0jK3ec01L1PIZs04zme6Nk9/UqdbCXpXF/u6Rn7B4fVFY7YznNezDaM6t7Z/AZP234p1dfWusDPnvjsyl+I0YEhxbcZ8ofa1JY8Pfu0Zv2DCvklJYY0MOcJrSR5x87oyIEzCrbv0KOdHQoZAeuC09uW0U/WiX1Yqlz7JDVgMjF0Nm8+GWUvsj4Ws5uXTdU3OdsKcvOy8y20TonHhzSesHndZmrenMdzNKa4GZbfH1BAs4vmFfpby8zD/ndb6rFaznm0EG6cz2fyKvOY5LpQGK4Lzl8XZltK08f7uN8CEe0/oSP9JzJaYAwjoq69R7TTpuXHaQQgJTAnLtmOi1y+rkkr7vLr45+/odWfbVd94BMz712Pva+6O+/RslWrc6a50FnRfIe6whF17LhXAy+O2jwFmf/HmmvQYslyXPBTrGmBZ/8eHxrS4EC+Az2hqM0JtaLmbEP6pTLUfUT/0F1MYqWVP71+05vb07vX5TsZpU5mMwNLjYh2fvNpqWchdEnK3ifp/b3HY4VfmIuvj8Xr1oTzwUIl0nTKeN+zObr9lPf7LfW3lutYLvdYtTXPeTQXt8/ndko5JrkuFIbrQiWuC0EZaQF6/NRRHTtR2Zv9fLxjZ/SjlyQprRuYP0ezr4MIQEqReE+6OGo7E1ZD+19pov+/aXLkp5oc+enM617vMq3766/Yp3dx1HYGrIVo7lOI0VSf2WH7Juu5ku09erY7Isl62jjSN6BoNKqYzkttB7Snw/mBV/Yz0pR2oJtmzPZpaCXleio7837MubxS9bux9SGp/0x297oCTpDR/kN6JppaCTe773A19qE96yJQbHncrI9qu54wdeOimXPA99T4dY0PX575+73Xx9UUXitfk/2MfzcumjnXAaltpf3W8nHiWC1XNc7ndko5JrkuFI7rwvyKqQ+v94xePt6mptQ4jI5d2tPh/sxU1sKQ29XdGc5Yty1VjkoHRAQgJTIv/FqeHFPxNrT/lW5eGte131uD0pffE9QKf7PkXZYzrUXjzZN6rXN2St7B1NS7OZof06UWKpQyp7qzeBXMN3I9n2BgetXVmCp97+fxBGQEJY05nHCebcj9VLYC3rQGHW6cbm7vn17Z3m5Aaz6zT800c9FKqdg+LFpU8YSsrgFFlMfV+lgApi4ktaLR/twlr1S/ti7rtXxpLU2l/dbycuhYnVHkeXQhnc+rfUxyXSgM14W0XPoP6WC/0rqozQ4I31nhad2TzS1q/9KT6ggZ2dM+v5SacKPyv606f1PxMzbZcSqdYvl8vqrkaybel8c0c66Gvnxdk5a35Z8T30rIzLkK+kKUGmS5tTuija1Pqyl96t15f6/5nyzMLGBky6/gemnA5mSQWn+k3IWP8vF6RzUwFNfWjkDWidOuLPZ9RwvfBq9m56PPl5/TrEGHjyjUMT1orjVcVPc6O4lYdDptB/Zhjn7h+X879tLn/J9vHxfz2XJV4lxaTprXE6ZkynY9Dt899farntsxtURbPyrz+yntWHXyPFrd87mbx2S+MnBd4LpQTn3MdFFr3qRHp9cRsabvjejhrpgSr+Zeg6VYdmNPTDOmc6++opdnuoA5fw819/qTum+vS4xfdCRxJ9IpVsOa1ZqYvOJ6vinmOz+X5/7WstMo1MRbSU28tQCeIE4/DQmFIzIkjeQZOGbH7klHsr1HXeHcg109noAe3vVlDfRm5hWc/l65J8NCpAbjWdMiRrNmvEjOlMW+WbrYbZgZ9B96xHZKymSyRe3rpYGxEp6S5BngmdrOja1PSyHlHGTYtrtXrYPPZe0HaXZdGCmzH23J+zD1m7OZ1nO+304+qX1shHdp72PRrOkfrekWrQGPFa2PNE6fS504P195J6nV95d3bF15p/Bz14I51zmomN9aoQo9VlPKOo/mOGdU83zu1jGZD9eFzM9xXSitPqLTg/bTB4R7PAH5I0EFT5Q2KUS22bEnWdP8VrC7Vfr1J/2+nS5YZTDfGZL5+3PybttZ0veTr35fSt52uFSVN/s0JJB3Bg+77w2OPKFQWNrYdUBPBYY0GJOCrRE9HJJGhmMK5Vh8xzRjSqhD3zgU0bmRIQ0OSq2dkZmBj8VOL1gKa1rEiPZ0BBTq3qfvdQ7p3NCABhVUa8Qqi3VQ2w+uK3YbrObqiLrCAYW6j2hv53QfawUVbI0oFDLkH/knDRwu/EIzc6I3OtXdI43EJMXOZjb1XjirkUSHtoYjCkl5BhkaCnXv0z90Z/Z/bfLP9ie1pibM3KZS9mH6byfUfUR7W/s0MiipNaKt4YDi8ZiMEgbBppfH6Nin70WGdG4opkFJrYGINoak17+9X9GxytTHYjH5TlJXfp9U07bSLhnjr96SuQjiiVwDSU0zpte/Xd76A8X81gpW8LE6ux3FnkdznzOqfz5fCMck14W5uC6UUx/esTM6efiMfjTdTWpnntnkSpIY1mvp3buqOBEAAUi5krdl/nZQng2fz9kdK4tpWi0fizD4SEmdsPTqyaL6gPYf+nsFe57U1nBAoY6AQkpF4vv1cuCAQuFc30zoVO9zCvZ+S1vDnTOfS0Xxdk9bKiH6Yq++E0v12Ywo1BGZmcrRjA/p9aPP5rlwFr8NA4d7FXusR93brNlDjOkBnzP5Fdnqk3FiDXfKCEvxU2d1Mv0zad3s8g0yjA0OKz59UTGMiIy01u5821TqPkz/7aTKbpoxjRx7Ri8HntSejoJ3g215ujs7ZGSVpy9jlhSn62MxMZPSld8mtXqD17Y7lv2XrJaPxRB8uKGY31ohCj1WZxV/Dsp3zijvfP6KWnufUKjM8/lCOCa5LsziuuDMb9A7NqqBw70akBwLErxeq5VlofDct+H+sjvl1mIXrK/+zVf0xhtvFPUdT9O90voHbNcIkSRz/IJ04dcyx/Mv1rcUJJMtalkvSeezVhjO+Nz0SqJ+Dev709P2FfrdSpsth6Q8XSec2gZrjv358yuu7Pb5p6+M+3WbOfGzPt+cNiFDEWUrdB/m+k7U4a4VxexjJ+tjy5YtkqTnf/DDktPIZb7zcynnuvomj1at96i+yX6br48ndfWCqevjS3PMRyGc+v0Ucqw6cQ7K9/lyzslOns+dICQ0VQAAIABJREFUPCZLLgPXhdnPc12o2tS61ZTvekYXrAoxx89L4+dl+j8pT8M6ee68x3r9ow+sdT4WyVS7bvB6R6e7GhR/cJbzXSfNlkNFP6EoZRu8Y6Ozc+KXeVLLl38hiyvNlXHCL2ZWlBL2YcZ3HFbMPnayPhab6+NWcFHvN1XX4NHyO60mkZsfmbo1sVSn2i2OE7+fUo7V2SyLOwfl+/xCOZ8vhGOS68IsrgtL67pQLAKQSki8JzPxnrgEY1FKre1S8OxmWKquJwg2qopjFW7htwaHEYAAmG02Dj6o7q7ptV2KnN0MQOVxrMIt/NZQSQQgANTS9mTGqsXxU88sqcX2gMWCYxVu4beGSiIAwcJ24axOHY9KilZ8lfOKWQTbMDowpJFAQlJMgy+9oIEqDu4HkFtJx+oiOActOYugTrguoJIIQLCgeb2jGlgA81WXYzFsg3fshI4cnvmrmkUBkEcpx+piOActNYuhTrguoJL4RQEAAABwDQEIAAAAANcQgAAAAABwDQEIAAAAANcQgAAOWrZqXbWLAACogLqV3DIBTmEWrDy2bNlS7SJgETG9KxRdv0vBC0flSd6odnGAgnGuA/K7ueKqJhs+0Lo/rK92UYCaQACSw/M/+GG1i4BFJvBQt1rua9RPzq9U7PQ/V7s4QEE41wHz+9zjn9C6xjU69cYrmohfrXZxgEWP9sQSNKxZvaTy9Tc1ViXfxbSfvctXydi8U5JkbN4p7/JVruTrBOq3tvOtlqW2nzl+azffBmOV1n1yjSTpE5ubXM2b+q3tfJda/aYjAAEc4G/7O9X5rPEfdb518rf9XZVLBABwQnrQse6Ta9RgFP+ACUAmAhCgTOmtHymltoIAABaO9NaPFLdbQYBaRAAClCm99SOFVhAAWPzsgg1aQYDyEYAAZbBr/UihFQQAFi+71o8UWkGA8hCAAGWwa/1IoRUEABavfEEGrSBAeQhAgBLla/1IoRUEABaffK0fKbSCAKUjAAFKlK/1I4VWEABYfAoJLmgFAUpHAAKUoJDWjxRaQQBg8Sik9SOFVhCgNAQgQAkKaf1IoRUEABaPYoIKWkGA0hCAAEUqpvUjhVYQAFj4imn9SKEVBCgeAQhQpGJaP1JoBQGAha+UYIJWEKB4nkgkYpabiM/n09TUlBPlwQJE/c7yLl+l+3b+UMtW3Vn0d29f/Ui/+/5XlLx5tQIlKx31W9uo39pG/TpndVO97t8eKOm7E6NX9btXEw6XiPqtdUu5fusmJq+UnYjP55MT6RSrYc1q8nUB9Tsr8NDflhR8SNKyVXfK98B2xU4fKzrfSqJ+aztf6re286V+nfOJv76n5O82tKyS1iQ1EXf2ARP1W9v5LuX6pQsWUKBSxn7MxVgQAFh4Shn7MRdjQYDC1VW7AMBi4fM/oI9+9+Oc7y9ffY/WfuoLuvz7n+jmlQ/ypjM5OlSJIgIASuC7e6USv/oo9/sN9WpoWaVL70/qxtStnJ+rW7lMt67drkQRgZpCAAIUaHJ0KG/g0HBvu9Z+6guK/eyYJs73u1gyAEA5Er+8pMQvL+V8P3D/3WpoWaULZz/Q5VH3u64AtYYuWAAAAABcQwsIAABAHpOxa/q3/+uX1S4GUDNoAQEAAADgGgIQAAAAAK4hAAEAAMhjTWClvvi//onWtqyudlGAmkAAAgAAAMA1BCAAAAAAXEMAAjjETN6UJHnrVlS5JAAAJ3mWeSRJZtKsckmA2kAAAjjk2ge/l0xTvqY/rnZRAAAOWnXXCsmUpj68Xu2iADWBAARwyK1rH+v6R6PyGZ+pdlEAAA7y3b1C1z6+oVvXble7KEBNIAABHHQl/pZWG5+tdjEAAA7yNdZrMnG12sUAagYBCOCgqfivVH9ni+pW3lHtogAAHFC3cplWrKnTxPi1ahcFqBkEIICDJsZGJI9HwS/2VLsoAAAH1C336taN2/o4PlXtogA1gwAEcNDkhQHF+/+z/A/+j1r/P/xv1S4OAKBM1yZu6tf/X1QfjxGAAE6pq3YBgFpz4b/8R0mS0f4frL//6/8hmUzdCACLhcfr0T3336EPfvOxTNPUzSsMPgecRAACVEB6ELL2j/5U0TcO68O3XyMQAYAFrL5huYzPrZPx2XVasaZOb2tUF399udrFAmoOAQhQIRf+y3/U5Oiwmr/4Nd23439X8IPdiv3sn/Tx+2d0c2K82sUDAEha7qvT2qBP/j+5U+vuXSNJunR+UrH/dkkfvjtR5dIBtYkABKigS2+/pku/fl13fXqrglt261PbD0qSkreu6/qlC7p26YKuXzqv6x+el+faRWnK/T7G9XeuVcPK+Z/wJW9d05XoORdKBGCxajBWyVs3O7z01vXbunLRmj2qrn6ZVjeuzPv9+T7vW7VS3quFf36um1O3ZhYTXHfvGj3wSIuW1y+TJN2YvKULZz9Q/BeXdH3iZgFbC6BUBCBApZmmPvzVq/rw7dfU0BLRqrvvU/1d96p+3b1auW691n7qz+Stq69qEf0Ffm5ydEjvv/ZtTSV+XdHyAFhcVjeu1Ia/COiOoC/j9ctjUxr5wbvWZ+6pV+grn8ybTqU//3F0SsPPW5+/NnFDH/z6sqYuXdeVi9f1cWxKZpJusoAbCEAAt5imJi78XBMXfp711vKGJt0V/GNNXb3uerHW3blWlz6avwVk5V3r1fzv/hf9Sfc/a3zweY39+D/p1jW6JwBLWV39Mn3iT5sUCN2lW1dv6bf/NaqrH92Yef/W9dnB21c+uK6RH76XN735Pu9btVJTV68V/Pm5krdmA4yrl27onX+J5f08gMogAAEWgJsT45oau6KJySuu5+271qiJ8Yvzfm7ifL8uvf26mv/d/6ym1q9q3ae36sK//J/6w7mTLpQSwEL0mUdatHb9GsVGPtT7PxvPCAjmunX9ti6PFn6Os/t8co1ynieLTR9A9RCAACjYrWsTev+17+ji8Av6xNZv6lNf+nvdvnpZH73z42oXDUAV/P6NhKTEzDgMACgECxECKNpU4td6+/99QjcnxtXY+rfVLg4AFy1b7pXH65EkXbl4jeADQNEIQACUxEze1sXhF7T2j/5MK+4IVLs4AFzyyT/z69NfDsq7zFPtogBYpAhAAJTs4vAJSVJjeEeVSwLADasbVyoQWqeJsWtK3mbGKACl8UQikbLPID6fT1P/f3v3GtzUeedx/HdkwGAwkDagCw603aSbZAdJa8eQ6TCTvgnY0CRsL69rh2RYDzN9HULJeMim7Yud2Zl2GCZDWOjrtBkaQiDNvmh3s1uIkVc2aZpp2k0BI8kkbbgYwvWcfXEkWbKOZF3PkeXvZ8aDsaVznvNc5PM/z82D/QvgDsq3tdVavl1P/asW3/+Q/nTknyTLrGPKUA+039bmavka0kPbAlq0fKE++sVF3btNe2802m9rm8/lu6Aeq+50dHR4snpP57KlnNcFlG9rn7fW8k2Nvq4Hv/1vslZ+XVMXYmW/b77l81wt32rNt3yeD+W7ItShpf7F+uN/JHTvtjmv8nk+lG+u+ZbPlK/752UIFoCaXE9+KElacn/pDcAAzG1LvmxvmHr5/JTHKQEw1xGAAKjJ7WuTMu/c1OL71nqdFAANtGTlIpl3Td2auuN1UgDMcQQgAGpjWbp1eULt963zOiUAGmjJinZ9ceW2xNxzADUiAAFQs5ufX9Di+x7wOhkAGmjxyoW6eZneDwC1IwABULNbn59T+8ouyWBfAKBVTX54WZ9+fMXrZABoAQu8TgCAue/m5+flW7hYizr9un015XVyADTAxdG/ep0EAC2CHhAANbv9eUKS1L6CHdEBAEBpBCAAamaad+1vDDpVgVa0uHOh1m1crcWdC71OCoAWQAACAABKal+xSGsfX6X2FYu8TgqAFkAAAgAAAMA1BCAAAAAAXEMAAgAAAMA1BCAAAAAAXEMAAgAAAMA1BCAAAAAAXEMAAgAAAMA1BCAAAKCkW1du6/ypT3Xrym2vkwKgBbBtMQAAKOnmtTs6d/qS18kA0CLoAQEAAADgGgIQAABQ0uLOhVq3cbUWdy70OikAWgABCAAAKKl9xSKtfXyV2lcs8jopAFoAAQgAAAAA1xCAAAAAAHANAQgAAAAA1xCAAAAAAHANAQgAAAAA1xCAAAAAAHANAQgAAAAA1xjRaNSq9SAdHR26ceNGPdKDJkT5trZ6lO/C5UGteHirrnz0tu5cTdYpZagH2m9rc6t8Fy1boC89tEx/+3hKt6fuNvx8sNF+W9t8Lt8F16au13yQjo4O1eM4lepctpTzuqDa8v3ed7/TgNSgeV2UvhGRFPE6IQAaxe91AuC213/xS9fOxf2VO5ohnxe4fnbMK++9957XSQAAABXatGmT10lAC2MOCAAAAADXEIAAAAAAcA0BCAAAAADXEIAAAAAAcA0BCAAAAADXEIAAAAAAcA0BCAAAAADXEIAAAAAAcA0bEaI5LV0hY8X9UvsS+/+3vpB15TPp+hVv0wUAAICaEICgefjaZKx7RMbah6WO5QW/NiTpxlVZ5z+Sde4PknnP9SQCAACgNgQgaA4rV8mIfFNGR2fp13Usl/HwBmntI7LGfiNd/tSd9KGpmWs26Jlv9SigpI4feEMJX3mjS6t9HwAAqB4BCDxnBL4iI/KE5Gsr/z0dnTI2bpU19ltZqb80MHXVM80u9W5/St3BEi9KHtPBNydcS1PrCikcjsgvaVRSouHvy5df1kmNvvWGYhfLC2ZCvUPa1m1/n3prv46V+b56KllXkzGNxk6VfT0oLZvXUb9W+wMKGIasVFKTki7FX5uXnwfZNpCM6eCb7xd9Xc/TQ+oOSqnRYzo24pxP5poN2vmtHomHCkBTIwCBt1auqjj4yPK1yYg8Ievm9abtCQlFIwoHjKK/txSTNP9uOHKF1nQpcXHu58F0WUe1OnlGsTKuyTQ3aNtARGEjXUdGJV1saDKLKlpXI1GF+3bo+6kT+snw/Lyhq1cdNdds194X+xQw8vPZCAQVkOSPPqbQ0fPzLo8nJIUjUVlhqefoKcUcrt80N6h7i91W1vuTip12zqeunq0KR4KyUkkddyHtAKpDAALv+NpkRL5ZXfAx4xjWf71Rck7IsgfbtOzvDbV1GLr3haWpP5qa+qNZ/XkrNH74ZR13erx+4bw0z242MkJPD2t3X1DW2CH94NW5H4Dk8m95Sj1H9zveSOXZ2DMdfDSJvLoaCqmne6vC4YACgX69MKx5FYTUs46a5gbtTAcfVuqEfn5oupfMNLvUtfGxbE/YvJNIKmVF5JdfoQekmFMQnttW/EEFVdhjaZpd6okGJEmT8TPzpp4CcxGtE54x1j1Scs7HvakrupX4RF/8+QPdSp7TvVtfOB+no1PGukeKHmfBCmnFP/p095p09ff3dPeqtCLSpsV+N6v/eSUuThR+8QeypVhWUqmUJcOIqntj6deaZpee6Y9k39M8curqyPs69uqwXv7RSaUsS0agX9tmuS4469q+VeF08PGT4fwhej7fhBIjR3Xw1aPz8zPhwhmNT0qGEVS4Z63jS7qC/uz3xdtXSAG/3Q7HY+cbk1YAdTEPP+nQNB542PHH1r07uv7793X5v9/W1NlTuvGns5oa/x9d+c9jun3x/yo6liQtXm1X87/97q6ufWjqb7+7K0la+KXaku8Wc02XQmZlvTWm2aXQmq4Gpajc89evh8lcU9311DMdoTLLYTw+Jkla3//t0q/f+JQ2BwxpMq7xMtPgWT6kbxAlaXXQ+QaxrHRUmX6pumsot8zcEAzaT+Y1magpyKglDxuhks+aYuXh800oFk9JSg9Dm/GaTM+GZSU1PpaUJK3vfrzwBNlekkklLlR2HdlzudzG5nq9BqrFECx4Y9lKGUsLl9qVpOsfxnQ7dV4dX49qUegramtfonvXr+rWhT+pbfl9ju8xli6XtWylNHW58HfpWm7eyf9XzTXyReaa7dq5I6rVmtTJ4f1Kbt+lwS2R7Hhxy0rq7JGXdHDE+ebFNLvUO/ScBiL5M4mtVFw/P7RfsYu+gnNoaF/29X85l9Tidknxt/VKkYmgPTuH1eeXLp2w01GQ5o27NDgQyRvjnho7pMMHTmVvukJPD2kw6pf89g2ZEdmhPS9tlZQ/Cddcs0E7d2xVOJB/PanUCZ0cfqPk8KZQ79Cs6SiHnYZn8+ZGWKm43j1RfBKsYsf062hEmwP92rbxDR0ccX5Zb3dEknT2xBmpv2+WNJSXD9WURzl8vgklJiUFctNVvC6NH34+W0/tlca2arNDvXz3UOGk+1qvodwyK5X+j+L/q5WBQNE6Ohp8Tn1+VdRWksmUFAlK/pBCpllxPawoD3uHtLffL02+rVdeLUxftg3O+H3ZZVrGZ01u2sspj4lYXKktAfmdhlc98JjCfkmTcR0fDSpcJB+zvSTjsWy7KOea3GhjzVCvc8sQ8Bo1EZ4wln/Z8ed3py7rVuITdXw9qiVffURt6Y0I25YuV8fD3WrrdA5ASh0z16JVhjoftat9e/r7mV+LVnkXmaz2B+T3S6Ht+7S7LyqNj2l8LG4PfzGCWj+wT085PC0z12zX3gM/1EAkaA/pGYtrfCyu8ZQl+f0KFTnHQHqyZsqydOWTlAKBoPxbetTj8HTNXLNdfeGA/P5JjZ4ukubBqDQ5lj63/aQyENmhF4YcnlaWYJpdembHswoHgrJS6WtJ50Mg0K/vDxfvXahXOuwJw/Yf/FQ2DUkZgag2D+7V873FnkCezz7NdXxKq0xeSlbqhI6fdnxJ1fnQqPII+Qt/Xqwu5V7n3hef1eZ0vcymP2XZ+bjnoGM+VnsNlZbZbOkvZmR0suK2MhGLZ4exvTD8bfWU+dS72jwMBIJyKLI0f9Hfl1WmZX7WVFQeFxK6pCLDq0JBBQxDk/Ezmjgd07hlSf6oeh7IOVfO/I+zo6fKviY321iz12vATfSAwBuZHc5nuHv5M0nSQn8VQwyKHDO3p6N9laHl/2BPem9f7VP76sKXX/39Pd3+tL4f1quDj6unt/DnycQpJWY8vTSMqJ7cEteRV17Km6T6zPAPtTkQ1JPfelzHcp9aml16Zkd6cuvYIf2k4Mlbl7ouKO9xg32OpH79yvPZp6emuUE7n4gqnL4BiM14ct/VE02fI1bQ++B0PPvc6VV/Ijv0fO8pHRzxKfHmAb3yZv4EX6entIn4SR2J5Y+VN80N2nngWYWL9C5Uko5ScicMjx9+WQdnPGHc+2Kf1g/sUs9p54nmE0ff1viWZ7U+vFVPrTlV8IQ6k5ep+BlNSOopkRYv8yErPVxsemz99Pucz+XLy8PUyZf1yozlZUO9Q9o9GLWD6sRLBXlU6TVUW2bFziOVqKNmTOMDkYraiu/iUR0+EtTuwaiMQL8G9vSrb5beqFrzsFrFy7T8z5pKy8Pne1+j488qHEkH7iPT+Z3pLbyUPC+fbyL9uqACIeWsGjc9/yPlsOBHsWuS3G1j3tZrnjmjeVAb0ZTq2Qdx7UNTF1+/M/sLGyjQt0MDg4Vf20LOrz97ZH/BJNVfnbDnFmSGHmR0bX/OvjlMnSi4IZAkX5HJ7pPvvJb3B9Dne1/H33F+cp87Bvvdt/KfLk6nufAGyHfxqA4XOWYpPt+EYm8eLdh7wr5Jsb8vNhehHunIThgeO5T3Bz9zrJPjpSbCTqfTaVKtaW7Qti0BWVZcJ4+WnijrTT6stceYp796nh7S3gH7BlDjbzve5M6sS1L+pOvDDteZGDmgI2NWyYnHlVxDLWXmlP5Sqm0riZED2vXKIbu3QOkn3gf2ac/ODY49evXIw2o5l2n5nzXVlMfIaOFnnGluUHdYsqx4tjcpmXTI+8z8j8m4YkXmfzhdkxdtrFnrNeAmaia8UWRFq4Ur77d/nTxXt2M2g1RO137ul9OTutw/tHkS6W709BjpjMzk1kqWnSy2SkxmmIjCM4aW5IzBdvrjXjTNkiaS6dnLMwKnStgTQzeop3eD41Cgeqaj1FCOjMwNUKkJ2SNv2StH+bc8lZeXmRuK3HHq5XIjH8KDe7V7z/TXQF+6t2bskH7g0FPlVJfy8vBE8WV7MzecThOPK7mGWsqs2hWTqm0rvovv6+C+f9aPD5/QeMoOHgKRHXpheFfesKx65GG1iuVJuZ81VZeH0/CqTGCR016c8j4z/6NY2sot50a3sWav14BbGIIFT1hX/+rYy9G2bKXag+v0xcfjkmVq0ZqvybeoXXevXtbNP3+gBcvv05IH1xc9ZrO6dGJ/keEutT0DyB2bfymZPzSmtPQqMTNebj9R69NAJH9oSe6QoYpX8Mms8V9k7f5iik0MrVoV6QgPHtTPBqs7XW5e9m1fq9ibEw5Px2fPS7fzwbKSmpyc/v+leFyjsVI7uzvXpYaacQ25z4UrL7Pq0l9rW0mMHNXBkaPTCyYEovr+i7ukoTL2j2m4wjyp9rOmsvJIKDUphQPTw6uygUUyp6ZeOKPxyT496bf3DRm5MH2jXjxtxcu5GT5rnN7nRb0G3EIAAm9MXZZ1/arjSlgdj9qTJW58PK4bH08vUGosWKj20DrHw1nXrzqugNX6So97rsbI6JgGItHsOOyCIUMu3ByZvUPaPxiVlO49OhFTIpFQUuelnn3a3VenG4VZpFJxXZos8ftk6fdn8jKzw/VEZi7FmPNQppm8yAfnldaqK/N61sty1VpmlahHW0mMHNDLicwO6YVzSrzIQ2fVfdZUUh6Z5Xg39wW1vvtxmacT08vv5sw9yqzKZgTsoWe/kt3rlO1dqKC6NstnzWzcrNeAGwhA4J0LH0kPbyj4sW/BQi0Lf0OLv/ao7l7+TNad22rr6NTC+wMy2hYWP9a8VPjEsGan7Qm268M96jFPaSQ9BMJp8nlZ0ivYWKmkyvkbmdmgT3JaNtKnUKkZ23VMh1Sq56pMp4/p1/3TS/KOZpbeHZ2996OZ8qFahlHHepmrxDXUXGaVqFNbme5NKZyA3bA8rFh1nzWVlkd2Od5wj3ofCOUPZ8s5TG5w35UMFl0go5Sma2PNUq8BF1Cb4Rnr3B9k3bhW9PcLlq3U4q4HteSrj2qR/4GiwYd145qsc39oVDKbWnZ/BlU2ybv0Me0JtpmJjb3dkZKTz232UAgnmRVsyt+ArfST1uyGbg1KRz3zNHfxgPXdu8paeneat/lQi9yN5UrlYSYtzuP2y7+GRrSDclTXVkrLDDWqSx4WmedTuu44qySPayqP7KaXfoV6ppffLbi27HyRoLZl8iBZaVeRF22s+es14AYCEHjHvCdr7DeSec+1Y2RWxCr1de3DubXDbGaysxHZoT1PFy5fXM1O6plJnuu7d6k7rJIry0j2U9ondxSulx/qHdJAxCh9U1bkJin75Df3WtLHa0g6cmTyVOGtjnssmGaXesrdLTl9o2RE7LkBpSYUO/EyH2qR3fciskPP9zrUy2xanFcDq/Qa6lpmM5VYuKDcttKzc9gxH6TpfWGkzByG/GNXnIeZOhfo17aNzu+pRiWfNdWWR3Z4lRHU5j57aFRunkyze2QMI6pwxKhp0rWbbayp6jXgIYZgwVuXP5U19lsZkSckX1tl7zXvyRr7rXT508akrY6KTSC0rKTe/VFt6/fbyzdGtbsvqEDfXv00GtfZeFKjkrqDUa0PS+/+6CUlKhnCkZ7kuTkSVViadUKtZSU1qT69cCCqs+NxjY5K3f3R7KROp+UgM0MtAoF+DQ5J40lJyTM6NpKzH8DAPj0fjGs0KYW6o3oyLI2PJe2dkOuUDif2kJioBiJBhQcPak9/emy4Qgp1RxUOB+Qf/3fFXi2yG3rusXzv6/g7WxXuC1Y0Rj1vXwSP8qEWufUyPLhXP+2P62w8plGF1B2102JZSXvJ6SKrFlVyDfUss4zidTTnGGW3lYDCg3v1s8H88fyr/REF0rtb20ut5l9TNXmYW3fCgwe1p/uExkcldUe1ORJUKpVUoIoJ15V81tRSHpnhVVLxeR2580UkOQ7TmvV6PGhjzVCvgWawwL96VV0OVK/jVKqjo4PzuqCR5Wul/iLr5nUZkW/K6Ogs7z03rtk9H3Mg+HBD4s1h/Ti5XYP9fQoEogr32TdDkj3kp9LVUDJDhzYPRsucUDupk8OvKTT8Q22O9CucHklg3xy9VrB+vTTjZibSr0BESp08o2OSRg78i0JDz2lzJKhwX1Dh7LFe0vHgvuzxndPxtrqHn1W4zHQUE3t1WMmnhzS4xV6hKJCeqCpJVipe9ipW0vSNrN45VtEY9dryobLyaIRMvdzW36dwQb2M691D+0sEQpVfQz3LTCpdR7OvKbOtJEfHlEoHG4FAVIGc0T2lrqnaPMytO5m0W1ZS44df1vHgc9rdV3Y2OKannM+aqsvjdGajx9LLVWcDRMOoekih+23M+3pdDTfv8bi/cofX+Wz83YMP1bzls3/1Kk1ecv9GsHPZUl2bus55G6za8v3ed7+j9957r/w3+NpkrHtExtqHpY7C1bEkSTeuyjr/kT3no5ahWy3MXNOlbIf8hfNVj/PP3QXaaf8H+1z26j1+jenn6eVDTbNLXQ9I0vmCXd4dj1Hi9ZUeq17vLThWnfK06vOXeS31KI9GmU6HSuZhva6hnmU22/nLaSt5r88dMlNB2srNw2LvSVysb+BZSR573YZm0+g21oz1ejabNm2SJL3+i1827BwzcX/ljmbIZ4ZgoXmY92R98oGsTz6Qlq6QseJ+qX2J/btbX8i68pl0/Yq3aZwDfBcnptedr/KPU+EGWJXsEj2RHu5V3ntKvb7SY9XrvQXHqkOe1nT+JsmHWkynQxXnYTXXUM8yK3X+atpKXiBQyWpZVeRh3nvqrJI89roNzcaLNuZ1vQa8RACC5nT9iiyCDe9k9qvIrNjE3znAGW0FACpGAAJAUk7XfugxDQ6k96uocMUmYD6grQBAbQhAAEiSunqey9v1N3XyZTa+AhzQVgCgNgQgACTZK8qMByclJTWqfeYUAAABnUlEQVT61huKlTMp8sIZnTySkJRo+K7aKEMrlMccuIaq2gpaQ7X1cw7Ua8BNBCAAJNlLjh58Nfu/8t7jm1Ass2wkw0881wrlMReuoZq2gtZQbf2cC/UacBOtAAAAAIBrCEAAAAAAuIYABAAAAIBrCEAAAAAAuIYABAAAAIBrWAULDbVp0yavkwAAAIAmQgCChnn9F7/0OgkAAABoMgzBQtPqXLaU87rAv3qVJ+edb/lM+XLeRqB8W/u88618MX8QgAAAAABwDQEIAAAAANcQgAAAAABwDQEIAAAAANcQgAAAAABwDQEIAAAAANcQgAAAAABwDQEIAAAAANcQgAAAAABwDQEIAAAAANcQgAAAAABwDQEIAAAAANcQgAAAAABwDQEIAAAAANcY0WjUqvUgHR0dunHjRj3SgyZE+bY2yre1Ub6tjfJtbZRva5vP5bvg2tT1mg/S0dGhehynUp3LlnJeF1C+rX1eyre1z0v5tvZ5Kd/WPi/l29rnnc/lyxAsAAAAAK4hAAEAAADgGgIQAAAAAK4hAAEAAADgmv8H2rgf5QuDSJoAAAAASUVORK5CYII=;sketch=1;curveFitting=1;jiggle=2;fillColor=#FAE5C7;strokeColor=#0F8B8D;fontColor=#143642;" vertex="1" parent="1">
          <mxGeometry x="900" y="840" width="800" height="430" as="geometry" />
        </mxCell>
        <mxCell id="wvO3bNdWeyCbrdkIyxWq-20" value="" style="shape=image;verticalLabelPosition=bottom;labelBackgroundColor=none;verticalAlign=top;aspect=fixed;imageAspect=0;image=data:image/png,iVBORw0KGgoAAAANSUhEUgAAA2oAAAICCAYAAAC++z6IAAAgAElEQVR4nOzda3Bc5Z3v+99akm1djY2x+yIZCIFcNrGksZChMqZm9s7GlkxsVEmYqjkztZFxfGyVCuqcOm8CjCmVPQ5UnTenoBzZ43hwdtXMqdpcjrABC7NnMjnxzLEty0gimRlyYRKjS8tAsJHku9Y6L1rd6lavVt+7V7e+nyoKUHev/389T69e/e/nWc8yvnzvfbZnzWpNXPxE+VRbU63JqWniZVG++7EQ+1jq/cixWBoxORaLP55U+v24GN43fKYWfzyp9I/FQsTkWCyOeGZWtwYAAAAAyJjR1NRkV1VV6cqVK4XOBRmiH4sffVga6MfSQD8WP/qwNNCPxY8+TE/55NS0qqqqGOIt8niS8t6PTA3IPo7F0ojJsVj88aTS78fF8L7hM7X440mlfywWIibHYnHEY+ojAAAAALgMhRoAAAAAuAyFGgAAAAC4DIUaAAAAALgMhRoAAAAAuAyFGgAAAAC4THmhEwAAAO7y+Pe+W+gUABSRV197vdAplCQKNQAAEOPUqVOFTgFAEdi4cWOhUyhZTH0EAAAAAJehUAMAAAAAl6FQAwAAAACXoVADAAAAAJehUAMAAAAAl6FQAwAAAACXoVADAAAAAJfhPmoAACBzS5fJvKdBWlIhLV0m++Z1GTeuaeY/fiHj+tVCZwcARYdCDQAAZMR46FEZK1ZH/23232V33y998QdZ/3Is/4kBQBGjUAMAAGkx71knfaU58ROX3y6ztUP63S9l/Xt/7hMDgBJAoQYAAFJWvmSJZgwzPHKWDHv2dbdu3sxVWmmzrHo91v1X2uR13qNA3z7tPzaS56xKh2Vt0K6eJ9VgRLfv8Cs7dbifJRMWUnZng1beWZXUc+3Pfq3P/u2zHGeEfOHIAAAAKWn9zp/LV39XWq9dtcartu/9RcLnGWXSkpWGlnlMlVWkUg7mhrd1j1460Klmyyp0KkXHv61bBw7uiCnSJKlh+2HtbKFNASeMqAEAgJSUlWf29cE0TRmGIdu2nbdfLa3+03KVVQW/2Nsz0qX+GV35OPdf6G17XO/98HkdH537Ldtq6dSB7U0yjCY90fmQBg6dzXkehRba50xHEq2WTj3T6pMUO3oWGsX0ZpxtaZu5MKxPL8z9v2Wt0m0P36ul+lyTP/933TAZdylVFGoAACBp3/xWa9zHJs/9k259djHqb7UPfkvlK1bFPPdPWrfpn0686bid2q+USYZ08eQt2TPSimZTNfebeSnUnJj9PepSsHBRQ7OardMaKPEvx/U+T1a207K+UVJw6uj8KY6mOaLje3eLCV6AM44MAACQlGUVlVpx+x2Oj10f/Y+5Im3pUtkVlZKkL/r/UTNXJmOeX127XLW3rXDcVlmNoZuXpJuXbd2asnX9E1tly7KzD2k7M6Bh25bkkX9tgXMpQhfHLyR+EuRvadfO57u1tS7zHyWsunY9d6BbO7dtkJ8pu0WJETUAAJCUr65rkuFwndEXZ05q5tIlrdz8Zylu74907tRPYx8wbGkmIo7zDMmCs+ratefZVnkm+vRi9zk1zy5GYgdO6MXuNzQ2O+qWykIaoSmH9tARPX3obPj/Q+ZvO+q1DnFC20k27yPvN+n7bb7wc72te/Ry61y+59f/jToajbhTIqO3/YbGxwNSo0/r1j8k9Sc/ZTSVNvNv69YzrT7HnELTKx/xBKKmtCbbd5HbT5RHsu3vxN/Sqe1tjfJ6Ddn2uAIJX5Esrxpad2jd5i364N139Hbvacf3DtyJngIAAEmpqHReeW7m0iXZZuoLfiybHXWbL3JL3q3lWv6NMplLDdU9viTmnxUPlKUcNy0PNs9+AZ/Q2MexDzd3Oq8YmWghjZd2bYgb0r+tO6pIkyTD26Yf9HTFLGpitXQ6xjEadyy4CEq8vOPpf6tPAduWZ/NWx222fLtVXsPQByeCxc5I7zsatu2EeUTKpM3SEa8NLGuDdh44GFOkSdK6jr1Ro17ptr+/pVPPHTioZ7Y3yTubw8TwoAYc3mMp+/ic+oYDCti2DMOnhtYd+kHPXkbYiggjagAAICnxCitJMqprUt5eRaXz9iY/tCQXfY+MHFGZePe4w/VpTWpoGNLR3QfmHjNNWXXt2r45uFTG/NGe8AIljTu0s+V07BL1ni3a3iCd3L8zZhTIazSptf1ODcxuz6pr156O4LVg80d6mncdVEdjvEVQHPJWr546Hm+UypSscxqeaNUmb5PWPygNRNwWz7I2aH2DZNuDOn8m+HTTPKtDP/SH8+44eFhP2IP6SecBx+v8MmqztMTpu4jRMdsh3+Zd3fJH5JxK+1tWveof3KrtHY3yzhZ2tj0ePeKVhVEv0xzRwKFu9YfitTXK6/WFR9gmht/RKz2MsLkZPQMAAJJy/drVuI/Z01NpbO+a898ngtelFYJh+LTpucN6+UeHwv+EijR76IjjdD/D69PFo7GFR2h0yWlKntnfo65XBiVJ69q+EzvC4ZGG560+aY72at/RoeDDTQ+EXxOK4zQdr7/nb4PX1jU0x4zqxMt7IaY5ojdPBHNYt/6h6AdnRx3nF7PmaK/2d+3WC33jwbizBdtLz7fH7HdGbZaGeG1Q374lWKQFTuhFh6Jy4FB3uG+Sbf/1M3Vq3tapPT1/FRxBMwzZgXENv7JPT3d16/CxszkpmkxzRGP9Pdq/d7de2H9Ew4HgCJu3cYeeOXhYz+1ihM2tyj1rVkuSQv/Op6qq5G7eR7zk5bsfC7GPpd6PHIulEZNjsfjjSaXfj6nGi1uo1dbKmIxdMESS7JlbMsqcJ/Bcu3olpfiF4jSiMv/x0AhSiGXVy+8JjpQMD1yQ42/jZwY03NGodR6ffJLGIh+bmJ3+Nv9l814zMhtHCk4LfHl7vH0ILoIyMLpw3kkJ5RCxAqZl1euxtsYF93fsWLeeOjY3WhecxukLt23GbZaGeG3g8wVH9UJTOOOxUmn/Bx5Q4+bgKJptj+u9oz/W8f783kR9bPSsDu89K6uuXbuebVWDYcjTsEXNa09rbDTx6xNZ6DOT7zepK5+4+Ik8a1Zr4uInWd1wIrU11ZqcmiZeFuW7Hwuxj6XejxyLpRGTY7H440ml34/pxPvwF0Oqv+sead51OCu/2aYrH/1Sn7/7P2Sbhszq5bJlSJPBa9dq/uhhLb0j9m5Zv/7lUEb7kAtO91GTtPBUtIlxjcf80S+vRwpf05ZqMTQxluToSihOGhzzTsw0z+rtd7eooTViCubaB9TgkTT8TmzbzTN2rFtdvcFFPjZ5I6cFZthm6XBog8iCMZCwEkyl/cd0cULyemdHbrfvUcP6E+p76w0NJGizbPHXbdCjO7aowTt33V34mrgspBDvM5PvN+nhGjUAAJCUa1emdfnS57pt5e0xj1Xdc7+uj/5OxpVp2ZOXw3+v3fBfteS2lTHPvzo9pcuf/yGn+bpD7EhWdo0pMCGt88QpMKNkrxgYGRhUYLM3OAWz94J8oel/508nFcc0R/TmkT41PNsqz+zI3Nzlbum1mcfnl5S9ESrD8Mnrl7RgHqm0v6T3+2XVbdCu2WLJ29imjsY2PREY1HsnjudkhM2y6tXSvlWtm6OviZsYfkevvHVaY6PZuSYO2UehBgAAknbqf76jRx//S8fHVj78aNLb+Wmcm12XCtM8q/PDT6qh0aeG5jt1fNThC/jsNV320EDstMo4N9YOXzs1+xpTIxqbCF5rFTdODpijveobbtUTDU1qXjsmb0Pw1gFvpzOVMrTNNNtsZHxCkk/y+OW3rOiRyNBIX0p5BNtUXiW8rUDouam0vxmefrhBj317izY1+mR4m7Rpe5Me6RjP2iIflrVBj3Vv0aaI0bOYRUtYrsLV6B0AAJA825Y1M5PZJixLdpKLFwSO39Loqzfj/nPpXGa55FL/+eDUTm/rHj23rT7qscj7o31w/nTMaw2jSU/MW4bfaukML2wS+ZoF48wuMb+zJb3FIiIXLZmv//xQcNn3HcHicWLwXExx0bzroOOiIZa1QbueDY7CaXiu6EqrzcbGg0vQe9u0vf1O5xgpCt2GwGjc4Zh/8665m1Kn2/7m6FkdP9Strt37dHRoPLyMfvCasZRTjrXWrwZPcMpxaNGSFzufz9miJcg+RtQAAEBKTrz+91pWUSHVfTXl137+6Sd657W/y0FW7mP29+gFX3DhjMgbR0cK9O1zXGbeHjqh9zyt6jh4WB0xjx2Jeo3Z36Oj6w+qo9GIG2c4xdxDUxu93jY9c7AtuI35qxqeOa6TbY3a5PUtuACIEbGNmP20B/WTntPhqXfptFlodK+jUTGvCfQd0cmmJ/VIqqNqo73ad9QXvB2AQ/62Pa733lI450zaP3IZ/eAUxXQvOnQwMaSTkVMqKdCKCr0FAABSdv3aNclOcQl9W7px3XlJ/lI1dqxbXbuPBJdoj2Dbgzq6e6fjcv+zr9Sb3X+tk4Ho1w2/slNPx9wPTRo4tFtd+08oECdOqvcci7wVQNznmCMaGAzMJua8iMjAod3hJfXnC/Tt09NdPTHTO9Nps4FDu3V0KPr5gb592teb/rqQZn+Punbvi+kDSfrgaPT1aNlof9Mc0cCxHu3v6k58rVsy+Y/2av/enryvLInsMb587302K7EUfzyp9FcoK0TMUl8tUCr9Ni1ETI7F4o8nlX4/LhTv8e99V6dOnUp6W+bD35Gql8d/wrVp2T97XbbNvZoSCU3vs4eOOBZkbmJZoZUbne8hhsVh48aNevW11xd8Dt9v0sPURwAAkBHr52/IqLlNxpebZC+tlLGsUrpxTfaNq7I/Gpa+WAyrOy5CD27VJq+R8SIiAJxRqAEAgIzZU5dlD/0s+N8FzgW5Z1kbtKujUVLim0IDSA+FGgAAAJLi39YdXnlSil3YBED2cGQBAAAgZcVwHR1QzBhRAwAAcAmzv0dP9Rc6i/jGjnXrqWOFzgJYHBhRAwAAAACXoVADAAAAAJehUAMAAAAAl6FQAwAAAACXoVADAAAAAJehUAMAAEBCRnlFoVMAFhWW5wcAADE2btxY6BTgIpa5TJ/4vifP6N8VOhVg0aBQAwAAUV597fVCpwCX8W/crbovf1knzwd0+aN/LnQ6wKLA1EcAAJAXtTXVeY3nWbM6r/Gk/O9jPuKVLauRp+UvJElr/6Qr5/Hmy3c/5rsPCxGzEPuI1FGoAQAAIC5Py1+qvGK5JKnSe79uu+ePC5wRsDhQqAEAAMBR5GhaSN3DnQXKBlhcKNQAAADgKHI0LaTav45RNSAPKNQAAAAQw2k0LYRRNSD3KNQAAAAQw2k0LYRRNSD3KNQAAAAQZaHRtBBG1YDcMpqamuyqqipduXKl0LkgQ/Rj8aMPSwP9WBrox+JHH6Zv1YYntfrB7yd83sdv/u+avnAmp7nQj8WPPkxP+eTUtKqqqjQ5NZ3XwLU11XmNWerxJOW9Hwuxj6XejxyLpRGTY7H440ml34+L4X3DZ2p6ypbV6N7GP0vqube3PKnAv/5jVuPPV+rHYiFiciwWRzymPgIAACBsoWvT5uNaNSB3KNQAAAAgKblr0+bjWjUgNyjUAAAAICm10bQQRtWA3KBQAwAAQFqjaSGMqgHZR6EGAACAtEbTQhhVA7KvvNAJAAAAoLAMs0xVnq9p8kK/4+NlS6tV5f1PuvbJh7p59QvH5yy/e4Muf/TPuUwTWFQo1AAAABY525rRb17/3+I+XuP7hr7e8Xea+On/qYu/dS7mAGQXUx8BAAAAwGUo1AAAAADAZSjUAAAAAMBlKNQAAAAAwGUo1AAAAADAZSjUAAAAAMBlKNQAAAAAwGUo1AAAAADAZSjUAAAAAMBlKNQAAAAAwGUo1AAAAADAZSjUAAAAAMBlKNQAAAAAwGUo1AAAAADAZSjUAAAAAMBlKNQAAAAAwGUo1AAAAADAZSjUAAAAAMBlKNQAAAAAwGXKa2uqJUmhf+dTvmOWerxCxGQfiz9eIWKyj8UfrxAx2cfij1eImOxjdlRWVeY13nyl2KaFjlnq8QoRM9vxyienplVVVaXJqemsbjiR2prqvMYs9XiS8t6PhdjHUu9HjsXSiMmxWPzxpNLvx8XwvuEzNXvs2qvh/+ZYLP6YHIvFEY+pjwAAAADgMhRqAAAAAOAyFGoAAAAA4DIUagAAAADgMhRqAAAAAOAyFGoAAAAA4DIUagAAAADgMhRqAAAAAOAyFGoAAAAA4DIUagAAAADgMhRqAAAAAOAyFGoAAAAA4DIUagAAAADgMhRqAAAAAOAyFGoAAAAA4DIUagAAAADgMhRqAAAAAOAyFGoAAAAA4DIUagAAAADgMhRqAAAAAOAyFGoAAAAA4DIUagAAAADgMhRqAAAAAOAyFGoAAAAA4DIUagAAAADgMhRqAAAAAOAyFGoAAAAA4DLltTXVkqTQv/Mp3zFLPV4hYrKPxR+vEDHZx+KPV4iY7GPxxytETPYxOyqrKvMab75SbNNCxyz1eIWIme145ZNT06qqqtLk1HRWN5xIbU11XmOWejxJee/HQuxjqfcjx2JpxORYLP54Uun342J43/CZmj127dXwf3MsFn9MjsXiiMfURwAAAABwGQo1AAAAAHAZCjUAAAAs6PrURY39/KBuTn9S6FSARaO80AkAAFAMHv/edwudAlBgFyVvs6TmQicCFMyrr72et1gUagAAJOnUqVOFTgEAUCAbN27MazymPgIAAACAy1CoAQAAAIDLUKgBAAAAgMtQqAEAAACAy1CoAQAAAIDLUKgBAAAAgMtQqAEAAACAy3AfNQAAcmXpMpn3NEhLKqSly2TfvC7jxjXN/McvZFy/WujsAAAuRqEGAEAOGA89KmPF6ui/zf677O77pS/+IOtfjuU/MQBAUWDqIwAAWWTes05ma0dMkRZj+e0yWztkfq0lP4nBtayWTr38o0N6adeG5F9jbdDOAwf10oFONVtWDrMDUCiMqAEAkCXlS5ZoxjDDI2fJsGdfd+vmzVyllTbLqtdj3X+lTd74ezT8yk4d7ud332KVqI8Dffu0/9hInrMqHZa1Qbt6nlSDEd2+HDfOyu5s0Mo7q5J6rv3Zr/XZv32W44wKi3cIAABZ0PqdP5ev/q60XrtqjVdt3/uLhM8zyqQlKw0t85gqq0ilHATS423dw6hdmvzbunXg4I6YIk2SGrYf1s4W2hQLY0QNAIAsKCvP7JRqmqYMw5Bt287br5ZW/2m5yqqCX/rsGelS/4yufJz7L3u2Pa73fvi8jo86/b7Lb76lwKmPrZZOHdjeJMNo0hOdD2ng0NkCZpgfoX3OdCTRaunUM60+SbGjZ6FRTG/G2ZaemQvD+vTC3P9b1ird9vC9WqrPNfnzf9cNc3F93lCoAQCQoW9+qzXuY5Pn/km3PrsY9bfaB7+l8hWrYp77J63b9E8n3nTcTu1XyiRDunjyluwZaUWzqZr7zbwUaliczP4edSlYuKihWc3WaQ2U+Bflep8nK9tpWd8oKTh1dP4UR9Mc0fG9u8WPHEiEdwgAABlYVlGpFbff4fjY9dH/mCvSli6VXVEpSfqi/x81c2Uy5vnVtctVe9sKx22V1Ri6eUm6ednWrSlb1z+xVbYsO/sAxHVmQMO2Lckj/9pCJ1N8Lo5fSPykRcrf0q6dz3dra112fmyy6tr13IFu7dy2Qf4SmarLiBoAABn46romGQ7XoHxx5qRmLl3Sys1/luL2/kjnTv009gHDlmYi4jjPkCwoq65de55tlWeiTy92v6GRB7uCozGz7KEjenre9Dn/tm490+pznGoWmiL2iCcQNS0vUZzIqWahqWwL5TAXL3bhB6fnR8c/p+bZxTjswAm92P2Gxkwz7iIdC8UPbz+FnONuI8l9SUcy+x8vB8l5IY3QPodyjGmDedtOZ18XyvvI+036fpsv/Fxv6x693DqX7/n1f6OORiPulMj578nx8YDU6NO69Q9J/cm3eSptlvmxE7/vIrefKI9U32v+lk5tb2uU12vItscVSLJtkuNVQ+sOrdu8RR+8+47e7j3t+J4pFsWbOQAALlBR6bxC2cylS7LN1Bf8WDY76jZf5Ja8W8u1/BtlMpcaqnt8Scw/Kx4oSzlutvna90Z90ZYko3FHSkvQpxsntFCDf1t30jlYLZ2OCz8YjTsWXEyjuTO2GFtoJcVEbRA35xQW9Eh3Xxw92Dy7nQmNfRz7sNP+S4kX0ki5Dbxt+kFPV0zu2ey3hfS/1aeAbcuzeavjNlu+3SqvYeiDE8FiZ6T3HQ3bdkptnkmbpSNeG4Ru/TC/SJOkdR17o0bAUml/f0unnjtwUM9sb5J3Nu7E8KAGHN5Xafn4nPqGAwrYtgzDp4bWHfpBz96iHmFjRA0AgAzEK6wkyaiuSXl7FZXO25v80JIK9F3DMHza9NxhbZr393ijHIa3TU9sHtfJ/TvDv+SHf51v2KKtdafjLEySYl7eNj2xeVBHdz8fvnaqeddBdTQaWte2V2s83qjRhvAozbwcrLp27ekIXlM0f8QguL14i2k0qaFhSEd3H5i7dss0Z/spoJP75y3OERrNiNcGni3a3qCodgu9xms0qbX9Tg0kWOAi/X2JFTmiMvHucYfr05z336pr1/bNwaUy5o/2hBcoadyhnS2nY5eoT6ENstpv6tVTx+ONUpmSdU7DE63a5G3S+gelgf65rVnWBq1vkGx7UOfPBJ9ummd16If+cN4dBw/rCXtQP+k84HidX0ZtlpY4fRcxOmY75Nu8q1v+iJwTtf9/271F4+9/Sds7GuWdLeZsezx6tCtLI16mOaKBQ93qt+pV/+DW2VE7X3iEbWL4Hb3SU1wjbMWTKQAALnT92tW4j9nTU2ls75rz3yeC16UVA6cVBEd6f6yTgeAv3V7/Ai9OOU70F8n+nr8NjmR4fdK7fx09JezMccccQqMhTtO6QtsLLqYRXSkbXp8uHo394h1cLKI7phAzR3vVN6z4beCRhue1mznaq31Hh4IPNz2QcGQg7X2ZLcZf/tGh8D+hIs0eOuI43S/e/odycJqSZ/b3qOuVQUnSurbvxO5PCm2Q7X5biGmO6M0TwRzWrX8o+sHZUcf5xaw52qv9Xbv1Qt94MO5swfbS8+0x+51Rm6UhXhvUt28JFmmBE3rRoagcODT3vl6o/c/+qFe/s20Zje3BETTDkB0Y1/Ar+/R0V7cOHzubs4LJNEc01t+j/Xt364X9RzQcOuYbd+iZg4f13K7iGWFjRA0AgAzELdRqa2VMxi4YIkn2zC0ZZc6n4GtXr2QrtaxZcHl+py9bE7PTmczIp41obEKSV1rju1NSFm6i7BBHGlNgQlrnGdfwwIWoByNzCLGsevlnF/pr2H5YL293DmXbwcU0BkYj/zY3ghJPvGuOkt8fBRf06GjUOo9PPkljcWOlvy/Oz4s/AhR6fP7+h3Kw7dj2T2p/kmyDkRz3m6NQDhErYFpWvR5ra1xwf8eOdeupY3OjdcFpnL5w22bcZmmI1wY+X/DgCE3hjCfRey10m5HgLUfG9d7RH+t4f/5vnD42elaH956VVdeuXc+2qsEw5GnYoua1pzWW4P3vBhRqAABk4MNfDKn+rnukeV/EV36zTVc++qU+f/d/yDYNmdXLZcuQJoPXrtX80cNaekfsnZR+/cuhfKWed6EFFtzFL2+6K7JPjGvc4c8LXaO28PbGMhxlSH9f4hbjC+XjuP+hHGavaUt1d5Jug+z3WyKmeVZvv7tFDa0RUzDXPqAGj6ThdxJO5x071q2u3tB7I3JaZoZtlg6HNogsGAMJK8Hk298wfNq0fY8a1p9Q31tvaCAL056T5a/boEd3bFGDd+5zJ3xdXBHMKyz3rFktSQr9O5+qqpwvwCZe+vLdj4XYx1LvR47F0ojJsVj88aTk+vHalWldvvS5blt5e8xjVffcr+ujv5NxZVr25OXw32s3/FctuW1lzPOvTk/p8ud/yCzpIuXx+ZWVUbaUzY3Axb+pd0hy3+xaZhdpcJrGFrqGLjeyvy/pS27ULn2F2deRgUEFNnuDUzB7L8gXmv53/nRScUxzRG8e6VPDs63yzI7MzV3ull6bZfvYCU/NXTCP5NrfqtugXbOFkrexTR2NbXoiMKj3ThzP2QibZdWrpX2rWjdHXxc3MfyOXnnrtMZGs3NdnNP5IdvnqfKJi5/Is2a1Ji5+ktUNJ1JbU63JqWniZVG++7EQ+1jq/cixWBoxORaLP56UWj+e+p/v6NHH/9LxsZUPP5p0zJ/Gudl1KRsZn5Dkkzx++S0rejQlNFqRQ6HpkIbXp4bmO3V8NLMvj5ELS/T1Xoj6Qhg5XcxRnJtKh68bGhpY8LqqbO9LOkzzrM4PP6mGxgVymL2my3F/kmwDU4XZ1+B1hq16oqFJzWvH5G0ILqrzdjpTKUPbTLPNsn3sRE4NTnRbgWTfa2Z46uEGPfbtLdrU6JPhbdKm7U16pGM8qwt8WNYGPda9RZsiRs9iFi7JYtE+//yQi/NUEQz6AQDgcrYta2Yms01YluwkL3APHL+l0Vdvxv3n0rnMcsmrsfHgctreNm1vvzP8Z8vaoF3PtoZ/Ec+l/vPB6abe1j16blt91GOhpcp3tqS2+IAxu0Lh3HYST4c0jCY9MW8JequlM7yoxwfnTxdkX1K1YA4R90dz2p9U2iCX+7rQwi3954eCy7/vCBaPE4PnYgqN5l0HHRcNiXpfD88VXWm1WQ6OndBtCIzGHY75N++au0F1Ku1vjp7V8UPd6tq9T0eHxsNL6AevF0s5TWdr/WrwBKeThxYuebHz+ZwuXJJrXKMGAEAWnHj977WsokKq+2rKr/3800/0zmt/l4OssiPe8vxS5jdRDo1QdDRG32RYkgJ9R3Sy6Uk9kutRtf4eHV0fnJI4P4eQ4WS3FR4did0fO3BCJ4datSnO1Ed76ITe87Sq4+BhdcQ8diSpZdmzuS/pMvt79IIvuHBGvBwCffsc9yeVNsjFvoamNnq9bXrmYFtwG/NXNTxzXCfbGhZUrmMAACAASURBVLXJ61twARAjYhsx+2kP6ic9p8Mjrum0WS6OneAKm77g7QAc8rftcb33lsI5p9r+kUvoB6cnZvngnhjSychplUVaoIUUd/YAALjI9WvXJDvFJfRt6cZ15yX5F4uBQ7t1dCi63QJ9+7SvN9O17VLLoWv/CQXm9Z9tD+ro7tjlxxNtK7Qke3g7Q0f09N7eBKv1jenN7r/WyUB0DsOv7EypGM7mvqRr7Fi3unYfCS6R75CD03L/s69MqQ2yva+RtwKI+xxzRAODgdnEnBcRGTi0O7yk/nyBvn16uqsnZnpnOm2Wi2PH7O9R1+59MX0gSR8cjb4eLd32N80RDRzr0f6u2NtYpJ33aK/27+0pyOqSuWJ8+d77bK6LKf54EtfFlEI8jsXSiMmxWPzxpNh+fPx739WpU6eSfr358Hek6uXxn3BtWvbPXpdtF8f9fIBcCk3vy3SENh8ip7E63UMMpWvjxo169bXXHR/LxXmKqY8AAOSA9fM3ZNTcJuPLTbKXVspYVinduCb7xlXZHw1LXyzO1R2BovfgVm3yGhkvIgIkQqEGAECO2FOXZQ/9LPjfBc4FQOYsa4N2dTRKSnxTaCBTFGoAAADAAvzbusMrT0rJL+4CZIJ3GAAAAJCkYriODqWBETUAAAAUlNnfo6f6C51FfGPHuvXUsUJngcWGETUAAAAAcBkKNQAAAABwGQo1AAAAAHAZCjUAAAAAcBkKNQAAAABwGQo1AAAAJFS+3F/oFIBFheX5AQBI0saNGwudAlAQt5asVKDuL1X3+x/JsGcKnQ6wKFCoAQCQhFdfe73QKQAFc/ej3Vp990r9v7+xdfF9jgUgH5j6CACAC9TWVJd0vELE9KxZndd4Umn247IV9brjG1slSXUbd8ooW5LzmJHy3Y+L4djgWCwOFGoAAACIy/fH35dhBidhldd4tLqhvcAZAYsDhRoAAAAcRY6mhfi+uSPvo2rAYkShBgAAAEeRo2khS5f7GFUD8oBCDQAAADGcRtNCGFUDco9CDQAAADGcRtNCGFUDco9CDQAAAFEWGk0LYVQNyC0KNQAAAERZaDQthFE1ILco1AAAABCWzGhaCKNqQO5QqAEAACAsmdG0EEbVgNwxmpqa7KqqKl25cqXQuSBD9GPxow9LA/1YGujH4kcfpm7pbXX60l/+30kXapJ0a2pCv/3vfyZ75mZOcqIfix99mJ7yyalpVVVVaXJqOq+Ba2uq8xqz1ONJyns/FmIfS70fORZLIybHYvHHk0q/HxfD+4bP1NTd/Sf/S0pFmiSV13hUcc8juvj+q1nLI1KpH4uFiMmxWBzxmPoIAACAlK5Nm49r1YDso1ADAABAStemzce1akD2pXc0AgAAoGQYZpmuXxrV2M8POj6+tHaN7mj6ji7/8pim/zDm+BzbvpXLFIFFh0INAABgkbOtGY3/8+G4j9f4vqE7mr6jS788pou/7c9jZsDixdRHAAAAAHAZCjUAAAAAcBkKNQAAAABwGQo1AAAAAHAZCjUAAAAAcBkKNQAAAABwGQo1AAAAAHAZCjUAAAAAcBkKNQAAAABwGQo1AAAAAHAZCjUAAAAAcBkKNQAAAABwGQo1AAAAAHAZCjUAAAAAcBkKNQAAAABwGQo1AAAAAHAZCjUAAAAAcBkKNQAAAABwGQo1AAAAAHAZCjUAAAAAcBkKNQAAAABwGQo1AAAAAHCZ8tqaaklS6N/5lO+YpR6vEDHZx+KPV4iY7GPxxytETPax+OMVIib7mB2VVZV5jTdfKbZpoWOWerxCxMx2vPLJqWlVVVVpcmo6qxtOpLamOq8xSz2epLz3YyH2sdT7kWOxNGJyLBZ/PKn0+3ExvG/4TM0eu/Zq+L85Fos/JsdiccRj6iMAAAAAuAyFGgAAAAC4DIUaAAAAALgMhRoAAAAAuAyFGgAAAAC4DIUaAAAAALgMhRoAAAAAuAyFGgAAAAC4DIUaAAAAALgMhRoAAAAAuAyFGgAAAAC4DIUaAAAAALgMhRoAAAAAuAyFGgAAAAC4DIUaAAAAALgMhRoAAAAAuAyFGgAAAAC4DIUaAAAAALgMhRoAAAAAuAyFGgAAAAC4DIUaAAAAALgMhRoAAAAAuAyFGgAAAAC4DIUaAAAAALgMhRoAAAAAuAyFGgAAAAC4THltTbUkKfTvfMp3zFKPV4iY7GPxxytETPax+OMVIib7WPzxChGTfcyOyqrKvMabrxTbtNAxSz1eIWJmO1755NS0qqqqNDk1ndUNJ1JbU53XmKUeT1Le+7EQ+1jq/cixWBoxORaLP55U+v24GN43fKZmj117NfzfHIvFH5NjsTjilWd1awAAoGg8/r3vFjoFFIlb5bWa+uxnqm+5X+V/dGeh00ERefW11zVx8ZNCp1GUKNQAAFjETp06VegUUDROFDoBFJmNGzcWOoWixmIiAAAAAOAyFGoAAAAA4DIUagAAAADgMlyjBgAAkldRLWOVT6qslcrKpZvXZU9flj4dlWZuFTo7ACgZFGoAACAhY5Vfum+9jJVrYh+TJGtGmvi9rF8NSFcm854fAJQaCjUAABCfWSbj/m/KqL8v4fPku0em527Z//r/yf74w/zkBwAlikINAAA4M8tktmyWbvem8BpTxjf+WKqolv3r87nLDQBKHIuJAAAAR8b930ytSIt87b1NMvz3JH5embRkpaFlHlNlFUZasQCgFDGiBgAAYhir/ImnOybaxtcfkn3xY+nWTcfHy6ql1X9arrKqYIFmz0iX+md05WMro7gAUAoo1AAAQKz71sd96ProR7o+8bGsqcsyyspVvsqjyru/LrOiKvqJSytk3HW/7N8OOm6n9itlkiFdPHlL9oy0otlUzf0mhRoAiKmPAABgvopqGStXx/7dtjU1eEpTvzgjQ9JS310qX3GHbkyMaPrD9x03Zfi/FDdMWY2hm5ekm5dt3Zqydf0TW2XLsrQPAFDkGFEDAADRVvk0u+h+lGujv9WNiyO6reU/qzzi2rWqGeepjZKkmpXSskrp+tXYxwxbmomIY2eQMwCUGAo1AAAQxaiscfz7zYkRLbnDH1WkSZJRtmThDVZUOxZqhuZqM+/W8vBiInWPx25v+j8sXTo3kzD3bLKsej3W/Vfa5DVk2+N674fP6/ho4slIlrVBu3qeVINhyA6c0Ivdb2jMzN8kpsi8nQT69mn/sZG85VNqIvs30vArO3W4n8lqyB7eTQAAIFr5Usc/z1ydllFZnbXtTX5oaerX+S2+0mHb45qY8Kqh+c6knl/fvkXrJgIK2O4cIvS27tFLBzrVbHEtYKr827p14OCOmCJNkhq2H9bOFtoU2cOIGgAAiOY0TVFSee0KzVz6VLJtyeGLalw3rjmHmXBnIRNrQhcnvFq3eauaew9oYIHRMcuqV3OTVxMTQ5InvVsbZIvTKKDV0qkD25tkGE16ovMhDRw6W8AM8yO0z5mOJFotnXqm1ScpdvQsNIpZ2B5HqWFEDQAARLGvfOH492V33qdbX/xB0x+elz1zK/z3G4Hf6+rvP3TelmVJVydzkmc+nX+rTxNqVGt7glG1B7fqEU9Aw+fH85NYisz+HnW9MrsKZ0PzohhVq/d5srKdlvWNkoJTR+dPcTTNER3fu5upj8gq3k0AACDaZ2OSFTslccnKNar+WrOuX/iNPv/p/6NLp97WH/7hNU0O/YtmLn0WHGmb7/NA3PuoFZWPz2l4QvI0PSB/nOLGsur1WFujNPyO3hzLc36pODOgYduW5JF/baGTKT4Xxy8UOgUsEkx9BAAA0W7dlB34nQz/l2MeqrjrK1pyh1c3Ph3XzNRllVVWa8ntHpWvuMN5W6O/yXGy+XJBb54Y0qbtbXr0wTd0uN/hKWsfUINH+uDEaUnfibuleIt92ENH9PS8qYihaXuhx0L/H35NlhYrseratefZVnkm+vRi9zk1hxZRmbf9VBbSyCR3pziO7bNA3kfeb9L323zh53pb9+jl1rl8z6//G3U0GnGnREZv+w2NjwekRp/WrX9I6k9+ymgqbebf1q1nWn2OOYXeN494AlFTWpPtu8jtJ8oj2fZHbjGiBgAAYti/GnAcVZOksurlqrzrq6q5f4Mq77k/fpE2+QfZY7/NYZZ5NjsStW79Q44Pt3y7VR4N6fyZ+JtYaEVGo3GHXtq1Ie5r/du6owodSTK8bfpBT1dqUxgfbJ79Aj6hsY9jH27udM4v0UIa2crdaul0jGM07lhwEZR4ecfT/1afArYtz+atjtts+XarvIahD04Ei52R3nc0bNsJ84iUSZulI14bWNYG7TxwMKZIk6R1HXu1tW5uX9Jtf2QfI2oAACDW1SnZ/3ZGxv3fTO/1t27KGvyZ83RIB4HjtxI/qcBM86zODz+pdQ1btLXudPQiHXXtam2QJt49vuBiI0EBndz/fMzr9zzbKo/DtiVJni3a3iCd3L8zZiTFazSptf1ODSSxUEbkiIpzrk1qaBjS0d0Ri6aYpqy6dm3fHFwqY/5oT3iBksYd2tlyOvY6rRRyt+ratacjeC3Y/JGe5l0H1dEYbxEUh7zVq6eOxxulMiXrnIYnWrXJ26T1D0oDEaOklrVB6xsk2x4MFt5msP8P/dAfzrvj4GE9YQ/qJ53OC8xk1GZpidN3kbeLcMi3eVe3/BE5p9f+yAVG1AAAgCP7wr/L/s37qb/w1k1Z5/9Bmvo8+0kVWP9bfZqQV498O3pUrb65SR4FNDyw8PVLwUUnumMKMXO0V33DkmH45PU7vNAjDc9bwdEc7dW+o0PBhx2unTMMnzY9d1gv/+hQ+J9QkWYPHXGc7md4fbp4NLbwCI0uOU3Ji1ygZF3bd2Kv4Ush91Acp+l4/T1/G7y2zmERlHh5L8Q0R/TmiWAOMaOks6OO84tZc7RX+7t264W+4GIxxmzB9tLz7TH7nVGbpSFeG9S3b5m7p59DUTlwaO79mG77IzcYUQMAAHHZv35fmr4s4+sPSUsrEr9g8g/BkbQSLNIkzS4q0qpHGprVbJ3WwOyIxaObvdLw3yZ1Q+yQeNcuOZoY1MDHiv2J/cyAhjsatc7jk09SojVMnEZU5j8eGkGay7Nefk9wuf9gIerw2oXySDL3kdk4UnBa4Mvb4+1DcBGUgdGF805KKIeo/gwuCrPQ/o4d69ZTx+ZG64LTOH3hts24zdIQrw18vuCoXmgKZzxWBu2P3KBQAwAAC7LHPpJ9cUTG3f9Jhu8eqWZF9OOWJX0+IY38Svb4R0lPdyxGoVGYTdvnpuyFRiyGz59WokphoWvUFjQxlvKCIU73UZvdiQXijCv2xgJ+eT1S+Jq2VIuhpHMPxUmDY96JmeZZvf3uFjW0RkzBnF0URsPvJCy8x451q6s31KeR0wIzbLN0OLRBZMEYSFgJZtD+yAkKNQAAkNitG7J/Myj7N4MyllXJrqyWYZbLvnlNujot3bpR6AzzJzQSsnmrmnuPy9/klR04obeTGNFpmV3swWk6XPAaoBQLuLzK9UjKmAIT0jpPnAIzSvYqn5GBQQU2e4NTMHsvyBea/pdE4S3NFu9H+tTwbKs8syNzc5e7pddmHp9fUvo3554vPKV2wTwK0/6Ij1YGAAApsa9fkS59IvsP49Lk54urSFNoFCYgw2jS+s6t2uQ1NDF4LuGoUeQCFX29F+Y9NjftzFGc64JCo3kaHkjp+qxUBBdRCX7Zb2iOc8Pv0EqSTnkkmbtpjmhsIkGcHAhdHyhPk5rXPhTso1Dhne4202yzkfGJ4GMef+x1a6GRvpTyCLap5HAdXpzn5rv9EV+5Z81qSVLo3/lUVVVFvCzLdz8WYh9LvR85FksjJsdi8ceTFkc/Ij2hUZiGxqa5wivJQsmYv9JhEtMhDaNJT/R0SRHXl1ktneHFQT5IcvQnXf3nh9TR2CRv6x49J+cVDOPlkUruC8aZvaZPR//XtFZJDI2YORXUobgNO7YEFwBxKLybdx3UE56+mHuTWdYG7Xo2OApnD80VXWm12di4AnajvN42bW8/F35NVIwUZxb3v9Wn1oZWeRt36KXn/TH5N+/qlv+t4AhaTtuf7zcpK5+4+Ik8a1Zr4uInWd1wIrU11ZqcmiZeFuW7Hwuxj6XejxyLpRGTY7H440ml34+1NdV5i1WKgqMwrepoVNKjWaHl/Rsao2++LAVHcE4OtWpTnKmP9tAJvedpVcfBw+qIeexIlpZ3j8/s79ELvuDCGfNzDwn07XPMI5Xczf4eHV0fnAIaL85wirmHimqvt03PHGwLbmP+qoZnjutkW6M2eX0LLgBiRGwjZj/tQf2k53S4YE+nzSLfV/NfE+g7opNNT+qRVEfVRnu176gveDsAh/xte1zvvaVwztlu/xC+36SOqY8AAABp6D8fXNo9OCKSnIFDc0u7h9hDR/T03t4Eq/6N6c3uv9bJQPRwyvArO/V0nu5pNXasW127jwSXaI9g24M6unun43L/s69MKfeBQ7vVtf+EAnHipFqURt4KIO5zzBENDAZmE3NeRGTg0O7wkvrzBfr26emunpiCPZ02Gzi0W0eHop8f6Nunfb3prwtp9veoa/e+mD6QpA+ORl+Plu32R/qML997n82v+MUfTyr9X38LEbPUR2Kk0m/TQsTkWCz+eFLp92NtTbVaW1t16tSpvMVE6kJT5OyhI3kryLKlmHKPnH7qdA8xpGfjxo169bXXCxK7FM5TvAsBAACwuD0YXBQm00VEgGyiUAMAAMCiZVkbtKujUVLim0ID+cR91AAAALDo+Ld1h1eelPKzKAuQCt6NAAAAWNSK4To6LD6MqAEAALiU2d+jp/oLnUV63J772LFuPXWs0FkA8TGiBgAAAAAuQ6EGAAAAAC5DoQYAAAAALkOhBgAAAAAuQ6EGAAAAAC5DoQYAAAAALsPy/AAALGIbN24sdAoAAAcUagAALFKvvvZ6oVNAsTAMeZr/XBPn/r7QmQCLBlMfAQAAsKCV9/0Xrf3W/6Glt9UVOhVg0aBQAwAAeVFbU53XeJ41q/MaT8r/PuYlnmHI/3CnDLNcd/9pZ+7jzZPvfsx3HxYi5mI4FksBhRoAAADiWnnff1HVmvskScu/1saoGpAnFGoAAABwNjuaFv5fs1x1f/z9AiYELB4UagAAAHAUOZoWsmrdNkbVgDygUAMAAECseaNp4T8zqgbkBYUaAAAAYjiNpoUwqgbkHoUaAAAAosUZTQs/zKgakHMUagAAAIiy0GhaCKNqQG5RqAEAAGBOgtG08NMYVQNyikINAAAAYcmMpoUwqgbkjtHU1GRXVVXpypUrhc4FGaIfix99WBrox9JAPxY/+jANhqEv/fl/17JVX076JZf/9bjG/+GFnKVEPxY/+jA95ZNT06qqqtLk1HReA9fWVOc1ZqnHk5T3fizEPpZ6P3IslkZMjsXijyeVfj8uhvcNn6mpW/mVb6VUpEnS8q+16Xf/1KMbl0ezlkekUj8WCxGTY7E44jH1EQAAAElfmxbzMq5VA3KCQg0AAAApXZs2H9eqAdlHoQYAALDYpTmaFn45o2pA1pUXOgEAAAAUlmGY+s1rT8d9vGrNV3Xv9/4vjb79A332+yHH59jWTK7SAxYlCjUAAIBFzrZmdP3yWNzHl1TdLkm6Nf3pgs8DkD1MfQQAAAAAl6FQAwAAAACXoVADAAAAAJehUAMAAAAAl6FQAwAAAACXoVADAAAAAJehUAMAAAAAl6FQAwAAAACXoVADAAAAAJehUAMAAAAAl6FQAwAAAACXoVADAAAAAJehUAMAAAAAl6FQAwAAAACXoVADAAAAAJehUAMAAAAAl6FQAwAAAACXoVADAAAAAJehUAMAAAAAl6FQAwAAAACXoVADAAAAAJehUAMAAAAAlymvramWJIX+nU/5jlnq8QoRk30s/niFiMk+Fn+8QsRkH4s/XiFiso/ZUVlVmdd485VimxY6ZqnHK0TMbMcrn5yaVlVVlSanprO64URqa6rzGrPU40nKez8WYh9LvR85FksjJsdi8ceTSr8fF8P7hs/U7LFrr4b/m2Ox+GNyLBZHPKY+AgAAAIDLUKgBAAAAgMtQqAEAAACAy1CoAQAAAIDLUKgBAAAAgMtQqAEAAACAy1CoAQAAAIDLUKgBAAAAgMtQqAEAAACAy1CoAQAAAIDLUKgBAAAAgMtQqAEAAACAy1CoAQAAAIDLUKgBAAAAgMtQqAEAAACAy1CoAQAAAIDLUKgBAAAAgMtQqAEAAACAy1CoAQAAAIDLUKgBAAAAgMtQqAEAAACAy1CoAQAAAIDLUKgBAAAAgMtQqAEAAACAy1CoAQAAAIDLUKgBAAAAgMuU19ZUS5JC/86nfMcs9XiFiMk+Fn+8QsRkH4s/XiFiso/FH68QMdnH7KisqsxrvPlKsU0LHbPU4xUiZrbjlU9OTauqqkqTU9NZ3XAitTXVeY1Z6vEk5b0fC7GPpd6PHIulEZNjsfjjSaXfj4vhfcNnavZcM36vJT8/qJvTn3AslkBMjsXiiFee1a0l6fHvfbcQYQEALvHqa6/nLRbnHCBbLkreZknNhU4EKAmJzoUFKdQk6dSpU4UKDQAooI0bN+Y9JuccAICbJHMuZDERAAAAAHAZCjUAAAAAcBkKNQAAAABwGQo1AAAAAHAZCjUAAAAAcBkKNQAAAABwGQo1AAAAAHCZgt1HLVVlFYaWrjJkVkpGmWTflG5N27rxqS17ptDZAQBKSkW1jFU+qbJWKiuXbl6XPX1Z+nRUmrlV6OwAAIuA6wu1pasM1dxnaslKw/Fx25KuT9ia+tWMZq7kOTkAQEkxVvml+9bLWLkm9jFJsmakid/L+tWAdGUy7/kBABYP1059NExp+TpTKzeUxS3SQs+r8Bm64+FyVa517e4gx6yWTr38o0N6adeG5F9jbdDOAwf10oFONVtWDrMD4HpmmYx1D8vY0OpYpEU+T757ZD78XRlrv5q//FDyOCcBmM+VI2qGKa1sKdOS2+MXaDFMafk3TJVVSFO/dt8HnGXV67Huv9Imb/x9Gn5lpw73U2wWm0R9G+jbp/3HRvKcVemwrA3a1fOkGozo9uV4ia/szgatvLMqqefan/1an/3bZznOyOXMMpktm6XbvSm8xpTxjT+WKqpl//p87nLLEMdPfK47L6/1a40kw2jS+gelgf78hF3MOH/nFp8/mXNlK9Xeb6ZWpEWovtdUhT/xbhll0pKVhpZ5TJVVpBcLSIa3dQ+/kKbJv61bBw7uiPmQl6SG7Ye1s4U2ReaM+7+ZWpEW+dp7m2T470n8vAKcczh+iszHY7ooybYHdf5MoZOBxPk7E3z+ZIfrRtSWrjJUWZ9Z/Vj7dVPXL1qy41zvXVYtrf7TcpVVBd889ox0qX9GVz7O/ZvGtsf13g+f1/FRp310Zd2cM1ZLpw5sbyqZX6yc+ja0j4bRpCc6H9LAobMFzDA/stWvVkunnmn1SYr99S30K2h6X61L38yFYX16Ye7/LWuVbnv4Xi3V55r8+b/rhrm4PmsWYqzyy6i/L7NtfP0h2Rc/lm7ddHy8EOcctxw/xfA575bzsmme1eGus6H/yVvcUpfMe5DzdxDnb/dxXaFWc1/8D6eLQ5d1/dLcifC2u6u0/K7Y6T3mUqnqLlPTv3U+CdZ+pUwypIsnb8mekVY0m6q538xLoYY59T5PoVPIObO/R10KfvCpoVnN1mkNlPgJOFv92rK+UVJw6sn8KRKmOaLje3drsf24gRy4b33ch66PfqTrEx/Lmroso6xc5as8qrz76zIr5p13llbIuOt+2b8ddNxOIc45bjl+FsPnPNwt3fcg5+/0ueXzpxS4qpXKKowFFw5Z+ZVaVaxaplvXZnTbPdWq9lfEfW6FP/52ymoM3bwk3bxs69aUreuf2CpbllHqQHxnBjRs25I88q8tdDLF5+L4hcRPWqT8Le3a+Xy3ttZl5wu/Vdeu5w50a+e2DfIvhqk+FdUyVq6O/btta2rwlKZ+cUaGpKW+u1S+4g7dmBjR9IfvO27K8H8pbphCnnM4foAMcP7OCJ8/mXPViNqSVQkerzRVdccSTY1KNd4KmUviF2PlNYbMZZJ13eFBw5ZmIl5rp5dvLll17drzbKs8E316sfsNjTzYFfxVZ5Y9dERPLzAM79/WHR52Dokcfo7e/jk1z15MawdO6M1Aq9qbjLhD3/FyC+UUGjoP5xo4oRe739DY7C9R83Pztu7Ry60OOca5yDfRvkuKzSGJ18Rsw+Ei2HS247jtBdo/sq1SuRA3tM/J9kM6+7pQ3kfeb9L32+L36/n1f6OOxuTfV+PjAanRp3XrH5L6k2/zVNos9F50yin0/nvEE4iaEpNs30VuP1Eeqb7X/C2d2t7WKK/XkG2PK5Bk2yTHq4bWHVq3eYs+ePcdvd172vE9UxJW+TS76H6Ua6O/1Y2LI7qt5T+rPOLataoZ56mNkqSaldKySun61djHCnDOSeX4ad51MKVjc8w0HT+fI4+BZD/npXQ/f2LPi1HnjyycAxK1Q6LzcsJ2DX1mz7bbiB7Srp4ntU5D+knngfDoTU7OF2l8x8hV+2er/+e/JpX3YCo4f3P+TpRztr4rSm4bUavM7gXWZpwBt8go3q3lWv6NMplLDdU9viTmnxUPlGU1p3T42vdGHbCSZDTucFyKPrS87/w3lySt69jr+Mt7c2f0yfZf3zqhgG3Ls3mr4wW0Ld9uldcw9MGJ2A8N/7bu2Fy9bfpBT1dKF+MutBJTvH1fMIfGHSldEGy1dDpeBJvqdiRJDzbPbmdCYx/HPjy//UMSXYibchvE6Yd09zVe3vH0v9WX0vtqpPcdDdt2Sm2eSZulI14bpHIcptL+/pZOPXfgoJ7Z3iTvbNyJ4UENOLyv0vLxOfUNBxSwbRmGTw2tO/SDnr0lO8JmVNY4/v3mxIiW3OGPKtIkyShbIqNsSfwNVlQ7x4n473ydc1I5flI9Nq26du3piX3vG942bW+/M6U8L7jUpwAAIABJREFU0/38cTovhhYoiHsOyOLxn8x5uf/8kCTJ0/RAzPFjWfV6rC04PczpXBpPLs4XqXzHWOg16bR/Nvs/230sifP3LM7fQZmcv9PlqhE1M8vZmOWGnH66nPzQkgr0ncMwfNr03GFtmvf3eL+WGN42PbF5XCf37wz/IhCu8hu2aGvd6blfCiKqetsejPpFTpKad3XLH5NRkxoahnR0d8Svd1a9hifatMkbu0SwZW3Q+oaIVaki0/Vs0fYGReUa+vXCazSptf1ODRwb0dixbj11LN6vIZEbDOjk/nkX94Z+DZm376nmsBCrrl17OoIn0Pm/ngR/IU3+wuLIX2Qm3j3uML89tv01+0Vo++bgl8T5vxaFL3Bu3KGdLadjfxVMoQ3S31eHvNWrp44v0K/WOQ1PtCb9vjLNszr0Q384746Dh/WEw/s6vI1M2iwtcfouheMwmfb/b7u3aPz9L2l7R6O8sycD2x6PHu3K0oiXaY5o4FC3+q161T+4dXbUzhceYZsYfkev9JTQCFv5Usc/z1ydVvmqNC51j7O9QpxzUjp+Pk7t2Ax9KXM6zvbMfrdJ5nM+3c+f4HlxUEd3Px/el9Do1bq2vVrj8UbFC49OxDlv5Oy8fOa4TrY16hFPk5rXvqGx0YiNrH1ADZ5gjLfnn0vjyv75IpXvGNlu/8z6P3HOyX/XcMb5m/N3pufvbCxC46qz7YzTNMUMWDec55dcnwheI1AMnFYiGun9sU4Ggr94eyMqr/r2LcE3V+CEXnQ4GAYOdTt84Pp08Wj0c01zRG+eCP4SuG79Q9EJzf665Pih5ZGG5+VqjvZq39H4vyrGE7zYNDZfc7RXfcOK2fds5hD6EuI0xN3f87fB+eoNzTG/lIRO9i//6FD4n9CHvD10xHG6gFP7R+bgNKRv9veo65XgogXr2r4Tuz8ptEHa+xon74Wk874yR3u1v2u3XugbD8ad/cB/6fn2mP3OqM3SEK8NUjkOF2r/sz/q1e9sW0Zje3AEzTBkB8Y1/Mo+Pd3VrcPHzuasYDLNEY3192j/3t16Yf8RDYc+bxp36JmDh/XcrhIZYXOapiipvHaFZi59KtkpniduXHMOU6BzTrLHT7qf+fOvPzH7e1JaKS7dz5/geTH62Ao93/D6pHf/OjqPM8cdz5npSva8bJojGhgMyDB8euTb0e1a3xw8picGzyV9HOfifJHKd4zo12Te/pn1f2o5J8L5e2Gcv4OSPX8v1P6pctWI2syV7J3IbMvWjPM5uKAWXAbY6aCZmJ3WZEY+bURjE5K80hrfnZKCb2qfL/hrRCrTKBxHxqTgBbQdjVoXsdJRaKqGbY9reOBC7Iscco3alscnn6SxpDKbE2/OsqMMc7CsevlnFz1q2H5YL293fp5tBy8sHhh1fnzuefF/QQo9Pr/9QznEbedE+5NkG4xksK9x3zeJpPO+Uuyv88FpIL5w22bcZmmI1wbJHoeJ3mv2bJFgGMHr0N47+mMd78//8uZjo2d1eO9ZWXXt2vVsqxoMQ56GLWpeezp6hKAI2Ve+cLhCTVp253364uw/aPrD86q6r1FGWfBUeSPwe81cv6bKu74auy3Lkq5O5jjj9CQ6fiSldGz2nx9SR2NT+H2bzlLeGX3WOn7GjSkwIa3zxH4GRJ4znWPk7rw8MjCowGavPFHtukGPbvbKtgfV13sh6RHxfJ0v4u3LQq9Jtf2z3f8Jc04D5+84OXD+zvp3xYW4qlC78Zkt25KMOG0zHbimy78PVl+f/dukbru7SkuXO+/Czc8V9z5qpSB0oWZI5Bs9kMo7eGJc4w5/Ns2zevvdLWpojRhqn52qoeF3nE9oE2NZ+4V/oWvUFpRxDn5501ydNu7JfqF8HNs/lMPsnPhUdyfpNkh/X+O9bxJJ630VYexYt7p6Q++NyGkFGbZZOhzaILXjMPn2NwyfNm3fo4b1J9T31hsaSNBO2eSv26BHd2xRg3fu8yZ8XZyr5mSk4bMxyZqRzOjrwpasXKPqrzXryofv6/rIRzIrqmRdvyr71k0t894l3WlL8384+jwQ9z5qbhH/+Ent2DT7e9R1Zu4zOrTwwEILHsTK4PPHpeaflyU5TyudHYGwhwZSW+49F+eLOBz3Jauy3/+Z5Mz5OzHO35Hy9/nlqkLNviVdD9hxl9a/ecXSkqoyLamqlCTdum7J+YoA6dpocUxtzLbwsH8WfukO/xLY9ID8vRfkCw3znj+tXB9JLbMXeTr9UhuaC58bc78Kxr8BakiuP00y/yVmYYXZ10zfV6Y5ojeP9Knh2dbwr9Rz0+XTazOPz69s/AIbktxxmFz7W3UbtGu2UPI2tqmjsU1PBAb13onjORths6x6tbRvVevm6OviJobf0StvndbYqFkaN+S9dVN24Hcy/F+Oeajirq9oyR1e3fh0XDNTl1VWWa0lt3tUvuIO522N/ibHyWaH0/ETKhZSOTZD90I6rohraLxt+kHnWJKrnbnpszZ3QlPGNm1vCq+A17I+OALx3lvZPJfm+nyRbaXe/5y/HTNZZOfvoMza33Xv/qlfzciOM51zxT1VWr1uefifqtXOZdqtSenqWAlcP5GC8LC/HOYPp7vN2evB5GlS89qHgheLhi58dhJnLm5ozq+Gk/v1MPLC1L7eC/MemxtuzkUOoXY0DJ8amlNbvSxbTPOszg8nyCG0EpXT/iTZBoXa15TfV8lsM802GxmfPWg8/th576FfClPKI/njMNn2N0fP6vDebnXtP6KTQ7Nz/b1N2rR9z//f3r0HR3Edeh7/9UhC0kjCvGckwBA/49gWCjLYG+Oq3EoZi9zYoeKktm7V7gbs9QKhnP3nbm0eaxdl4pvsP1u1STmC9eKQrb3/XCe5+JGY4E3tzYYkGCwi4SS28SMx6DECzEvvV/f+MWppRtM9mp5Xt2a+nyrK4Jnpc/qc0+f06fNoff+5fXldL2aam/Xw0/v03IGntKNtel2c1aczRw/pe3ue1rMHT8Y7aSXEOtsRH1VzUFG3WLXrblf9nZtVe9Od7p20gcuyej8oYCyLI9trM9RzRPv3eFuTEYS6tmjsd3E1t6p19Xa1NWt2iluOcm4vfFKq+U/7ncUxS7j9zodgXLEJpkakwbezv+mwJqVrnVMZv6cm9sqkel6ccP1z9U3nBjyI7O1TjQ2POy7WbN3l/cW4p053xQvi4/FKIt3CZ8No0VfnbB9rbtozsyD3rdMnHH/ntsGHMb3D0cyxMpgOmW0cEtlbKkfbntK3H1mT9Jm9besTmwr7ICBtHBLer+J0Pl7SoJDnmm7jlkzKVeuuA47l2DQ3a9e34k/xEivtrNKsty9+zczZVjwpDI+8XIde0j/Uc1KvHNynvbv363BX38wW+vH1Yp6j6Wxtk5oj8Tn69sYl39vzdEE3LvHdyKCst3O4y5ickNn564w3HilWm+P1+rHNd22a5ho97PSS9ZltzJ051QdBqGuLYfZGtEUbv9Do+nqbbOXSXvip2PnvZUOzXNB+037ns/xWRlatlCTZ/w2C4XOmQtVS3S3eKjFrUrp6ekqTg8Gd9ui2DbCU+wvy4jsDNca3MY1u0zcPbEs+vtWn11/1eNDp7YW3RhvTL/SUZHW9ptcjbdpx4HntSPnsUMquOPYQejQhrvHdc07q9JnH1Lwh+aWLUvzJzbGuNm11mfroNQ5OQqfadXhjfHrl3PBtZ+Y9Sm5Cp9r13cb4wlu3OMSO7nc8Hy9pUIhzdc/XhLhmWK6cyvHMuVid+nH7iZkpeNmkWfzpYJt2OJS12NFDOtbymB70+lTOw3WYTfonbqEfn56Y54ny/V06ljitsoAdNK/tTjgcLkg8rHPvSNW1Mm75tLcfTk7IPP0rafBKQeKVKy/Xz4yMrs2oazs2d+e3dPVBEOpaqbDtsu3Uq0fV1tym5g0t2W/m4CKX9sJPxcr/jNqkPKL9jqP99pb+bu1hqP/CRUlS/4WLRfuTicH3TF3rMmWOZ3aCkwPS5d9Pafzj4HbSiiF0ql17d+/XsVhqOrx1eL55tA7Hm95eWFIGi0V79dK+76SEfeZHTzg2dIlbzs7VcXB2S1eb1XVIX3/myDy7/XiLg5uOg7u199n4i7+T4mB16vDuwlXwiXpf3qe9uw/Fp8w4xMF9lzVvaZDvc02XrzPfyaBcdRzcPbMl71yxo/v19b3tKaMB2aRZx8HdOtyV/P3Y0f3afyT7faW8XIfZpn8o1K2Ol9v17N7U11hkHe+eI3r2mfai7S7ppd0YHh4uaJtjvfcHWV3/4rrFfoqByzJ//2p8Q5IAyub6kea/NkOhbr2074WMr7H56oMg1LVFcf5NnZmeVuX8Tq7cZN9e+KsY+Z9Jm5RvtN+0317T3639Mm6+5VYrsmplxo1ZPnzly4/q+PHjGX3XqJTq1odU3Wiosj55FMUyLU1ckUa6TY32WRlPd0TmEqcbuj2Bsoel8/XkEdlZSPmQSblC6dqyZYte/MlPPf2mob5OA4NDWYXnpc1R5SIZ6z8lo/EmqX5J0keWaUpX+qXus7L6PvT+nrUFgGsTKD7a7/KUSVsYqF0fnViT0uD7pgbflyqqDYVq49v3mxPx96SV8hb8gXDvw9oaNWYXi3I9Ih8oVwiqyXFZ73fKer9TRnVYVm2djFClrIlRaWRImsxwmsdCxbUJIB3qiKIKfEct0dSYpakxv2NRPkxzs3bt2CDJ20u0gXQoV1gorLFhaWy4bCZrcG0CSIc6ovgWVEcNxWG/Pd6W6SYcQDqUKyCYuDYBpEMd4R9SGWkthPnSWHgoV0AwcW0CSIc6orgCv5kIAKC0BHozEQAAiiCTtpARNQAAAAAIGDpqAAAAABAwdNQAAAAAIGDoqAEAAABAwNBRAwAAAICAoaMGFJvhdwQAAMiCUeF3DICy4tsLr7ds2eJX0IBvxmoGZYYmVTu8xO+oAGWFNgfIjWlU6ePIF7Qy9s9+RwUoG768Rw0oV5/+u5tUWV2hN3/8nizL79gAC0cu71EDkLvI5n+rGz/393rnf+/UwPnTfkcHKAu+TX1sqK8jvDyLrFpZ1PD8OMeFnI/LPtGg+lW1qrlhkSJ3OI+oFTsPpYWdpkENk2uxNJR6PpZDuaFOzY9QVa0a79spSbrxs3sLHt5cpX4t+hEm1+LCCI81akCRrLtvtpJau3mlDNaqAQAWgJWf/rKq6pZLksJr7lHD2o0+xwgoD3TUgCKwR9Ns6UbVAAAIisTRNFvTlt0+xQYoL3TUgCJIHE2zMaoGAAi6xNE02+L19zKqBhQBHTWgwOaOptkYVQMABJnTaJqNUTWg8OioAQXmNJpmY1QNABBUTqNpNkbVgMKjowYUkNtomo1RNQBAEKUbTbMxqgYUFh01oIDSjabZGFUDAARNutE0G6NqQGHRUQMKZL7RNBujagCAIMlkNM3GqBpQOHTUgALJZDTNxqgaACAoMhlNszGqBhQOHTWgADIdTbMxqgYACAIvo2k2RtWAwqCjBhSAl9E0G6NqAAC/eRlNszGqBhQGHTUgz7yOptlqblikxZ+oKUCMAACYXzajaTZG1YD8M1paWqxwOKzh4WG/44IckY/BcPv2JtUuX5TVbycGp/Tnfzovy8pzpFBUXIulgXxc+MhDb5Z9+u+0asuTWf/+3M++puGezjzGKI58XPjIw+xUDgwOKRwOa2BwqKgBN9TXFTXMUg9PUtHz0Y9zDHo+3tAUlrHI0OjAhOPnoZChRXWVGh+alGmm9sYqQiFVrgzp8ocDWcfZq6Cn6UIMk2tx4YcnlX4+lkO54f7GA6NCa2/6rMau9Tp+HKqoUlX9Sk0OXdLU5Ljjd8K3bFX/u7/NPS5zj1vi16IfYXItLozwKvN6NKDMXesd1qkXzrp+Xr+iRnc8cqPefvmcBi+NpnweWbVSly8Ur5MGAIAkyZrSn3/8b1w/rm+8S3fs+Ef1/PwbuvDBqSJGDChfdNSAIhq8NJq2IwcAAABIbCYCAAAAAIFDRw0oooqqkG5YU6eKKi49AAAAuONuESii8LJqNT+6XuFl1X5HBQAAAAFGRw0AAAAAAoaOGgAAAAAEDB01AAAAAAgYOmoAAABIy6iqlSRZ5oTPMQHKBx01AAAApFW/ZoPMiRGNffwXv6MClA06agAAAEirYd09GujplGVO+h0VoGzQUQMAAIArI1SphtUtGvjoTb+jApQVOmpAEQ1fHtOZn/5Vw5fH/I4KAAAZadryHxSqqtXAX074HRWgrNBRA4poasLUte4hTU2YMkKG39EBACCtpgd2q+n+Xeo53q7Bvj/6HR2grNBRA3xghAw1f2m91v2rVX5HBQAAR6sf2KPVW/ao53i7en9zwO/oAGWn0u8IAOXIMi1d6R7UuntXaeVtNyj2xyvqf/uq39ECAEBLbtmipvu/prqmO+mkAT6iowb45NyJi7rWPaymu5dq/WdWaf1nVmmoe1zjbw7rev+IpsZNv6MIACgTFdX1ali7UU3371Zd050a6v2Tzv7T13Ttg9/6HTWgbNFRA3x0rXtI17qHVBWuVOSOJVq9YYXu+tJ6Waal37W/I3PSVGVNhVbc0qCRq+4vGR2+OKqJsSlJUkM0rFCl+/q38eFJjUxvZlK9uEr1kRqFRtLHEQCQHxXV9apdtn7mBdK5CtfWSCOjnn9Xs2yNapffrOpln1A4cqsWNUQkSUO9f9J7L+7V1feP5yV+ALJHRw0IgInhSXV3XNLEeUPDoUHVLK6SORkfUQsvr9atn1ud9vd/PPKRrnw0KEn65LbVqlm8yPW7F965qnd/2SNJarxzqdZuXpn22L/573+SJNUuWaS7H12voYtjGrkypuEroxq6NKaBWJpeHgCUsbropxSO3u7YIQqC8YF+Dfe/pytvH9PIxx9oOPauhmJ/9jtaAKbRUQMCZiA2ktT5ud4zrN+1v63w0mqFqpz3/xm+OPs09Z3XeuYdUbP1/emKxi5NaTiDp7GWKV06e121S6u14rbFqq5fLkkauTo+s8ZuYpgXoQJA4hovKbVDNHq5O29hhWtrMqrDE1kTIxq5/FdNjQ3mLR4A8o+OGrAATI2bGujPbORqIDac8XHHrk9o0BzVwOD80xtHr4/rw9/EZv5dsSikxZFaRe+aXWN38oWzGh+iswagPN1w0/268bNPqiZyx/QUwic1cP50YTtE9XUZ1eEAFh46agCyMjVu6sr5IV05H19jt3RdPZ00AGVr6W2f0y2P/jeN9r/NGi8AeUFHDUDOJoYndWH69QLhZdVaHA0r9ucrPscKAIojVFWrGx/8T7r+l9+p99W/Z4QLQF7wwmsAebXsEw265XONqgrzHAhAeWi6/wlV1a3QR8f+q99RAVBC6KgByCv7xd2RO5b4HBMAKLyaZesV3fzvFDv5vzR6+a9+RwdACaGjBiCvJoYn9fH71xW9a6nkvvkkAJSEdVv/syaGLqn3t8/7HRUAJcZoaWmxwuGwhocz3ykOwUQ+LnylkocNq2t1c1tEZ1/u0/DFMb+jU3Slko/ljnxc+AqdhzWrPqn1//oF9f7yaV0/+38KFk6541pc+MjD7FQODA4pHA4XfeFrQ5G3ky318CQVPR/9OMdSz8dSuRaH/zKim62IjFor5djlUG64Fhd+eFLp52M5lJtC52HNTTdKlqXYn36lqbF4OKWej1yLpRFmqV2LTkohTZn6CCDvpsZNjQ1OKLy82u+oAEDB1K68WeMD/bw4GkBB0FEDUBDDH48qvGyR39EAgIKpWXGTRi594Hc0AJQoOmoACuJ6bFRTk5bf0QCAgqldcbNGL33odzQAlChedASgIM69ccHvKABAwVRU12tRQ0QjFxlRA1AYjKgBAAB4VL1kjWQYGr3Cu9MAFAYdNQAFUVVbocinlqiqtsLvqABA3oVC8UlJ1uSEzzEBUKroqAEoiJrFi3Tbg6tVs5gNRQAAALyiowYAAAAAAUNHDQAAAAACho4aAAAAAAQMHTUAAAAACBg6agAAAAAQMHTUAAAAACBg6KgBAAAAQMBU+h0BAKVp8OKoTr1wVmNDk35HBQAAYMGhowagICzT0ujAhN/RAAAAWJCY+ggAAAAAAUNHDUBBNERq9cB/vFMNkVq/owIAALDg0FEDAAAAgIChowYAAAAAAUNHDQAAAAACho4aAAAAAAQMHTUAAAAACBg6agAAAAAQMHTUAAAAACBg6KgBKIixoQmdO3FRY0MTfkcFAPJubPCCen9zQGODF/yOCoASVel3BFBcX/nyo35HAeVmrd8RAIBCuSBFH/A7EigzL/7kp35HAUVS2VBfJ0my/1tMxQ6z1MPLNMzjx48XISYAAADIpy1btsz8Pdf7TO6Lgx9e5cDgkMLhsAYGh/J64Pk01NcVNcxSD0+SL/kIAACA4svlnq/Y96n0NbLDGjUAAAAACBg6agAAAAAQMHTUAAAAACBg6KgBAAAAQMDQUQMAAACAgKGjBgAAAAABwwuvMb+aOhnLG6XaBqmiUpoYkzV0TbrUI01N+h07AAAAoOTQUYMrY3mTdOtGGUtXpX4mSeaU1P+RzLMd0vBA0eMHAAAAlCqmPiJVqELG3Q/I2Nzm2ElL/J4ab1LogUdlrL29ePFDoJib9ugHPzyo7+/anPlvzM164rkD+v5ze9RqmgWMHYKGvAcAIDOMqCFZqEKhTQ9Jy6IefhOScdf9Uk2drPdOFy5uWTLNNfrivv+irVHD9TtnfvSEnj/Fc4uFyjQ3a1f7Y2o2kvOYfA1g+V/bpFWSDKNFG++VOk4VJ9hyNl8ZiB3dr2df7i5yrEoH9U9c0yP79M22Rlldh/T1gycdv2Nu2qPndrbIir2m7+37mXpDqemTyXGAclE+NQgyYtz5GW+dtMTf3tIio+mm+b9XIVUtNVQdCamixv3mEchE0yP79NyBx1NukiSpeefzemITozaBcr5XFyRZVqdOv+F3ZCBJ0banGOHMEvXPrO6+/vhfmltdy9KmjRvif4m0qHVt6uemuUatLfF7kLdOnyhENIEFhRE1zDCWN8lYc2tux7jjPlkXzkuTE46fV9RJKz9bqYpwvFGzpqSrp6Y0fL7wjZll9en1f3har/Q4PZ8or2cW9lPNhf4k3dy0R99sa5SU+vTaHkXI7rGD93gEPT2DUv5DoZN6fu9J+x9FC7fUZVIGncqA/TvDaNFX99ynjjIYwcjX9RqU+icw3ujQmR0bdLcialordfQkf2yam7WxOf53w2hUtElSz9yDNCkaSXiQQxWBMsclgFm3bnT9aKznQ10//Wtd/X8v69pvf6Ghdzpkjg6nfnFRjYx1d7oep+G2CsmQLhybVP9rkxr/2FT9nRTDYlvTGPE7CnlhP52NHd2fMsUoFOrWK8/sLsrUo1JJTyxc2ZbB0Kl27f1RZ/wfaUZCSkm+rteg1D9BEQqd1Okz8U5Yc+uNqV+YnvYci/VJku7eeF/qd+5tjY9O9vepr7DRBRaE8qlBkF5NnYylK1P/v2VpsPO4Bv/4hgxJixrXqXLJCo33d2vo3T84Hspo+oRrMBX1hiauShPXLE0OWhq7aKmiOk/ngLJ1oe+c31EAFq43OnTGsqTpkRB4Q/0z69TpLklSpLEp5bM1rS2KGoYudHYqZllSpElNcx4M2J3o/s43HdevAeWGqY+IW96o6U33k4z2fKDxC926YdPfqDJh7Vp4ynlqoySpfqlUXSuNjaR+ZljSVEI4Vg5xLhBz9XY99a02RfqP6nv7fqbue/fquZ0tM5/Pt8DZXgidKHFaTPLx31Tr9CJ/K/aaXoq1aXuL4Tolxy1udpzsKT0zcZ2zYHtu3KJtT+kHbQ5xdNl8IJPF3SlxyGJBuNPifKfj9PXFpA2N8Sezp9KH0brrgHZsyDxte0Mhx3RITNNM09PLOc1X/pLyKQ9pPV86zFf+503XOZsHdOs+7Wp/THerSz/e85w6QvNfF4ll2MvGDdlcy4VK/3zl/9zfeCmDXhQkP+yykGF9lfTbrNIvOd6H/tCif7/NPa1Ob/wfnuoIL/XPfOfilmZ2/jrFya6fHozEkqa0Zpp3icefLx6Zpr96+xSzNijS3KpW88TM9S1JjY1RWVafYh1vKtbSpgcjLWpd+zP19syej70+Ld75zfx8vLRZ2ZRDv8uu27FR+sh1SJKM2nrH/z/R362qFU1JnTRJMiqqZFRUuR+wps45nIS/Rx+u1OK7KhRaZGj1V6pS/iy5p8LraeRd4/ZnkipjSTI2PO64Fb297fjcRk+S7t7xjB5enTqlqHVPcsPy51dfU8yyFHnoYccpSJu+0KaoYeit11Ir7aZH9qXGNbpN32jf62k6U7od4tzOPW0cNjzuaaMCc9Mex8X5TsfpPvILnbGsjMI49epRT2lrrt6up9pT08GIbtPO7Q7TevJ0Tomcyp+9QYFrWnt4TcJ8Min/M0/QW+5JeTpummv0xW3x6WFOZdbN3OvCNt/GDenO3cu1nO432aR/PvM/33ksaXa6mfrVez7140Lkh5f6Ktv0c4u3G691hJf6x5ZLmmXDLQ28tFee0v/8mzrTP7ura2J4G5sl9Xeq4/w5dXTGHKZIzlmfluH55L3NmqfdDGLZReliRA1xlYsc//fUyJAql2exHNrleAPvmpJPSyAMo1Fbv/28ts75/25Pq4zoNn31oT4de/aJmSeVM08fmz+vh1efmH2CmfDEzLI6k0YKJKl11z6lTgRpUXNzlw7vThhVMNfoTP82bY2mbl1uN3SOi6wjn9fOZiXF1X46FzVa1Lb9RnW83K3el/fpyZfdntImHjCmY8/O2XTAfto359y9xiEdc/V2PbUjfmM/96lufOQmecODUOikDv5D00wYOw48r686pL+k6RuItozT1r4pm/sk29y0R09N39tkkp5ez8kWL3+dOrz76ZlzsUev7t72jFZFoknhzTzhdcmfgpX/N17RsW0bUp6OS5LW3qPmSDyMn2e8MUDqdaHpjvPOh+J1kVOePLf6afIuAAALG0lEQVSzRcaGx/XEphMpowFeruV8p39u+T9/nDO/pp0ljqj0//KV1OumAPnhpa7INv0c460jevKVNGlleqsjPNU/0+eSdZplxSXvPLRX3uvkbnV0xrS1rVGrGm+UNH2O0w8DYtNTGs2+fkmN01Mkk79jdXU4pp/b+cTvKYrUZvlVdhlNK1vkPOKcpilKqmxYoqmrlyTL4xzF8VHnYPrj69IWAqcd0rqP/E8di1mzO1ZNW7P98/EGJvaavufQSHcc3OdwI9ioC4eTvxsKdeul1+IjFCkLracbMcebqYh0Zk5cQz1HtP+w+2iHm/gi+NT4hnqO6OgZpZx7PuNgd46cpt6can8hvo5mzoYHoZ4jenbvbn33aHzpuTF9w/T9p7cnhZdt2s5dfxI61e5pp7hszkmyy19y+bC/b0QbpV9+Jzkeb7ziWDazlWn5t2/MDKNRD34hOV3tNSle1ps4XReSe8dZSt4Q4+5tX0opZ16u5eTf5J7+ueW/tzjPx+6s/+CHB2f+2J00q+uQY7kuRH54qSuyTT+3eKeTTR2Raf2TeC5ZpVkW3NLAS3uVTfrb2/Qn5qO99mymPrXXRSb8dmZ9Wl+vp/MpapsV0LKL0sWIGiRJ1vB1hxVqUvWNt+r6yV9p6N3TCt+6QUZFvMiMxz7S1Nioatfdnnos05RGBgocY+/Sbk/uVCH2d6rjvJIeZ4RC3ertlxRV0tPCxsbp9754mN7luv2wvcVxwhx/ewqZZfXpTMe51B85xDXpWJFGNUpybv7cua2lcJRjHExzjZqmN2Nr3vm8frDT+XuW5bz189yRhfhUlMbkp8Ue0vbU6S7t2NAyE5dstvLO6Zwc07NXsX7p7khqOUgsm85hFK78d3d0KvZQNGldimlu1t8+FJVlderokXMZPxF2ui7sdHQt/1L6cubhXNL9xmv65zv/541zFpxGVOZ+Xoz8cPpNdw7pl/X27tnUv5q//sk5zbLglgaZtldZl1+HfGxtiaaMRp4+85jubp79rb2GzS19MsnTgrdZQS67KEkUA8R93CuZUyn/u2rpKtV9slVj597Xlf/7z7p6/Oe6/KufaKDrd5q6+rHzSNuVmOt71EpBX18s6d+JDXDMS8vqsv1wKHRSP/9lTMb0NApJM1PIdOYXzjfa/b15W2hsmmv08NMH9IMfHnRdS+Eo5zjE1yfkqvflfdq7e//0yEN8aonNS9qGTrXPHEea3njghwcdn5QX+pyCZG75l+S8LsVe93TGbRqTC8frwk5H5zVU2XI8l7zKf/7nEmfLik+lfPJru2b+fH1ve/r8KUR+ZFxX5JB+WW7vnlX9m8C9/ilMGU7LIQ28tVfZpf/sNv12fTB9nDl1QV/f7Dq15DVsmZ+PfU5Fa7MCXHZRmhhRQ9zkhKzYX2U03ZzyUc2621S1IqrxS32aGrymito6VS2LqHLJCudj9bxf4MgGk/sLPL2bGaFouUdNR86p0Z5CcfqECv18ZdP0ImanESR7jU5hzI5WuL+Y2ZY+DUKhbr106Kiav9WWsvuYl7S134X0ihLWIUS36Rt7ejPcXTF/5xRk9pSxrTtbZnbA27QxPgLx+qv5LLPOo6nBVer5X+j88Cf9cq1/neqf2eVu2aVZ0lquPMisvco+/e0dMVc13ji7Pm3OlMaZdG5smnnHWjadJ//arHRK/dpHsVA6MMM62+E4qiZJFXWLVbvudtXfuVm1N93p3kkbuCyr94MCxjJ4ZqYjyeUFntkcc3puvSItal17X3wRu70hgxOXF9XaaxEyHdVIXDB/9Mi5OZ/NTuUoRBzsdHR9WWqeeE7bhN/t3+O+rsDxN0U6p0BIXHOyerva5ns67sG8L9KVsh/BK6BSzf+c8yPDusKv9Mu2jkh7zCzTzF7v5fTOsZmRPk/xyLy9yiX9uzvi70qLtNyjL25MnDaa4HyvLkhSc6u+OL2e9a3TJzyFU/Q2K+BlF6UnGK0ZgmFkUNbbObREkxMyO3+d8cYjsVcm1fPihOufq286dxqDyN7W2djwuOPUuNZd+xy35097zNNd8Ur+8XgDkG5DBsNo0VfnbA1sbtozs1GAW+PntsFH0rQfpd/+ONc4JLK3eo+2PaVvP7Im6TN7O+knNs0ev3XXAcf0Ns3N2vWt+FNwp8Z2vrSNT6VxyLOZbcydOaWn13NaqJKmO32h0fU1EtlKm44J7zTyeqNXaMXOfy8bB+Uil/zwUlcUMv3SpVUm9a/X+ierNOvti7ctc14LkhSGR17aq6zTf3o6tCIt053J1Cmfdp0hRdTcEvW+fCBBsdqsoJRdlA+mPiKJde4dqbpWxi2f9vbDyQmZp38lDV4pTMTywG17cin3FwXHd31qjG+vHN2mbx7Ylnx8q0+vv+rxoNPbnm+NNqZfgC7J6npNr0fatOPA89qR8tmhlB2n7Ckn0YS4xnemii/wbt6Q/DJYKf5E+VhXm7a6TCPxGgcnoVPtOrwxPlVlbvi2M3P+7ZTeM+Fanfpx+4nUjSwyStuoa3mZu/Obe3qGsjqnQihk+bedevWo2prb1LyhJe8L4kOn2vXdxvhGDW7pGDu6P0/bmudPsfI/XRkshFzyw0tdUYj0yyitMqx/vdQ/2aRZfHSvTTsc6uTY0UM61vKYHvQ6quahvco2/RO36Y9G5brlvr1pUzQqWTGXjTrSnUuouG2W32UX5SdYLRoCwXrvD7K6/sV1i/0UA5dl/v7V+IYkZWzu5hOJ3jo83xx1h+NNN3SSMljE3quX9n0nJewzP3rC8QY8cTvhuToOzm41bbO6DunrzxyZZxcyb3Fw03Fwt/Y+G3/xd1IcrE4d3p18M9VxcPfMltZzxY7ud90oYb60DYW69dK+6WmODnFI2Vo7TXp6PacFzX6KLrd3cuUmvlHDoYzzJSiKkf/zlcFCyD4/vNUV+U6/TNIqk/o3m/onmzTrOLhbh7uSvx87ul/7j2Tf5nppr7JN/5lpm0oz0j09YijJ02s8EhW3zfK37KL8GDffcqsVWbVS/RcuFjXghvo6DQwOEV4eZZKPX/nyozp+/HhmB6xcJGP9p2Q03iTVL0n6yDJN6Uq/1H1WVt+H3t+zhnklTt1wezJuT5fJ14hIucgkbQHk10Kqr6gjSlc25TBIZXfLli168Sc/zfk4xb5Ppa+RncrIqpWS4glYbOFwmPDyLK/5ODku6/1OWe93yqgOy6qtkxGqlDUxKo0MSZPj+QsLqe59WFujxuwidu4T8oe0BZAOdQQWgFzv+Yp9n0pfw7vK/gsX6eWWQHhSYZ9WWGPD0tiwGDcrDtPcrF07Nkjy9hJtzI+0BZAOdQQWilzu+RhRWxjhsZkIECBNj+yb2T1KynwTDsyPtAWQDnUEgKChBgICKghz4UsVaQsgHeoIAEHAZiIlEp5UgM1EAAAAEBhsJpK5Urj3Z0QNAAAAAAKGjhoAAAAABAwdNQAAAAAIGDpqAAAAABAwdNQAAAAAIGDoqAEAAABAwPDC6zK0ZcsWv6MAAAAAIA06amUmH+/eAAAAAFBYTH1E1hrq60o+zGKHF1m1sqjhSaWfpn6EWex8LIc09eMcSz0fy6HcUKcu/PCk0r8W/QoTwUdHDQAAAAACho4aAAAAAAQMHTUAAAAACBg6agAAAAAQMHTUAAAAACBg6KgBAAAAQMDQUQMAAACAgKGjBgAAAAABQ0cNAAAAAAKGjhoAAAAABAwdNQAAAAAIGDpqAAAAABAwdNQAAAAAIGDoqAEAAABAwBgtLS1WOBzW8PCw33FBjsjHhY88LA3kY2kgHxc+8rA0kI8LH3mYnf8PeFKj0koV6g0AAAAASUVORK5CYII=;sketch=1;curveFitting=1;jiggle=2;fillColor=#FAE5C7;strokeColor=#0F8B8D;fontColor=#143642;" vertex="1" parent="1">
          <mxGeometry x="900" y="1340" width="874" height="514" as="geometry" />
        </mxCell>
      </root>
    </mxGraphModel>
  </diagram>
</mxfile>
